solid shape
 facet normal -0.2906281 -0.6787569 0.67440665
  outer loop
   vertex -1.779179 0.14637598 0.148262
   vertex -0.779179 0.14637598 0.579201
   vertex -1.779179 0.574553 0.579201
  endloop
 endfacet
 facet normal -0.2906281 0.6787569 -0.67440665
  outer loop
   vertex -0.779179 0.574553 0.148262
   vertex -1.779179 0.14637598 0.148262
   vertex -1.779179 0.574553 0.579201
  endloop
 endfacet
 facet normal -0.6276753 0.09463449 -0.77270174
  outer loop
   vertex -1.8851048 0.31800187 -4.3313823
   vertex -4.8380146 0.2819355 -1.9371138
   vertex -4.8376894 0.9975643 -1.8497334
  endloop
 endfacet
 facet normal -0.6234227 0.11538504 -0.7733244
  outer loop
   vertex -1.8845074 1.7727674 -4.1148033
   vertex -1.8851048 0.31800187 -4.3313823
   vertex -4.8376894 0.9975643 -1.8497334
  endloop
 endfacet
 facet normal 0.14189735 0.50214165 -0.8530644
  outer loop
   vertex 20.000057 0.35934716 0.36235458
   vertex 2.0252495 1.317083 -2.0637918
   vertex 2.0256355 2.0203958 -1.6497347
  endloop
 endfacet
 facet normal 0.97777665 0.10078384 -0.18383522
  outer loop
   vertex -4.8376894 0.9975643 -1.8497334
   vertex -4.1340637 0.009541392 1.3510242
   vertex -4.1340184 -0.2786656 1.1932616
  endloop
 endfacet
 facet normal -0.97797966 -0.087915175 0.18927929
  outer loop
   vertex -4.837493 1.6510079 -1.5452112
   vertex -4.8376894 0.9975643 -1.8497334
   vertex -4.1340184 -0.2786656 1.1932616
  endloop
 endfacet
 facet normal -0.6274779 0.53121173 -0.5692851
  outer loop
   vertex -1.8839656 3.088466 -3.4593287
   vertex -4.837493 1.6510079 -1.5452112
   vertex -4.837316 2.177572 -1.0540583
  endloop
 endfacet
 facet normal -0.62326014 0.5482367 -0.55765873
  outer loop
   vertex -1.8834966 4.1358395 -2.4301753
   vertex -1.8839656 3.088466 -3.4593287
   vertex -4.837316 2.177572 -1.0540583
  endloop
 endfacet
 facet normal 0.14195904 0.9077235 -0.3948237
  outer loop
   vertex 20.000057 0.35934716 0.36235458
   vertex 2.0259228 2.560834 -1.0389023
   vertex 2.0261202 2.8861141 -0.29099292
  endloop
 endfacet
 facet normal 0.9777949 0.1895434 -0.08938939
  outer loop
   vertex -4.837316 2.177572 -1.0540583
   vertex -4.1339283 -0.5038111 0.95435184
   vertex -4.133843 -0.64416397 0.6576785
  endloop
 endfacet
 facet normal -0.9779977 -0.18238018 0.101280995
  outer loop
   vertex -4.8371677 2.5265758 -0.42416325
   vertex -4.837316 2.177572 -1.0540583
   vertex -4.133843 -0.64416397 0.6576785
  endloop
 endfacet
 facet normal -0.62732106 0.764514 -0.1482787
  outer loop
   vertex -1.8831562 4.814023 -1.1277574
   vertex -4.8371677 2.5265758 -0.42416325
   vertex -4.8370867 2.6637688 0.28285056
  endloop
 endfacet
 facet normal -0.6231561 0.77136683 -0.12911089
  outer loop
   vertex -1.8829935 5.0565658 0.3205173
   vertex -1.8831562 4.814023 -1.1277574
   vertex -4.8370867 2.6637688 0.28285056
  endloop
 endfacet
 facet normal 0.14196014 0.96644753 0.21407117
  outer loop
   vertex 20.000057 0.35934716 0.36235458
   vertex 2.026199 2.9644008 0.5208225
   vertex 2.0261223 2.7880287 1.3171238
  endloop
 endfacet
 facet normal 0.9778111 0.2058633 0.038805444
  outer loop
   vertex -4.8370867 2.6637688 0.28285056
   vertex -4.1337805 -0.68611 0.33224037
   vertex -4.1337366 -0.62553966 0.009807944
  endloop
 endfacet
 facet normal -0.97800636 -0.20700713 -0.02552901
  outer loop
   vertex -4.8371067 2.5757084 0.99767315
   vertex -4.8370867 2.6637688 0.28285056
   vertex -4.1337366 -0.62553966 0.009807944
  endloop
 endfacet
 facet normal -0.62729156 0.70566857 0.32944968
  outer loop
   vertex -1.8830929 4.8397565 1.7727851
   vertex -4.8371067 2.5757084 0.99767315
   vertex -4.8372326 2.2709975 1.6501124
  endloop
 endfacet
 facet normal -0.62318426 0.7000247 0.34872165
  outer loop
   vertex -1.8833828 4.184834 3.08696
   vertex -1.8830929 4.8397565 1.7727851
   vertex -4.8372326 2.2709975 1.6501124
  endloop
 endfacet
 facet normal 0.1419079 0.6561118 0.74120134
  outer loop
   vertex 20.000057 0.35934716 0.36235458
   vertex 2.025996 2.3742914 2.0199783
   vertex 2.025706 1.7636521 2.5605721
  endloop
 endfacet
 facet normal 0.9778079 0.14400136 0.15216847
  outer loop
   vertex -4.8372326 2.2709975 1.6501124
   vertex -4.1337104 -0.46838218 -0.27824557
   vertex -4.1337166 -0.2300439 -0.503752
  endloop
 endfacet
 facet normal -0.9779925 -0.15218951 -0.1427207
  outer loop
   vertex -4.8375382 1.7795869 2.1762202
   vertex -4.8372326 2.2709975 1.6501124
   vertex -4.1337166 -0.2300439 -0.503752
  endloop
 endfacet
 facet normal -0.62740684 0.37725452 0.6812046
  outer loop
   vertex -1.8836623 3.155972 4.1345663
   vertex -4.8375382 1.7795869 2.1762202
   vertex -4.8374557 1.1497189 2.5251203
  endloop
 endfacet
 facet normal -0.6233451 0.3615292 0.69335246
  outer loop
   vertex -1.8838832 1.8537799 4.8133593
   vertex -1.8836623 3.155972 4.1345663
   vertex -4.8374557 1.1497189 2.5251203
  endloop
 endfacet
 facet normal 0.14181809 0.095263064 0.9852983
  outer loop
   vertex 20.000057 0.35934716 0.36235458
   vertex 2.0252597 1.0158277 2.8860707
   vertex 2.0248733 0.2039858 2.9646187
  endloop
 endfacet
 facet normal 0.9778052 0.027350767 0.20772302
  outer loop
   vertex -4.8374557 1.1497189 2.5251203
   vertex -4.1337585 0.06635071 -0.6447152
   vertex -4.1338234 0.3918826 -0.6872728
  endloop
 endfacet
 facet normal -0.9779871 -0.03959083 -0.2048753
  outer loop
   vertex -4.8375573 0.44296154 2.6621814
   vertex -4.8374557 1.1497189 2.5251203
   vertex -4.1338234 0.3918826 -0.6872728
  endloop
 endfacet
 facet normal -0.6276232 -0.09515415 0.7726803
  outer loop
   vertex -1.8847284 0.4056973 5.05608
   vertex -4.8375573 0.44296154 2.6621814
   vertex -4.838129 -0.2712403 2.5737643
  endloop
 endfacet
 facet normal -0.6235642 -0.11501077 0.7732659
  outer loop
   vertex -1.8854665 -1.0465043 4.8394933
   vertex -1.8847284 0.4056973 5.05608
   vertex -4.838129 -0.2712403 2.5737643
  endloop
 endfacet
 facet normal 0.14173172 -0.5020202 0.8531634
  outer loop
   vertex 20.000057 0.35934716 0.36235458
   vertex 2.024577 -0.5923928 2.7885053
   vertex 2.02416 -1.2953188 2.3749573
  endloop
 endfacet
 facet normal 0.9777688 -0.09994596 0.18433394
  outer loop
   vertex -4.838129 -0.2712403 2.5737643
   vertex -4.133891 0.714815 -0.62710965
   vertex -4.1339765 1.0034747 -0.4701451
  endloop
 endfacet
 facet normal -0.97794646 0.08870473 -0.18908258
  outer loop
   vertex -4.8384 -0.92318904 2.269315
   vertex -4.838129 -0.2712403 2.5737643
   vertex -4.1339765 1.0034747 -0.4701451
  endloop
 endfacet
 facet normal -0.62784547 -0.53083587 0.56923056
  outer loop
   vertex -1.8857732 -2.361045 4.1851077
   vertex -4.8384 -0.92318904 2.269315
   vertex -4.8384256 -1.449421 1.778549
  endloop
 endfacet
 facet normal -0.62376726 -0.5473359 0.5579766
  outer loop
   vertex -1.886261 -3.4089375 3.1566532
   vertex -1.8857732 -2.361045 4.1851077
   vertex -4.8384256 -1.449421 1.778549
  endloop
 endfacet
 facet normal 0.1416745 -0.9075397 0.3953479
  outer loop
   vertex 20.000057 0.35934716 0.36235458
   vertex 2.0237768 -1.8361093 1.7644527
   vertex 2.0236247 -2.1618621 1.0167266
  endloop
 endfacet
 facet normal 0.97775525 -0.18930443 0.09032405
  outer loop
   vertex -4.8384256 -1.449421 1.778549
   vertex -4.134067 1.2294743 -0.23158188
   vertex -4.1341476 1.3707201 0.06531842
  endloop
 endfacet
 facet normal -0.9779368 0.18284638 -0.101029426
  outer loop
   vertex -4.8386097 -1.7980857 1.1493058
   vertex -4.8384256 -1.449421 1.778549
   vertex -4.1341476 1.3707201 0.06531842
  endloop
 endfacet
 facet normal -0.6280017 -0.76389 0.14861324
  outer loop
   vertex -1.886765 -4.0875936 1.8547027
   vertex -4.8386097 -1.7980857 1.1493058
   vertex -4.8388076 -1.9353006 0.4431689
  endloop
 endfacet
 facet normal -0.6238748 -0.7707052 0.12959062
  outer loop
   vertex -1.8869567 -4.3308997 0.4067821
   vertex -1.886765 -4.0875936 1.8547027
   vertex -4.8388076 -1.9353006 0.4431689
  endloop
 endfacet
 facet normal 0.14167331 -0.96662045 -0.21347973
  outer loop
   vertex 20.000057 0.35934716 0.36235458
   vertex 2.023564 -2.2406278 0.20496
   vertex 2.0236025 -2.0647347 -0.59144574
  endloop
 endfacet
 facet normal 0.9777281 -0.20632643 -0.038430937
  outer loop
   vertex -4.8388076 -1.9353006 0.4431689
   vertex -4.1342134 1.4132357 0.39138585
   vertex -4.13426 1.352801 0.7146558
  endloop
 endfacet
 facet normal -0.97791725 0.20744269 0.025402583
  outer loop
   vertex -4.838813 -1.8478892 -0.27085245
   vertex -4.8388076 -1.9353006 0.4431689
   vertex -4.13426 1.352801 0.7146558
  endloop
 endfacet
 facet normal -0.6280256 -0.70544297 -0.32853323
  outer loop
   vertex -1.88695 -4.115055 -1.0454748
   vertex -4.838813 -1.8478892 -0.27085245
   vertex -4.83875 -1.544241 -0.9229814
  endloop
 endfacet
 facet normal -0.62384236 -0.6997033 -0.34818962
  outer loop
   vertex -1.8867083 -3.4610968 -2.3600676
   vertex -1.88695 -4.115055 -1.0454748
   vertex -4.83875 -1.544241 -0.9229814
  endloop
 endfacet
 facet normal 0.14172702 -0.6566476 -0.74076134
  outer loop
   vertex 20.000057 0.35934716 0.36235458
   vertex 2.0237932 -1.651372 -1.2945735
   vertex 2.0240784 -1.0410433 -1.8355443
  endloop
 endfacet
 facet normal 0.9777252 -0.14413606 -0.15257257
  outer loop
   vertex -4.83875 -1.544241 -0.9229814
   vertex -4.1342783 1.1953316 1.0033699
   vertex -4.134269 0.9563414 1.2292033
  endloop
 endfacet
 facet normal -0.97792345 0.15314569 0.14216937
  outer loop
   vertex -4.8385363 -1.0540121 -1.4495894
   vertex -4.83875 -1.544241 -0.9229814
   vertex -4.134269 0.9563414 1.2292033
  endloop
 endfacet
 facet normal -0.62791544 -0.37782016 -0.680422
  outer loop
   vertex -1.8862724 -2.4330034 -3.4083173
   vertex -4.8385363 -1.0540121 -1.4495894
   vertex -4.8383164 -0.42501068 -1.7990599
  endloop
 endfacet
 facet normal -0.6236851 -0.36145014 -0.6930878
  outer loop
   vertex -1.8857825 -1.1313304 -4.0875897
   vertex -1.8862724 -2.4330034 -3.4083173
   vertex -4.8383164 -0.42501068 -1.7990599
  endloop
 endfacet
 facet normal 0.14180648 -0.09560533 -0.98526675
  outer loop
   vertex 20.000057 0.35934716 0.36235458
   vertex 2.024434 -0.29342216 -2.1614816
   vertex 2.0248325 0.5194919 -2.2403054
  endloop
 endfacet
 facet normal 0.9777378 -0.026544547 -0.20814484
  outer loop
   vertex -4.8383164 -0.42501068 -1.7990599
   vertex -4.1342335 0.6593256 1.370009
   vertex -4.1341395 0.33309668 1.4120538
  endloop
 endfacet
 facet normal -0.97794497 0.040433053 0.20491138
  outer loop
   vertex -4.8380146 0.2819355 -1.9371138
   vertex -4.8383164 -0.42501068 -1.7990599
   vertex -4.1341395 0.33309668 1.4120538
  endloop
 endfacet
 facet normal -0.6278028 -0.14892596 -0.76399255
  outer loop
   vertex -1.8857825 -1.1313304 -4.0875897
   vertex -4.8383164 -0.42501068 -1.7990599
   vertex -4.8380146 0.2819355 -1.9371138
  endloop
 endfacet
 facet normal -0.6235558 -0.12939781 -0.77099574
  outer loop
   vertex -1.8851048 0.31800187 -4.3313823
   vertex -1.8857825 -1.1313304 -4.0875897
   vertex -4.8380146 0.2819355 -1.9371138
  endloop
 endfacet
 facet normal 0.9777346 -0.089795046 -0.18966252
  outer loop
   vertex -4.8385363 -1.0540121 -1.4495894
   vertex -4.134269 0.9563414 1.2292033
   vertex -4.1342335 0.6593256 1.370009
  endloop
 endfacet
 facet normal -0.97793615 0.10171957 0.18246685
  outer loop
   vertex -4.8383164 -0.42501068 -1.7990599
   vertex -4.8385363 -1.0540121 -1.4495894
   vertex -4.1342335 0.6593256 1.370009
  endloop
 endfacet
 facet normal 0.14176847 -0.39565825 -0.9073898
  outer loop
   vertex 20.000057 0.35934716 0.36235458
   vertex 2.0240784 -1.0410433 -1.8355443
   vertex 2.024434 -0.29342216 -2.1614816
  endloop
 endfacet
 facet normal -0.62798697 -0.5694834 -0.53039706
  outer loop
   vertex -1.8867083 -3.4610968 -2.3600676
   vertex -4.83875 -1.544241 -0.9229814
   vertex -4.8385363 -1.0540121 -1.4495894
  endloop
 endfacet
 facet normal -0.62377846 -0.5578847 -0.54741675
  outer loop
   vertex -1.8862724 -2.4330034 -3.4083173
   vertex -1.8867083 -3.4610968 -2.3600676
   vertex -4.8385363 -1.0540121 -1.4495894
  endloop
 endfacet
 facet normal 0.97772473 -0.18429151 -0.100454286
  outer loop
   vertex -4.838813 -1.8478892 -0.27085245
   vertex -4.13426 1.352801 0.7146558
   vertex -4.1342783 1.1953316 1.0033699
  endloop
 endfacet
 facet normal -0.97791827 0.18949303 0.088138506
  outer loop
   vertex -4.83875 -1.544241 -0.9229814
   vertex -4.838813 -1.8478892 -0.27085245
   vertex -4.1342783 1.1953316 1.0033699
  endloop
 endfacet
 facet normal 0.14169374 -0.8533829 -0.50165784
  outer loop
   vertex 20.000057 0.35934716 0.36235458
   vertex 2.0236025 -2.0647347 -0.59144574
   vertex 2.0237932 -1.651372 -1.2945735
  endloop
 endfacet
 facet normal -0.62803113 -0.77242213 -0.09455625
  outer loop
   vertex -1.8869567 -4.3308997 0.4067821
   vertex -4.8388076 -1.9353006 0.4431689
   vertex -4.838813 -1.8478892 -0.27085245
  endloop
 endfacet
 facet normal -0.623875 -0.7730322 -0.11489635
  outer loop
   vertex -1.88695 -4.115055 -1.0454748
   vertex -1.8869567 -4.3308997 0.4067821
   vertex -4.838813 -1.8478892 -0.27085245
  endloop
 endfacet
 facet normal 0.9777434 -0.20801783 0.027320419
  outer loop
   vertex -4.8386097 -1.7980857 1.1493058
   vertex -4.1341476 1.3707201 0.06531842
   vertex -4.1342134 1.4132357 0.39138585
  endloop
 endfacet
 facet normal -0.97792697 0.2051617 -0.039592497
  outer loop
   vertex -4.8388076 -1.9353006 0.4431689
   vertex -4.8386097 -1.7980857 1.1493058
   vertex -4.1342134 1.4132357 0.39138585
  endloop
 endfacet
 facet normal 0.14166714 -0.9852881 0.09559176
  outer loop
   vertex 20.000057 0.35934716 0.36235458
   vertex 2.0236247 -2.1618621 1.0167266
   vertex 2.023564 -2.2406278 0.20496
  endloop
 endfacet
 facet normal -0.6279416 -0.680664 0.37734064
  outer loop
   vertex -1.886261 -3.4089375 3.1566532
   vertex -4.8384256 -1.449421 1.778549
   vertex -4.8386097 -1.7980857 1.1493058
  endloop
 endfacet
 facet normal -0.6238397 -0.6929493 0.36144897
  outer loop
   vertex -1.886765 -4.0875936 1.8547027
   vertex -1.886261 -3.4089375 3.1566532
   vertex -4.8386097 -1.7980857 1.1493058
  endloop
 endfacet
 facet normal 0.9777533 -0.15209144 0.14445305
  outer loop
   vertex -4.8384 -0.92318904 2.269315
   vertex -4.1339765 1.0034747 -0.4701451
   vertex -4.134067 1.2294743 -0.23158188
  endloop
 endfacet
 facet normal -0.9779355 0.14250702 -0.15275417
  outer loop
   vertex -4.8384256 -1.449421 1.778549
   vertex -4.8384 -0.92318904 2.269315
   vertex -4.134067 1.2294743 -0.23158188
  endloop
 endfacet
 facet normal 0.14169651 -0.7410443 0.6563349
  outer loop
   vertex 20.000057 0.35934716 0.36235458
   vertex 2.02416 -1.2953188 2.3749573
   vertex 2.0237768 -1.8361093 1.7644527
  endloop
 endfacet
 facet normal -0.6277276 -0.32915744 0.70541716
  outer loop
   vertex -1.8854665 -1.0465043 4.8394933
   vertex -4.838129 -0.2712403 2.5737643
   vertex -4.8384 -0.92318904 2.269315
  endloop
 endfacet
 facet normal -0.6236669 -0.3482368 0.6998362
  outer loop
   vertex -1.8857732 -2.361045 4.1851077
   vertex -1.8854665 -1.0465043 4.8394933
   vertex -4.8384 -0.92318904 2.269315
  endloop
 endfacet
 facet normal 0.9778022 -0.03817776 0.20602241
  outer loop
   vertex -4.8375573 0.44296154 2.6621814
   vertex -4.1338234 0.3918826 -0.6872728
   vertex -4.133891 0.714815 -0.62710965
  endloop
 endfacet
 facet normal -0.9779776 0.026413146 -0.20703223
  outer loop
   vertex -4.838129 -0.2712403 2.5737643
   vertex -4.8375573 0.44296154 2.6621814
   vertex -4.133891 0.714815 -0.62710965
  endloop
 endfacet
 facet normal 0.1417731 -0.21379557 0.966536
  outer loop
   vertex 20.000057 0.35934716 0.36235458
   vertex 2.0248733 0.2039858 2.9646187
   vertex 2.024577 -0.5923928 2.7885053
  endloop
 endfacet
 facet normal -0.62751985 0.14831899 0.7643431
  outer loop
   vertex -1.8838832 1.8537799 4.8133593
   vertex -4.8374557 1.1497189 2.5251203
   vertex -4.8375573 0.44296154 2.6621814
  endloop
 endfacet
 facet normal -0.6234577 0.129602 0.7710408
  outer loop
   vertex -1.8847284 0.4056973 5.05608
   vertex -1.8838832 1.8537799 4.8133593
   vertex -4.8375573 0.44296154 2.6621814
  endloop
 endfacet
 facet normal 0.9777922 0.090124734 0.1892086
  outer loop
   vertex -4.8375382 1.7795869 2.1762202
   vertex -4.1337166 -0.2300439 -0.503752
   vertex -4.1337585 0.06635071 -0.6447152
  endloop
 endfacet
 facet normal -0.9779787 -0.10122655 -0.1825127
  outer loop
   vertex -4.8374557 1.1497189 2.5251203
   vertex -4.8375382 1.7795869 2.1762202
   vertex -4.1337585 0.06635071 -0.6447152
  endloop
 endfacet
 facet normal 0.14186504 0.39498705 0.90766704
  outer loop
   vertex 20.000057 0.35934716 0.36235458
   vertex 2.025706 1.7636521 2.5605721
   vertex 2.0252597 1.0158277 2.8860707
  endloop
 endfacet
 facet normal -0.62733066 0.5692898 0.53138053
  outer loop
   vertex -1.8833828 4.184834 3.08696
   vertex -4.8372326 2.2709975 1.6501124
   vertex -4.8375382 1.7795869 2.1762202
  endloop
 endfacet
 facet normal -0.6232466 0.55802757 0.5478768
  outer loop
   vertex -1.8836623 3.155972 4.1345663
   vertex -1.8833828 4.184834 3.08696
   vertex -4.8375382 1.7795869 2.1762202
  endloop
 endfacet
 facet normal 0.9778114 0.18385999 0.10040017
  outer loop
   vertex -4.8371067 2.5757084 0.99767315
   vertex -4.1337366 -0.62553966 0.009807944
   vertex -4.1337104 -0.46838218 -0.27824557
  endloop
 endfacet
 facet normal -0.9780026 -0.18892449 -0.08842273
  outer loop
   vertex -4.8372326 2.2709975 1.6501124
   vertex -4.8371067 2.5757084 0.99767315
   vertex -4.1337104 -0.46838218 -0.27824557
  endloop
 endfacet
 facet normal 0.14194001 0.85304034 0.5021705
  outer loop
   vertex 20.000057 0.35934716 0.36235458
   vertex 2.0261223 2.7880287 1.3171238
   vertex 2.025996 2.3742914 2.0199783
  endloop
 endfacet
 facet normal -0.62729263 0.77294266 0.095202625
  outer loop
   vertex -1.8829935 5.0565658 0.3205173
   vertex -4.8370867 2.6637688 0.28285056
   vertex -4.8371067 2.5757084 0.99767315
  endloop
 endfacet
 facet normal -0.6231515 0.77353495 0.11543848
  outer loop
   vertex -1.8830929 4.8397565 1.7727851
   vertex -1.8829935 5.0565658 0.3205173
   vertex -4.8371067 2.5757084 0.99767315
  endloop
 endfacet
 facet normal 0.9778057 0.20781894 -0.026598241
  outer loop
   vertex -4.8371677 2.5265758 -0.42416325
   vertex -4.133843 -0.64416397 0.6576785
   vertex -4.1337805 -0.68611 0.33224037
  endloop
 endfacet
 facet normal -0.9780043 -0.20474435 0.039841887
  outer loop
   vertex -4.8370867 2.6637688 0.28285056
   vertex -4.8371677 2.5265758 -0.42416325
   vertex -4.1337805 -0.68611 0.33224037
  endloop
 endfacet
 facet normal 0.14196718 0.9852992 -0.09503041
  outer loop
   vertex 20.000057 0.35934716 0.36235458
   vertex 2.0261202 2.8861141 -0.29099292
   vertex 2.026199 2.9644008 0.5208225
  endloop
 endfacet
 facet normal -0.62738377 0.68120795 -0.37728673
  outer loop
   vertex -1.8834966 4.1358395 -2.4301753
   vertex -4.837316 2.177572 -1.0540583
   vertex -4.8371677 2.5265758 -0.42416325
  endloop
 endfacet
 facet normal -0.6231919 0.69372946 -0.3610698
  outer loop
   vertex -1.8831562 4.814023 -1.1277574
   vertex -1.8834966 4.1358395 -2.4301753
   vertex -4.8371677 2.5265758 -0.42416325
  endloop
 endfacet
 facet normal 0.97778577 0.15272734 -0.14355938
  outer loop
   vertex -4.837493 1.6510079 -1.5452112
   vertex -4.1340184 -0.2786656 1.1932616
   vertex -4.1339283 -0.5038111 0.95435184
  endloop
 endfacet
 facet normal -0.97799045 -0.14214197 0.1527424
  outer loop
   vertex -4.837316 2.177572 -1.0540583
   vertex -4.837493 1.6510079 -1.5452112
   vertex -4.1339283 -0.5038111 0.95435184
  endloop
 endfacet
 facet normal 0.14193705 0.74132824 -0.6559621
  outer loop
   vertex 20.000057 0.35934716 0.36235458
   vertex 2.0256355 2.0203958 -1.6497347
   vertex 2.0259228 2.560834 -1.0389023
  endloop
 endfacet
 facet normal -0.627572 0.32902515 -0.7056174
  outer loop
   vertex -1.8845074 1.7727674 -4.1148033
   vertex -4.8376894 0.9975643 -1.8497334
   vertex -4.837493 1.6510079 -1.5452112
  endloop
 endfacet
 facet normal -0.6233334 0.34889615 -0.6998049
  outer loop
   vertex -1.8839656 3.088466 -3.4593287
   vertex -1.8845074 1.7727674 -4.1148033
   vertex -4.837493 1.6510079 -1.5452112
  endloop
 endfacet
 facet normal 0.9777524 0.03910148 -0.20608583
  outer loop
   vertex -4.8380146 0.2819355 -1.9371138
   vertex -4.1341395 0.33309668 1.4120538
   vertex -4.1340637 0.009541392 1.3510242
  endloop
 endfacet
 facet normal -0.97795933 -0.02486866 0.20730922
  outer loop
   vertex -4.8376894 0.9975643 -1.8497334
   vertex -4.8380146 0.2819355 -1.9371138
   vertex -4.1340637 0.009541392 1.3510242
  endloop
 endfacet
 facet normal 0.14184868 0.21382429 -0.9665185
  outer loop
   vertex 20.000057 0.35934716 0.36235458
   vertex 2.0248325 0.5194919 -2.2403054
   vertex 2.0252495 1.317083 -2.0637918
  endloop
 endfacet
 facet normal 0.46234354 0.13038328 -0.87706256
  outer loop
   vertex 2.0248325 0.5194919 -2.2403054
   vertex -1.8851048 0.31800187 -4.3313823
   vertex -1.8845074 1.7727674 -4.1148033
  endloop
 endfacet
 facet normal 0.47336048 0.19010237 -0.860111
  outer loop
   vertex 2.0252495 1.317083 -2.0637918
   vertex 2.0248325 0.5194919 -2.2403054
   vertex -1.8845074 1.7727674 -4.1148033
  endloop
 endfacet
 facet normal -0.10105707 -0.47771624 0.87268245
  outer loop
   vertex -4.1340184 -0.2786656 1.1932616
   vertex -4.1340637 0.009541392 1.3510242
   vertex -14.370454 0.36278418 0.35901412
  endloop
 endfacet
 facet normal 0.46250013 0.6213042 -0.6325146
  outer loop
   vertex 2.0256355 2.0203958 -1.6497347
   vertex -1.8839656 3.088466 -3.4593287
   vertex -1.8834966 4.1358395 -2.4301753
  endloop
 endfacet
 facet normal 0.47347483 0.65956485 -0.5837772
  outer loop
   vertex 2.0259228 2.560834 -1.0389023
   vertex 2.0256355 2.0203958 -1.6497347
   vertex -1.8834966 4.1358395 -2.4301753
  endloop
 endfacet
 facet normal -0.10087898 -0.8993459 0.42544144
  outer loop
   vertex -4.133843 -0.64416397 0.6576785
   vertex -4.1339283 -0.5038111 0.95435184
   vertex -14.370454 0.36278418 0.35901412
  endloop
 endfacet
 facet normal 0.46257392 0.87439513 -0.14648707
  outer loop
   vertex 2.0261202 2.8861141 -0.29099292
   vertex -1.8831562 4.814023 -1.1277574
   vertex -1.8829935 5.0565658 0.3205173
  endloop
 endfacet
 facet normal 0.47353753 0.8767022 -0.084589966
  outer loop
   vertex 2.026199 2.9644008 0.5208225
   vertex 2.0261202 2.8861141 -0.29099292
   vertex -1.8829935 5.0565658 0.3205173
  endloop
 endfacet
 facet normal -0.10067151 -0.97781366 -0.18370031
  outer loop
   vertex -4.1337366 -0.62553966 0.009807944
   vertex -4.1337805 -0.68611 0.33224037
   vertex -14.370454 0.36278418 0.35901412
  endloop
 endfacet
 facet normal 0.46255302 0.7934732 0.39553142
  outer loop
   vertex 2.0261223 2.7880287 1.3171238
   vertex -1.8830929 4.8397565 1.7727851
   vertex -1.8833828 4.184834 3.08696
  endloop
 endfacet
 facet normal 0.47348845 0.7590159 0.446882
  outer loop
   vertex 2.025996 2.3742914 2.0199783
   vertex 2.0261223 2.7880287 1.3171238
   vertex -1.8833828 4.184834 3.08696
  endloop
 endfacet
 facet normal -0.10051132 -0.68380326 -0.7227106
  outer loop
   vertex -4.1337166 -0.2300439 -0.503752
   vertex -4.1337104 -0.46838218 -0.27824557
   vertex -14.370454 0.36278418 0.35901412
  endloop
 endfacet
 facet normal 0.46249858 0.40976837 0.7862474
  outer loop
   vertex 2.025706 1.7636521 2.5605721
   vertex -1.8836623 3.155972 4.1345663
   vertex -1.8838832 1.8537799 4.8133593
  endloop
 endfacet
 facet normal 0.47351435 0.35127947 0.8077047
  outer loop
   vertex 2.0252597 1.0158277 2.8860707
   vertex 2.025706 1.7636521 2.5605721
   vertex -1.8838832 1.8537799 4.8133593
  endloop
 endfacet
 facet normal -0.10046798 -0.12899324 -0.986543
  outer loop
   vertex -4.1338234 0.3918826 -0.6872728
   vertex -4.1337585 0.06635071 -0.6447152
   vertex -14.370454 0.36278418 0.35901412
  endloop
 endfacet
 facet normal 0.46237007 -0.13102688 0.87695265
  outer loop
   vertex 2.0248733 0.2039858 2.9646187
   vertex -1.8847284 0.4056973 5.05608
   vertex -1.8854665 -1.0465043 4.8394933
  endloop
 endfacet
 facet normal 0.4732702 -0.1903808 0.86009914
  outer loop
   vertex 2.024577 -0.5923928 2.7885053
   vertex 2.0248733 0.2039858 2.9646187
   vertex -1.8854665 -1.0465043 4.8394933
  endloop
 endfacet
 facet normal -0.100547165 0.47526747 -0.8740773
  outer loop
   vertex -4.1339765 1.0034747 -0.4701451
   vertex -4.133891 0.714815 -0.62710965
   vertex -14.370454 0.36278418 0.35901412
  endloop
 endfacet
 facet normal 0.46226957 -0.6212319 0.63275415
  outer loop
   vertex 2.02416 -1.2953188 2.3749573
   vertex -1.8857732 -2.361045 4.1851077
   vertex -1.886261 -3.4089375 3.1566532
  endloop
 endfacet
 facet normal 0.4732392 -0.6595732 0.5839588
  outer loop
   vertex 2.0237768 -1.8361093 1.7644527
   vertex 2.02416 -1.2953188 2.3749573
   vertex -1.886261 -3.4089375 3.1566532
  endloop
 endfacet
 facet normal -0.100728 0.8984168 -0.42743558
  outer loop
   vertex -4.1341476 1.3707201 0.06531842
   vertex -4.134067 1.2294743 -0.23158188
   vertex -14.370454 0.36278418 0.35901412
  endloop
 endfacet
 facet normal 0.46216184 -0.8745445 0.1468958
  outer loop
   vertex 2.0236247 -2.1618621 1.0167266
   vertex -1.886765 -4.0875936 1.8547027
   vertex -1.8869567 -4.3308997 0.4067821
  endloop
 endfacet
 facet normal 0.47310877 -0.8768892 0.085049175
  outer loop
   vertex 2.023564 -2.2406278 0.20496
   vertex 2.0236247 -2.1618621 1.0167266
   vertex -1.8869567 -4.3308997 0.4067821
  endloop
 endfacet
 facet normal -0.10093647 0.9779528 0.18281181
  outer loop
   vertex -4.13426 1.352801 0.7146558
   vertex -4.1342134 1.4132357 0.39138585
   vertex -14.370454 0.36278418 0.35901412
  endloop
 endfacet
 facet normal 0.462156 -0.7940155 -0.3949066
  outer loop
   vertex 2.0236025 -2.0647347 -0.59144574
   vertex -1.88695 -4.115055 -1.0454748
   vertex -1.8867083 -3.4610968 -2.3600676
  endloop
 endfacet
 facet normal 0.47312772 -0.759529 -0.44639215
  outer loop
   vertex 2.0237932 -1.651372 -1.2945735
   vertex 2.0236025 -2.0647347 -0.59144574
   vertex -1.8867083 -3.4610968 -2.3600676
  endloop
 endfacet
 facet normal -0.10109399 0.6832965 0.72310853
  outer loop
   vertex -4.134269 0.9563414 1.2292033
   vertex -4.1342783 1.1953316 1.0033699
   vertex -14.370454 0.36278418 0.35901412
  endloop
 endfacet
 facet normal 0.46224827 -0.41038325 -0.7860739
  outer loop
   vertex 2.0240784 -1.0410433 -1.8355443
   vertex -1.8862724 -2.4330034 -3.4083173
   vertex -1.8857825 -1.1313304 -4.0875897
  endloop
 endfacet
 facet normal 0.47322103 -0.35224792 -0.8074549
  outer loop
   vertex 2.024434 -0.29342216 -2.1614816
   vertex 2.0240784 -1.0410433 -1.8355443
   vertex -1.8857825 -1.1313304 -4.0875897
  endloop
 endfacet
 facet normal -0.10113753 0.12714021 0.986715
  outer loop
   vertex -4.1341395 0.33309668 1.4120538
   vertex -4.1342335 0.6593256 1.370009
   vertex -14.370454 0.36278418 0.35901412
  endloop
 endfacet
 facet normal 0.46228516 -0.14730108 -0.8744111
  outer loop
   vertex 2.024434 -0.29342216 -2.1614816
   vertex -1.8857825 -1.1313304 -4.0875897
   vertex -1.8851048 0.31800187 -4.3313823
  endloop
 endfacet
 facet normal 0.47329798 -0.08524731 -0.8767678
  outer loop
   vertex 2.0248325 0.5194919 -2.2403054
   vertex 2.024434 -0.29342216 -2.1614816
   vertex -1.8851048 0.31800187 -4.3313823
  endloop
 endfacet
 facet normal -0.10113446 0.42616314 0.8989755
  outer loop
   vertex -4.1342335 0.6593256 1.370009
   vertex -4.134269 0.9563414 1.2292033
   vertex -14.370454 0.36278418 0.35901412
  endloop
 endfacet
 facet normal 0.46219447 -0.6332006 -0.62083274
  outer loop
   vertex 2.0237932 -1.651372 -1.2945735
   vertex -1.8867083 -3.4610968 -2.3600676
   vertex -1.8862724 -2.4330034 -3.4083173
  endloop
 endfacet
 facet normal 0.47317454 -0.5844755 -0.65916175
  outer loop
   vertex 2.0240784 -1.0410433 -1.8355443
   vertex 2.0237932 -1.651372 -1.2945735
   vertex -1.8862724 -2.4330034 -3.4083173
  endloop
 endfacet
 facet normal -0.10102572 0.8734208 0.47637162
  outer loop
   vertex -4.1342783 1.1953316 1.0033699
   vertex -4.13426 1.352801 0.7146558
   vertex -14.370454 0.36278418 0.35901412
  endloop
 endfacet
 facet normal 0.4621417 -0.877171 -0.1303692
  outer loop
   vertex 2.023564 -2.2406278 0.20496
   vertex -1.8869567 -4.3308997 0.4067821
   vertex -1.88695 -4.115055 -1.0454748
  endloop
 endfacet
 facet normal 0.47310525 -0.8602791 -0.18997726
  outer loop
   vertex 2.0236025 -2.0647347 -0.59144574
   vertex 2.023564 -2.2406278 0.20496
   vertex -1.88695 -4.115055 -1.0454748
  endloop
 endfacet
 facet normal -0.10083369 0.98654974 -0.12865531
  outer loop
   vertex -4.1342134 1.4132357 0.39138585
   vertex -4.1341476 1.3707201 0.06531842
   vertex -14.370454 0.36278418 0.35901412
  endloop
 endfacet
 facet normal 0.46223247 -0.7864143 0.40974823
  outer loop
   vertex 2.0237768 -1.8361093 1.7644527
   vertex -1.886261 -3.4089375 3.1566532
   vertex -1.886765 -4.0875936 1.8547027
  endloop
 endfacet
 facet normal 0.47314927 -0.8076989 0.35178426
  outer loop
   vertex 2.0236247 -2.1618621 1.0167266
   vertex 2.0237768 -1.8361093 1.7644527
   vertex -1.886765 -4.0875936 1.8547027
  endloop
 endfacet
 facet normal -0.10063099 0.7222601 -0.6842614
  outer loop
   vertex -4.134067 1.2294743 -0.23158188
   vertex -4.1339765 1.0034747 -0.4701451
   vertex -14.370454 0.36278418 0.35901412
  endloop
 endfacet
 facet normal 0.46227387 -0.39525312 0.7937744
  outer loop
   vertex 2.024577 -0.5923928 2.7885053
   vertex -1.8854665 -1.0465043 4.8394933
   vertex -1.8857732 -2.361045 4.1851077
  endloop
 endfacet
 facet normal 0.47326592 -0.4469024 0.75914276
  outer loop
   vertex 2.02416 -1.2953188 2.3749573
   vertex 2.024577 -0.5923928 2.7885053
   vertex -1.8857732 -2.361045 4.1851077
  endloop
 endfacet
 facet normal -0.10049087 0.18220374 -0.97811216
  outer loop
   vertex -4.133891 0.714815 -0.62710965
   vertex -4.1338234 0.3918826 -0.6872728
   vertex -14.370454 0.36278418 0.35901412
  endloop
 endfacet
 facet normal 0.4624926 0.14630423 0.8744688
  outer loop
   vertex 2.0252597 1.0158277 2.8860707
   vertex -1.8838832 1.8537799 4.8133593
   vertex -1.8847284 0.4056973 5.05608
  endloop
 endfacet
 facet normal 0.47340024 0.08460504 0.8767749
  outer loop
   vertex 2.0248733 0.2039858 2.9646187
   vertex 2.0252597 1.0158277 2.8860707
   vertex -1.8847284 0.4056973 5.05608
  endloop
 endfacet
 facet normal -0.1004739 -0.4273319 -0.89849454
  outer loop
   vertex -4.1337585 0.06635071 -0.6447152
   vertex -4.1337166 -0.2300439 -0.503752
   vertex -14.370454 0.36278418 0.35901412
  endloop
 endfacet
 facet normal 0.4625043 0.6325047 0.6213111
  outer loop
   vertex 2.025996 2.3742914 2.0199783
   vertex -1.8833828 4.184834 3.08696
   vertex -1.8836623 3.155972 4.1345663
  endloop
 endfacet
 facet normal 0.47346854 0.5837263 0.6596144
  outer loop
   vertex 2.025706 1.7636521 2.5605721
   vertex 2.025996 2.3742914 2.0199783
   vertex -1.8836623 3.155972 4.1345663
  endloop
 endfacet
 facet normal -0.10057889 -0.87339234 -0.47651833
  outer loop
   vertex -4.1337104 -0.46838218 -0.27824557
   vertex -4.1337366 -0.62553966 0.009807944
   vertex -14.370454 0.36278418 0.35901412
  endloop
 endfacet
 facet normal 0.4625768 0.87685686 0.13093771
  outer loop
   vertex 2.026199 2.9644008 0.5208225
   vertex -1.8829935 5.0565658 0.3205173
   vertex -1.8830929 4.8397565 1.7727851
  endloop
 endfacet
 facet normal 0.4735329 0.8599259 0.1905099
  outer loop
   vertex 2.0261223 2.7880287 1.3171238
   vertex 2.026199 2.9644008 0.5208225
   vertex -1.8830929 4.8397565 1.7727851
  endloop
 endfacet
 facet normal -0.100774035 -0.98674923 0.12716378
  outer loop
   vertex -4.1337805 -0.68611 0.33224037
   vertex -4.133843 -0.64416397 0.6576785
   vertex -14.370454 0.36278418 0.35901412
  endloop
 endfacet
 facet normal 0.46254584 0.7863237 -0.40956846
  outer loop
   vertex 2.0259228 2.560834 -1.0389023
   vertex -1.8834966 4.1358395 -2.4301753
   vertex -1.8831562 4.814023 -1.1277574
  endloop
 endfacet
 facet normal 0.47351843 0.80765444 -0.35138947
  outer loop
   vertex 2.0261202 2.8861141 -0.29099292
   vertex 2.0259228 2.560834 -1.0389023
   vertex -1.8831562 4.814023 -1.1277574
  endloop
 endfacet
 facet normal -0.10097849 -0.7240592 0.68230605
  outer loop
   vertex -4.1339283 -0.5038111 0.95435184
   vertex -4.1340184 -0.2786656 1.1932616
   vertex -14.370454 0.36278418 0.35901412
  endloop
 endfacet
 facet normal 0.46242827 0.395226 -0.793698
  outer loop
   vertex 2.0252495 1.317083 -2.0637918
   vertex -1.8845074 1.7727674 -4.1148033
   vertex -1.8839656 3.088466 -3.4593287
  endloop
 endfacet
 facet normal 0.473421 0.44668427 -0.75917435
  outer loop
   vertex 2.0256355 2.0203958 -1.6497347
   vertex 2.0252495 1.317083 -2.0637918
   vertex -1.8839656 3.088466 -3.4593287
  endloop
 endfacet
 facet normal -0.10110674 -0.18442667 0.9776319
  outer loop
   vertex -4.1340637 0.009541392 1.3510242
   vertex -4.1341395 0.33309668 1.4120538
   vertex -14.370454 0.36278418 0.35901412
  endloop
 endfacet
endsolid