solid shape
 facet normal -1.0 0.0 0.0
  outer loop
   vertex 0.21082099 0.14637598 0.148262
   vertex 0.21082099 0.14637598 0.579201
   vertex 0.21082099 0.574553 0.579201
  endloop
 endfacet
 facet normal -1.0 0.0 0.0
  outer loop
   vertex 0.21082099 0.574553 0.148262
   vertex 0.21082099 0.14637598 0.148262
   vertex 0.21082099 0.574553 0.579201
  endloop
 endfacet
 facet normal -0.71873784 0.1095596 -0.686595
  outer loop
   vertex 0.21003474 0.36207932 0.7150796
   vertex 0.22501038 0.36200973 0.6993918
   vertex 0.22499397 0.25744143 0.68272305
  endloop
 endfacet
 facet normal -0.71920145 0.10935332 -0.6861422
  outer loop
   vertex 0.21001682 0.25264096 0.69765675
   vertex 0.21003474 0.36207932 0.7150796
   vertex 0.22499397 0.25744143 0.68272305
  endloop
 endfacet
 facet normal 0.9999204 -0.005856093 0.011171221
  outer loop
   vertex 0.010056997 0.36248142 0.36284974
   vertex 0.005684765 0.25348112 0.69706285
   vertex 0.0056684846 0.15533508 0.6470707
  endloop
 endfacet
 facet normal -0.98230106 0.08526954 -0.16677478
  outer loop
   vertex 0.22499397 0.25744143 0.68272305
   vertex 0.24519481 0.29077378 0.5807828
   vertex 0.24519466 0.22671863 0.5480332
  endloop
 endfacet
 facet normal -0.9822737 0.08549287 -0.16682163
  outer loop
   vertex 0.22497754 0.16352347 0.6346887
   vertex 0.22499397 0.25744143 0.68272305
   vertex 0.24519466 0.22671863 0.5480332
  endloop
 endfacet
 facet normal -0.71865684 0.49248737 -0.4909058
  outer loop
   vertex 0.20999993 0.15434456 0.6474065
   vertex 0.22497754 0.16352347 0.6346887
   vertex 0.22496295 0.089040235 0.5599868
  endloop
 endfacet
 facet normal -0.7191427 0.4920333 -0.49064973
  outer loop
   vertex 0.2099858 0.07638107 0.5692439
   vertex 0.20999993 0.15434456 0.6474065
   vertex 0.22496295 0.089040235 0.5599868
  endloop
 endfacet
 facet normal 0.9999198 -0.011329815 0.0056793382
  outer loop
   vertex 0.010056997 0.36248142 0.36284974
   vertex 0.005655157 0.07743291 0.5692013
   vertex 0.005645618 0.027402326 0.47107387
  endloop
 endfacet
 facet normal -0.98224807 0.1672498 -0.0849479
  outer loop
   vertex 0.22496295 0.089040235 0.5599868
   vertex 0.24519451 0.17591625 0.49709636
   vertex 0.2451944 0.1433373 0.43295443
  endloop
 endfacet
 facet normal -0.98222965 0.16739057 -0.08488479
  outer loop
   vertex 0.22495227 0.0412812 0.4659309
   vertex 0.22496295 0.089040235 0.5599868
   vertex 0.2451944 0.1433373 0.43295443
  endloop
 endfacet
 facet normal -0.7186348 0.6869761 -0.107832864
  outer loop
   vertex 0.20997542 0.026380721 0.47081447
   vertex 0.22495227 0.0412812 0.4659309
   vertex 0.22494839 0.024918152 0.36171186
  endloop
 endfacet
 facet normal -0.7190426 0.6865412 -0.10788302
  outer loop
   vertex 0.20996968 0.009237048 0.36175454
   vertex 0.20997542 0.026380721 0.47081447
   vertex 0.22494839 0.024918152 0.36171186
  endloop
 endfacet
 facet normal 0.9999195 -0.01253236 -0.0019811855
  outer loop
   vertex 0.010056997 0.36248142 0.36284974
   vertex 0.0056398264 0.01013699 0.3622905
   vertex 0.005639681 0.027325826 0.25348586
  endloop
 endfacet
 facet normal -0.98222387 0.18536885 0.029574225
  outer loop
   vertex 0.22494839 0.024918152 0.36171186
   vertex 0.24519436 0.13216917 0.36188343
   vertex 0.24519435 0.14350368 0.29083914
  endloop
 endfacet
 facet normal -0.98221767 0.18539482 0.029619442
  outer loop
   vertex 0.2249474 0.041554768 0.2575464
   vertex 0.22494839 0.024918152 0.36171186
   vertex 0.24519435 0.14350368 0.29083914
  endloop
 endfacet
 facet normal -0.7186354 0.6192244 0.3164241
  outer loop
   vertex 0.20996949 0.026627442 0.2527418
   vertex 0.2249474 0.041554768 0.2575464
   vertex 0.22495216 0.08955996 0.16361372
  endloop
 endfacet
 facet normal -0.71907777 0.6188749 0.31610286
  outer loop
   vertex 0.20997395 0.076849 0.15442681
   vertex 0.20996949 0.026627442 0.2527418
   vertex 0.22495216 0.08955996 0.16361372
  endloop
 endfacet
 facet normal 0.99992 -0.009007479 -0.008878353
  outer loop
   vertex 0.010056997 0.36248142 0.36284974
   vertex 0.005645348 0.07728855 0.15533075
   vertex 0.0056547094 0.15513696 0.07740444
  endloop
 endfacet
 facet normal -0.9822284 0.13257599 0.13285702
  outer loop
   vertex 0.22495216 0.08955996 0.16361372
   vertex 0.24519439 0.17623398 0.22677635
   vertex 0.24519451 0.2271547 0.17596422
  endloop
 endfacet
 facet normal -0.98224086 0.13258706 0.13275406
  outer loop
   vertex 0.22496264 0.16423939 0.08910573
   vertex 0.22495216 0.08955996 0.16361372
   vertex 0.24519451 0.2271547 0.17596422
  endloop
 endfacet
 facet normal -0.7188156 0.31505913 0.6197111
  outer loop
   vertex 0.20998544 0.15498805 0.07643672
   vertex 0.22496264 0.16423939 0.08910573
   vertex 0.22497746 0.25828445 0.04131073
  endloop
 endfacet
 facet normal -0.7190187 0.31501588 0.6194974
  outer loop
   vertex 0.20999917 0.2533997 0.02641011
   vertex 0.20998544 0.15498805 0.07643672
   vertex 0.22497746 0.25828445 0.04131073
  endloop
 endfacet
 facet normal 0.999921 -0.0021184238 -0.01239158
  outer loop
   vertex 0.010056997 0.36248142 0.36284974
   vertex 0.005667748 0.25325075 0.027339227
   vertex 0.0056838426 0.3620318 0.0100411065
  endloop
 endfacet
 facet normal -0.9822741 0.029160008 0.1851685
  outer loop
   vertex 0.22497746 0.25828445 0.04131073
   vertex 0.24519466 0.29128608 0.14336102
   vertex 0.24519482 0.36235127 0.13217066
  endloop
 endfacet
 facet normal -0.98229265 0.02926388 0.18505368
  outer loop
   vertex 0.2249941 0.36249396 0.024919597
   vertex 0.22497746 0.25828445 0.04131073
   vertex 0.24519482 0.36235127 0.13217066
  endloop
 endfacet
 facet normal -0.71873033 -0.10934028 0.6866377
  outer loop
   vertex 0.21001661 0.36245412 0.009235738
   vertex 0.2249941 0.36249396 0.024919597
   vertex 0.22501023 0.46667042 0.04152556
  endloop
 endfacet
 facet normal -0.71932507 -0.109074734 0.68605685
  outer loop
   vertex 0.21003416 0.47147903 0.026587784
   vertex 0.21001661 0.36245412 0.009235738
   vertex 0.22501023 0.46667042 0.04152556
  endloop
 endfacet
 facet normal 0.99992216 0.005536232 -0.011186566
  outer loop
   vertex 0.010056997 0.36248142 0.36284974
   vertex 0.0057020844 0.4708328 0.02720471
   vertex 0.005717148 0.56901205 0.07714012
  endloop
 endfacet
 facet normal -0.9823266 -0.08512114 0.16670007
  outer loop
   vertex 0.22501023 0.46667042 0.04152556
   vertex 0.24519497 0.43339863 0.14348038
   vertex 0.24519517 0.4974727 0.1761993
  endloop
 endfacet
 facet normal -0.98235 -0.08492957 0.16665977
  outer loop
   vertex 0.22502664 0.5606189 0.08949825
   vertex 0.22501023 0.46667042 0.04152556
   vertex 0.24519517 0.4974727 0.1761993
  endloop
 endfacet
 facet normal -0.7189335 -0.4918519 0.49113777
  outer loop
   vertex 0.21005064 0.5698075 0.07677822
   vertex 0.22502664 0.5606189 0.08949825
   vertex 0.2250414 0.6351485 0.16415788
  endloop
 endfacet
 facet normal -0.7192691 -0.491538 0.4909606
  outer loop
   vertex 0.21006584 0.6478183 0.15490302
   vertex 0.21005064 0.5698075 0.07677822
   vertex 0.2250414 0.6351485 0.16415788
  endloop
 endfacet
 facet normal 0.99992293 0.0110155465 -0.0057321913
  outer loop
   vertex 0.010056997 0.36248142 0.36284974
   vertex 0.005731306 0.64695835 0.15495566
   vertex 0.005741895 0.697047 0.25305814
  endloop
 endfacet
 facet normal -0.98238146 -0.16657396 0.084734306
  outer loop
   vertex 0.2250414 0.6351485 0.16415788
   vertex 0.2451953 0.5483078 0.22710055
   vertex 0.2451954 0.5809255 0.291223
  endloop
 endfacet
 facet normal -0.9823911 -0.16650017 0.084767334
  outer loop
   vertex 0.22505106 0.682965 0.25819096
   vertex 0.2250414 0.6351485 0.16415788
   vertex 0.2451954 0.5809255 0.291223
  endloop
 endfacet
 facet normal -0.71898615 -0.68654317 0.10824727
  outer loop
   vertex 0.21007587 0.69787675 0.2533005
   vertex 0.22505106 0.682965 0.25819096
   vertex 0.22505677 0.6993899 0.36240146
  endloop
 endfacet
 facet normal -0.7194759 -0.68602043 0.10830729
  outer loop
   vertex 0.21008147 0.715086 0.3623413
   vertex 0.21007587 0.69787675 0.2533005
   vertex 0.22505677 0.6993899 0.36240146
  endloop
 endfacet
 facet normal 0.999923 0.012253299 0.0019276217
  outer loop
   vertex 0.010056997 0.36248142 0.36284974
   vertex 0.005746754 0.71437657 0.36183003
   vertex 0.005746839 0.6972515 0.47064462
  endloop
 endfacet
 facet normal -0.98240757 -0.1844345 -0.029313136
  outer loop
   vertex 0.22505677 0.6993899 0.36240146
   vertex 0.24519546 0.5921377 0.3622853
   vertex 0.24519545 0.58084446 0.43334132
  endloop
 endfacet
 facet normal -0.9824029 -0.18445393 -0.029346954
  outer loop
   vertex 0.22505678 0.6828151 0.46657827
   vertex 0.22505677 0.6993899 0.36240146
   vertex 0.24519545 0.58084446 0.43334132
  endloop
 endfacet
 facet normal -0.71900094 -0.6190423 -0.3159499
  outer loop
   vertex 0.21008149 0.6977607 0.4713742
   vertex 0.22505678 0.6828151 0.46657827
   vertex 0.22505097 0.634864 0.56054235
  endloop
 endfacet
 facet normal -0.71946 -0.61867887 -0.3156165
  outer loop
   vertex 0.21007594 0.6475972 0.56971854
   vertex 0.21008149 0.6977607 0.4713742
   vertex 0.22505097 0.634864 0.56054235
  endloop
 endfacet
 facet normal 0.9999226 0.008749276 0.008850408
  outer loop
   vertex 0.010056997 0.36248142 0.36284974
   vertex 0.0057412535 0.6473481 0.56883246
   vertex 0.0057318923 0.56954646 0.6468027
  endloop
 endfacet
 facet normal -0.9823968 -0.13203076 -0.13215305
  outer loop
   vertex 0.22505097 0.634864 0.56054235
   vertex 0.24519539 0.54815143 0.49742547
   vertex 0.2451953 0.49725828 0.5482722
  endloop
 endfacet
 facet normal -0.98237985 -0.13201572 -0.13229394
  outer loop
   vertex 0.22504136 0.5602274 0.63509333
   vertex 0.22505097 0.634864 0.56054235
   vertex 0.2451953 0.49725828 0.5482722
  endloop
 endfacet
 facet normal -0.7188905 -0.31516826 -0.61956877
  outer loop
   vertex 0.21006575 0.5695025 0.6477515
   vertex 0.22504136 0.5602274 0.63509333
   vertex 0.22502685 0.46620888 0.68293643
  endloop
 endfacet
 facet normal -0.71937346 -0.3150651 -0.6190604
  outer loop
   vertex 0.21005063 0.4711205 0.6978397
   vertex 0.21006575 0.5695025 0.6477515
   vertex 0.22502685 0.46620888 0.68293643
  endloop
 endfacet
 facet normal 0.99992156 0.0018224235 0.012390514
  outer loop
   vertex 0.010056997 0.36248142 0.36284974
   vertex 0.0057187187 0.47146264 0.69692206
   vertex 0.0057018017 0.36269772 0.71428466
  endloop
 endfacet
 facet normal -0.9823566 -0.029196307 -0.18472429
  outer loop
   vertex 0.22502685 0.46620888 0.68293643
   vertex 0.24519515 0.4331456 0.58090794
   vertex 0.24519499 0.36208493 0.5921402
  endloop
 endfacet
 facet normal -0.9823293 -0.029043542 -0.18489346
  outer loop
   vertex 0.22501038 0.36200973 0.6993918
   vertex 0.22502685 0.46620888 0.68293643
   vertex 0.24519499 0.36208493 0.5921402
  endloop
 endfacet
 facet normal -0.7188522 -0.10832694 -0.6866709
  outer loop
   vertex 0.21005063 0.4711205 0.6978397
   vertex 0.22502685 0.46620888 0.68293643
   vertex 0.22501038 0.36200973 0.6993918
  endloop
 endfacet
 facet normal -0.719314 -0.10838325 -0.6861782
  outer loop
   vertex 0.21003474 0.36207932 0.7150796
   vertex 0.21005063 0.4711205 0.6978397
   vertex 0.22501038 0.36200973 0.6993918
  endloop
 endfacet
 facet normal -0.9823809 -0.084779605 -0.16655332
  outer loop
   vertex 0.22504136 0.5602274 0.63509333
   vertex 0.2451953 0.49725828 0.5482722
   vertex 0.24519515 0.4331456 0.58090794
  endloop
 endfacet
 facet normal -0.9823566 -0.084696606 -0.16673893
  outer loop
   vertex 0.22502685 0.46620888 0.68293643
   vertex 0.22504136 0.5602274 0.63509333
   vertex 0.24519515 0.4331456 0.58090794
  endloop
 endfacet
 facet normal 0.99992216 0.0055720303 0.011167323
  outer loop
   vertex 0.010056997 0.36248142 0.36284974
   vertex 0.0057318923 0.56954646 0.6468027
   vertex 0.0057187187 0.47146264 0.69692206
  endloop
 endfacet
 facet normal -0.71897054 -0.49113944 -0.491796
  outer loop
   vertex 0.21007594 0.6475972 0.56971854
   vertex 0.22505097 0.634864 0.56054235
   vertex 0.22504136 0.5602274 0.63509333
  endloop
 endfacet
 facet normal -0.71939874 -0.4909132 -0.49139565
  outer loop
   vertex 0.21006575 0.5695025 0.6477515
   vertex 0.21007594 0.6475972 0.56971854
   vertex 0.22504136 0.5602274 0.63509333
  endloop
 endfacet
 facet normal -0.98240644 -0.16635731 -0.08486941
  outer loop
   vertex 0.22505678 0.6828151 0.46657827
   vertex 0.24519545 0.58084446 0.43334132
   vertex 0.24519539 0.54815143 0.49742547
  endloop
 endfacet
 facet normal -0.9823947 -0.16637754 -0.08496541
  outer loop
   vertex 0.22505097 0.634864 0.56054235
   vertex 0.22505678 0.6828151 0.46657827
   vertex 0.24519539 0.54815143 0.49742547
  endloop
 endfacet
 facet normal 0.9999229 0.011047684 0.005671803
  outer loop
   vertex 0.010056997 0.36248142 0.36284974
   vertex 0.005746839 0.6972515 0.47064462
   vertex 0.0057412535 0.6473481 0.56883246
  endloop
 endfacet
 facet normal -0.71898854 -0.68638873 -0.109206125
  outer loop
   vertex 0.21008147 0.715086 0.3623413
   vertex 0.22505677 0.6993899 0.36240146
   vertex 0.22505678 0.6828151 0.46657827
  endloop
 endfacet
 facet normal -0.71946734 -0.6859207 -0.108992405
  outer loop
   vertex 0.21008149 0.6977607 0.4713742
   vertex 0.21008147 0.715086 0.3623413
   vertex 0.22505678 0.6828151 0.46657827
  endloop
 endfacet
 facet normal -0.9823979 -0.18451755 0.029113894
  outer loop
   vertex 0.22505106 0.682965 0.25819096
   vertex 0.2451954 0.5809255 0.291223
   vertex 0.24519546 0.5921377 0.3622853
  endloop
 endfacet
 facet normal -0.9824013 -0.18449663 0.029132808
  outer loop
   vertex 0.22505677 0.6993899 0.36240146
   vertex 0.22505106 0.682965 0.25819096
   vertex 0.24519546 0.5921377 0.3622853
  endloop
 endfacet
 facet normal 0.99992305 0.012241933 -0.001995054
  outer loop
   vertex 0.010056997 0.36248142 0.36284974
   vertex 0.005741895 0.697047 0.25305814
   vertex 0.005746754 0.71437657 0.36183003
  endloop
 endfacet
 facet normal -0.7189154 -0.61956173 0.31512517
  outer loop
   vertex 0.21006584 0.6478183 0.15490302
   vertex 0.2250414 0.6351485 0.16415788
   vertex 0.22505106 0.682965 0.25819096
  endloop
 endfacet
 facet normal -0.7193562 -0.61909777 0.3150312
  outer loop
   vertex 0.21007587 0.69787675 0.2533005
   vertex 0.21006584 0.6478183 0.15490302
   vertex 0.22505106 0.682965 0.25819096
  endloop
 endfacet
 facet normal -0.9823589 -0.13231759 0.13214815
  outer loop
   vertex 0.22502664 0.5606189 0.08949825
   vertex 0.24519517 0.4974727 0.1761993
   vertex 0.2451953 0.5483078 0.22710055
  endloop
 endfacet
 facet normal -0.9823734 -0.13219692 0.13216107
  outer loop
   vertex 0.2250414 0.6351485 0.16415788
   vertex 0.22502664 0.5606189 0.08949825
   vertex 0.2451953 0.5483078 0.22710055
  endloop
 endfacet
 facet normal 0.9999226 0.00870176 -0.008898309
  outer loop
   vertex 0.010056997 0.36248142 0.36284974
   vertex 0.005717148 0.56901205 0.07714012
   vertex 0.005731306 0.64695835 0.15495566
  endloop
 endfacet
 facet normal -0.71895355 -0.31599182 0.6190759
  outer loop
   vertex 0.21003416 0.47147903 0.026587784
   vertex 0.22501023 0.46667042 0.04152556
   vertex 0.22502664 0.5606189 0.08949825
  endloop
 endfacet
 facet normal -0.71930546 -0.31573611 0.6187975
  outer loop
   vertex 0.21005064 0.5698075 0.07677822
   vertex 0.21003416 0.47147903 0.026587784
   vertex 0.22502664 0.5606189 0.08949825
  endloop
 endfacet
 facet normal -0.9823016 -0.029443623 0.18497726
  outer loop
   vertex 0.2249941 0.36249396 0.024919597
   vertex 0.24519482 0.36235127 0.13217066
   vertex 0.24519497 0.43339863 0.14348038
  endloop
 endfacet
 facet normal -0.98231834 -0.02932253 0.18490766
  outer loop
   vertex 0.22501023 0.46667042 0.04152556
   vertex 0.2249941 0.36249396 0.024919597
   vertex 0.24519497 0.43339863 0.14348038
  endloop
 endfacet
 facet normal 0.99992156 0.0017879372 -0.012396565
  outer loop
   vertex 0.010056997 0.36248142 0.36284974
   vertex 0.0056838426 0.3620318 0.0100411065
   vertex 0.0057020844 0.4708328 0.02720471
  endloop
 endfacet
 facet normal -0.7186354 0.10816104 0.68692374
  outer loop
   vertex 0.20999917 0.2533997 0.02641011
   vertex 0.22497746 0.25828445 0.04131073
   vertex 0.2249941 0.36249396 0.024919597
  endloop
 endfacet
 facet normal -0.7190953 0.10821755 0.68643355
  outer loop
   vertex 0.21001661 0.36245412 0.009235738
   vertex 0.20999917 0.2533997 0.02641011
   vertex 0.2249941 0.36249396 0.024919597
  endloop
 endfacet
 facet normal -0.9822482 0.085012 0.16721642
  outer loop
   vertex 0.22496264 0.16423939 0.08910573
   vertex 0.24519451 0.2271547 0.17596422
   vertex 0.24519466 0.29128608 0.14336102
  endloop
 endfacet
 facet normal -0.9822655 0.08507036 0.16708615
  outer loop
   vertex 0.22497746 0.25828445 0.04131073
   vertex 0.22496264 0.16423939 0.08910573
   vertex 0.24519466 0.29128608 0.14336102
  endloop
 endfacet
 facet normal 0.9999204 -0.005838075 -0.011180581
  outer loop
   vertex 0.010056997 0.36248142 0.36284974
   vertex 0.0056547094 0.15513696 0.07740444
   vertex 0.005667748 0.25325075 0.027339227
  endloop
 endfacet
 facet normal -0.71869254 0.49115637 0.49218544
  outer loop
   vertex 0.20997395 0.076849 0.15442681
   vertex 0.22495216 0.08955996 0.16361372
   vertex 0.22496264 0.16423939 0.08910573
  endloop
 endfacet
 facet normal -0.7191769 0.49090093 0.4917326
  outer loop
   vertex 0.20998544 0.15498805 0.07643672
   vertex 0.20997395 0.076849 0.15442681
   vertex 0.22496264 0.16423939 0.08910573
  endloop
 endfacet
 facet normal -0.9822205 0.1671759 0.085411094
  outer loop
   vertex 0.2249474 0.041554768 0.2575464
   vertex 0.24519435 0.14350368 0.29083914
   vertex 0.24519439 0.17623398 0.22677635
  endloop
 endfacet
 facet normal -0.98222387 0.16717024 0.085384086
  outer loop
   vertex 0.22495216 0.08955996 0.16361372
   vertex 0.2249474 0.041554768 0.2575464
   vertex 0.24519439 0.17623398 0.22677635
  endloop
 endfacet
 facet normal 0.9999197 -0.011317825 -0.005703246
  outer loop
   vertex 0.010056997 0.36248142 0.36284974
   vertex 0.005639681 0.027325826 0.25348586
   vertex 0.005645348 0.07728855 0.15533075
  endloop
 endfacet
 facet normal -0.7186044 0.68671477 0.10968443
  outer loop
   vertex 0.20996968 0.009237048 0.36175454
   vertex 0.22494839 0.024918152 0.36171186
   vertex 0.2249474 0.041554768 0.2575464
  endloop
 endfacet
 facet normal -0.71906555 0.6862646 0.1094785
  outer loop
   vertex 0.20996949 0.026627442 0.2527418
   vertex 0.20996968 0.009237048 0.36175454
   vertex 0.2249474 0.041554768 0.2575464
  endloop
 endfacet
 facet normal -0.9822303 0.18540497 -0.029134002
  outer loop
   vertex 0.22495227 0.0412812 0.4659309
   vertex 0.2451944 0.1433373 0.43295443
   vertex 0.24519436 0.13216917 0.36188343
  endloop
 endfacet
 facet normal -0.982221 0.18546215 -0.029082216
  outer loop
   vertex 0.22494839 0.024918152 0.36171186
   vertex 0.22495227 0.0412812 0.4659309
   vertex 0.24519436 0.13216917 0.36188343
  endloop
 endfacet
 facet normal 0.99991953 -0.012538578 0.0019368025
  outer loop
   vertex 0.010056997 0.36248142 0.36284974
   vertex 0.005645618 0.027402326 0.47107387
   vertex 0.0056398264 0.01013699 0.3622905
  endloop
 endfacet
 facet normal -0.718644 0.6200585 -0.31476712
  outer loop
   vertex 0.2099858 0.07638107 0.5692439
   vertex 0.22496295 0.089040235 0.5599868
   vertex 0.22495227 0.0412812 0.4659309
  endloop
 endfacet
 facet normal -0.7190647 0.61961585 -0.31467772
  outer loop
   vertex 0.20997542 0.026380721 0.47081447
   vertex 0.2099858 0.07638107 0.5692439
   vertex 0.22495227 0.0412812 0.4659309
  endloop
 endfacet
 facet normal -0.98227304 0.13272773 -0.13237455
  outer loop
   vertex 0.22497754 0.16352347 0.6346887
   vertex 0.24519466 0.22671863 0.5480332
   vertex 0.24519451 0.17591625 0.49709636
  endloop
 endfacet
 facet normal -0.98224825 0.13293324 -0.13235238
  outer loop
   vertex 0.22496295 0.089040235 0.5599868
   vertex 0.22497754 0.16352347 0.6346887
   vertex 0.24519451 0.17591625 0.49709636
  endloop
 endfacet
 facet normal 0.99992 -0.009027308 0.008859964
  outer loop
   vertex 0.010056997 0.36248142 0.36284974
   vertex 0.0056684846 0.15533508 0.6470707
   vertex 0.005655157 0.07743291 0.5692013
  endloop
 endfacet
 facet normal -0.7187089 0.31670994 -0.6189931
  outer loop
   vertex 0.21001682 0.25264096 0.69765675
   vertex 0.22499397 0.25744143 0.68272305
   vertex 0.22497754 0.16352347 0.6346887
  endloop
 endfacet
 facet normal -0.71917486 0.3163715 -0.61862475
  outer loop
   vertex 0.20999993 0.15434456 0.6474065
   vertex 0.21001682 0.25264096 0.69765675
   vertex 0.22497754 0.16352347 0.6346887
  endloop
 endfacet
 facet normal -0.98232526 0.029443014 -0.18485168
  outer loop
   vertex 0.22501038 0.36200973 0.6993918
   vertex 0.24519499 0.36208493 0.5921402
   vertex 0.24519481 0.29077378 0.5807828
  endloop
 endfacet
 facet normal -0.9822982 0.029638417 -0.18496442
  outer loop
   vertex 0.22499397 0.25744143 0.68272305
   vertex 0.22501038 0.36200973 0.6993918
   vertex 0.24519481 0.29077378 0.5807828
  endloop
 endfacet
 facet normal 0.999921 -0.002110156 0.012392927
  outer loop
   vertex 0.010056997 0.36248142 0.36284974
   vertex 0.0057018017 0.36269772 0.71428466
   vertex 0.005684765 0.25348112 0.69706285
  endloop
 endfacet
 facet normal 0.0043178457 0.15722033 -0.98755413
  outer loop
   vertex 0.0057018017 0.36269772 0.71428466
   vertex 0.21003474 0.36207932 0.7150796
   vertex 0.21001682 0.25264096 0.69765675
  endloop
 endfacet
 facet normal 0.0035114924 0.15575884 -0.9877889
  outer loop
   vertex 0.005684765 0.25348112 0.69706285
   vertex 0.0057018017 0.36269772 0.71428466
   vertex 0.21001682 0.25264096 0.69765675
  endloop
 endfacet
 facet normal -0.7229934 -0.3144928 0.6151218
  outer loop
   vertex 0.24519466 0.22671863 0.5480332
   vertex 0.24519481 0.29077378 0.5807828
   vertex 0.028100997 0.3621644 0.36211786
  endloop
 endfacet
 facet normal 0.0045927432 0.7080002 -0.7061973
  outer loop
   vertex 0.0056684846 0.15533508 0.6470707
   vertex 0.20999993 0.15434456 0.6474065
   vertex 0.2099858 0.07638107 0.5692439
  endloop
 endfacet
 facet normal 0.0037867017 0.7069527 -0.7072507
  outer loop
   vertex 0.005655157 0.07743291 0.5692013
   vertex 0.0056684846 0.15533508 0.6470707
   vertex 0.2099858 0.07638107 0.5692439
  endloop
 endfacet
 facet normal -0.7229766 -0.61597097 0.31286508
  outer loop
   vertex 0.2451944 0.1433373 0.43295443
   vertex 0.24519451 0.17591625 0.49709636
   vertex 0.028100997 0.3621644 0.36211786
  endloop
 endfacet
 facet normal 0.004741939 0.987858 -0.15528658
  outer loop
   vertex 0.005645618 0.027402326 0.47107387
   vertex 0.20997542 0.026380721 0.47081447
   vertex 0.20996968 0.009237048 0.36175454
  endloop
 endfacet
 facet normal 0.003938716 0.9876305 -0.15675002
  outer loop
   vertex 0.0056398264 0.01013699 0.3622905
   vertex 0.005645618 0.027402326 0.47107387
   vertex 0.20996968 0.009237048 0.36175454
  endloop
 endfacet
 facet normal -0.7229437 -0.6822784 -0.10885152
  outer loop
   vertex 0.24519435 0.14350368 0.29083914
   vertex 0.24519436 0.13216917 0.36188343
   vertex 0.028100997 0.3621644 0.36211786
  endloop
 endfacet
 facet normal 0.0047002397 0.89052874 0.4549028
  outer loop
   vertex 0.005639681 0.027325826 0.25348586
   vertex 0.20996949 0.026627442 0.2527418
   vertex 0.20997395 0.076849 0.15442681
  endloop
 endfacet
 facet normal 0.0039239405 0.89118236 0.45362824
  outer loop
   vertex 0.005645348 0.07728855 0.15533075
   vertex 0.005639681 0.027325826 0.25348586
   vertex 0.20997395 0.076849 0.15442681
  endloop
 endfacet
 facet normal -0.7229063 -0.48805 -0.48909476
  outer loop
   vertex 0.24519451 0.2271547 0.17596422
   vertex 0.24519439 0.17623398 0.22677635
   vertex 0.028100997 0.3621644 0.36211786
  endloop
 endfacet
 facet normal 0.0045520556 0.45314637 0.8914244
  outer loop
   vertex 0.0056547094 0.15513696 0.07740444
   vertex 0.20998544 0.15498805 0.07643672
   vertex 0.20999917 0.2533997 0.02641011
  endloop
 endfacet
 facet normal 0.0037189126 0.45451832 0.8907296
  outer loop
   vertex 0.005667748 0.25325075 0.027339227
   vertex 0.0056547094 0.15513696 0.07740444
   vertex 0.20999917 0.2533997 0.02641011
  endloop
 endfacet
 facet normal -0.7228815 -0.10747867 -0.6825619
  outer loop
   vertex 0.24519482 0.36235127 0.13217066
   vertex 0.24519466 0.29128608 0.14336102
   vertex 0.028100997 0.3621644 0.36211786
  endloop
 endfacet
 facet normal 0.0042172954 -0.1571777 0.98756135
  outer loop
   vertex 0.0056838426 0.3620318 0.0100411065
   vertex 0.21001661 0.36245412 0.009235738
   vertex 0.21003416 0.47147903 0.026587784
  endloop
 endfacet
 facet normal 0.003475149 -0.15582487 0.98777866
  outer loop
   vertex 0.0057020844 0.4708328 0.02720471
   vertex 0.0056838426 0.3620318 0.0100411065
   vertex 0.21003416 0.47147903 0.026587784
  endloop
 endfacet
 facet normal -0.72287494 0.31424507 -0.61538756
  outer loop
   vertex 0.24519517 0.4974727 0.1761993
   vertex 0.24519497 0.43339863 0.14348038
   vertex 0.028100997 0.3621644 0.36211786
  endloop
 endfacet
 facet normal 0.0040062657 -0.70761764 0.70658416
  outer loop
   vertex 0.005717148 0.56901205 0.07714012
   vertex 0.21005064 0.5698075 0.07677822
   vertex 0.21006584 0.6478183 0.15490302
  endloop
 endfacet
 facet normal 0.003155746 -0.70650965 0.7076964
  outer loop
   vertex 0.005731306 0.64695835 0.15495566
   vertex 0.005717148 0.56901205 0.07714012
   vertex 0.21006584 0.6478183 0.15490302
  endloop
 endfacet
 facet normal -0.7228929 0.6158611 -0.3132745
  outer loop
   vertex 0.2451954 0.5809255 0.291223
   vertex 0.2451953 0.5483078 0.22710055
   vertex 0.028100997 0.3621644 0.36211786
  endloop
 endfacet
 facet normal 0.0038262089 -0.98776656 0.15589283
  outer loop
   vertex 0.005741895 0.697047 0.25305814
   vertex 0.21007587 0.69787675 0.2533005
   vertex 0.21008147 0.715086 0.3623413
  endloop
 endfacet
 facet normal 0.0030348827 -0.98754054 0.15733515
  outer loop
   vertex 0.005746754 0.71437657 0.36183003
   vertex 0.005741895 0.697047 0.25305814
   vertex 0.21008147 0.715086 0.3623413
  endloop
 endfacet
 facet normal -0.72292536 0.68236166 0.10845043
  outer loop
   vertex 0.24519545 0.58084446 0.43334132
   vertex 0.24519546 0.5921377 0.3622853
   vertex 0.028100997 0.3621644 0.36211786
  endloop
 endfacet
 facet normal 0.0038422684 -0.89080006 -0.45437935
  outer loop
   vertex 0.005746839 0.6972515 0.47064462
   vertex 0.21008149 0.6977607 0.4713742
   vertex 0.21007594 0.6475972 0.56971854
  endloop
 endfacet
 facet normal 0.0030514654 -0.89146405 -0.45308122
  outer loop
   vertex 0.0057412535 0.6473481 0.56883246
   vertex 0.005746839 0.6972515 0.47064462
   vertex 0.21007594 0.6475972 0.56971854
  endloop
 endfacet
 facet normal -0.72296256 0.48830867 0.48875332
  outer loop
   vertex 0.2451953 0.49725828 0.5482722
   vertex 0.24519539 0.54815143 0.49742547
   vertex 0.028100997 0.3621644 0.36211786
  endloop
 endfacet
 facet normal 0.004040199 -0.4537 -0.89114535
  outer loop
   vertex 0.0057318923 0.56954646 0.6468027
   vertex 0.21006575 0.5695025 0.6477515
   vertex 0.21005063 0.4711205 0.6978397
  endloop
 endfacet
 facet normal 0.0032370668 -0.45501983 -0.8904754
  outer loop
   vertex 0.0057187187 0.47146264 0.69692206
   vertex 0.0057318923 0.56954646 0.6468027
   vertex 0.21005063 0.4711205 0.6978397
  endloop
 endfacet
 facet normal -0.7229872 0.10786397 0.6823891
  outer loop
   vertex 0.24519499 0.36208493 0.5921402
   vertex 0.24519515 0.4331456 0.58090794
   vertex 0.028100997 0.3621644 0.36211786
  endloop
 endfacet
 facet normal 0.004174183 -0.15616418 -0.9877223
  outer loop
   vertex 0.0057187187 0.47146264 0.69692206
   vertex 0.21005063 0.4711205 0.6978397
   vertex 0.21003474 0.36207932 0.7150796
  endloop
 endfacet
 facet normal 0.0033647062 -0.15763785 -0.9874913
  outer loop
   vertex 0.0057018017 0.36269772 0.71428466
   vertex 0.0057187187 0.47146264 0.69692206
   vertex 0.21003474 0.36207932 0.7150796
  endloop
 endfacet
 facet normal -0.72297627 0.3134125 0.61569303
  outer loop
   vertex 0.24519515 0.4331456 0.58090794
   vertex 0.2451953 0.49725828 0.5482722
   vertex 0.028100997 0.3621644 0.36211786
  endloop
 endfacet
 facet normal 0.0039291345 -0.70682186 -0.70738065
  outer loop
   vertex 0.0057412535 0.6473481 0.56883246
   vertex 0.21007594 0.6475972 0.56971854
   vertex 0.21006575 0.5695025 0.6477515
  endloop
 endfacet
 facet normal 0.0031273598 -0.7078685 -0.7063373
  outer loop
   vertex 0.0057318923 0.56954646 0.6468027
   vertex 0.0057412535 0.6473481 0.56883246
   vertex 0.21006575 0.5695025 0.6477515
  endloop
 endfacet
 facet normal -0.7229456 0.61544365 0.3139727
  outer loop
   vertex 0.24519539 0.54815143 0.49742547
   vertex 0.24519545 0.58084446 0.43334132
   vertex 0.028100997 0.3621644 0.36211786
  endloop
 endfacet
 facet normal 0.003821454 -0.9876024 -0.15692961
  outer loop
   vertex 0.005746754 0.71437657 0.36183003
   vertex 0.21008147 0.715086 0.3623413
   vertex 0.21008149 0.6977607 0.4713742
  endloop
 endfacet
 facet normal 0.0030167876 -0.9878369 -0.1554642
  outer loop
   vertex 0.005746839 0.6972515 0.47064462
   vertex 0.005746754 0.71437657 0.36183003
   vertex 0.21008149 0.6977607 0.4713742
  endloop
 endfacet
 facet normal -0.72290736 0.682502 -0.10768418
  outer loop
   vertex 0.24519546 0.5921377 0.3622853
   vertex 0.2451954 0.5809255 0.291223
   vertex 0.028100997 0.3621644 0.36211786
  endloop
 endfacet
 facet normal 0.0038679077 -0.8912841 0.4534288
  outer loop
   vertex 0.005731306 0.64695835 0.15495566
   vertex 0.21006584 0.6478183 0.15490302
   vertex 0.21007587 0.69787675 0.2533005
  endloop
 endfacet
 facet normal 0.0030772954 -0.8906241 0.4547298
  outer loop
   vertex 0.005741895 0.697047 0.25305814
   vertex 0.005731306 0.64695835 0.15495566
   vertex 0.21007587 0.69787675 0.2533005
  endloop
 endfacet
 facet normal -0.72287935 0.4889112 -0.48827368
  outer loop
   vertex 0.2451953 0.5483078 0.22710055
   vertex 0.24519517 0.4974727 0.1761993
   vertex 0.028100997 0.3621644 0.36211786
  endloop
 endfacet
 facet normal 0.0041269804 -0.45463112 0.89067024
  outer loop
   vertex 0.0057020844 0.4708328 0.02720471
   vertex 0.21003416 0.47147903 0.026587784
   vertex 0.21005064 0.5698075 0.07677822
  endloop
 endfacet
 facet normal 0.0033435714 -0.4533438 0.89132947
  outer loop
   vertex 0.005717148 0.56901205 0.07714012
   vertex 0.0057020844 0.4708328 0.02720471
   vertex 0.21005064 0.5698075 0.07677822
  endloop
 endfacet
 facet normal -0.72287834 0.10862707 -0.68238336
  outer loop
   vertex 0.24519497 0.43339863 0.14348038
   vertex 0.24519482 0.36235127 0.13217066
   vertex 0.028100997 0.3621644 0.36211786
  endloop
 endfacet
 facet normal 0.004378304 0.15556493 0.987816
  outer loop
   vertex 0.005667748 0.25325075 0.027339227
   vertex 0.20999917 0.2533997 0.02641011
   vertex 0.21001661 0.36245412 0.009235738
  endloop
 endfacet
 facet normal 0.003567937 0.1570431 0.9875853
  outer loop
   vertex 0.0056838426 0.3620318 0.0100411065
   vertex 0.005667748 0.25325075 0.027339227
   vertex 0.21001661 0.36245412 0.009235738
  endloop
 endfacet
 facet normal -0.7228899 -0.3131299 -0.61593825
  outer loop
   vertex 0.24519466 0.29128608 0.14336102
   vertex 0.24519451 0.2271547 0.17596422
   vertex 0.028100997 0.3621644 0.36211786
  endloop
 endfacet
 facet normal 0.004650806 0.7064238 0.70777375
  outer loop
   vertex 0.005645348 0.07728855 0.15533075
   vertex 0.20997395 0.076849 0.15442681
   vertex 0.20998544 0.15498805 0.07643672
  endloop
 endfacet
 facet normal 0.0038627493 0.70745474 0.706748
  outer loop
   vertex 0.0056547094 0.15513696 0.07740444
   vertex 0.005645348 0.07728855 0.15533075
   vertex 0.20998544 0.15498805 0.07643672
  endloop
 endfacet
 facet normal -0.7229267 -0.6152734 -0.31434962
  outer loop
   vertex 0.24519439 0.17623398 0.22677635
   vertex 0.24519435 0.14350368 0.29083914
   vertex 0.028100997 0.3621644 0.36211786
  endloop
 endfacet
 facet normal 0.0047625266 0.9875023 0.15753256
  outer loop
   vertex 0.0056398264 0.01013699 0.3622905
   vertex 0.20996968 0.009237048 0.36175454
   vertex 0.20996949 0.026627442 0.2527418
  endloop
 endfacet
 facet normal 0.003944241 0.9877425 0.15604244
  outer loop
   vertex 0.005639681 0.027325826 0.25348586
   vertex 0.0056398264 0.01013699 0.3622905
   vertex 0.20996949 0.026627442 0.2527418
  endloop
 endfacet
 facet normal -0.72296023 -0.6825142 0.10725099
  outer loop
   vertex 0.24519436 0.13216917 0.36188343
   vertex 0.2451944 0.1433373 0.43295443
   vertex 0.028100997 0.3621644 0.36211786
  endloop
 endfacet
 facet normal 0.004683918 0.8915527 -0.4528929
  outer loop
   vertex 0.005655157 0.07743291 0.5692013
   vertex 0.2099858 0.07638107 0.5692439
   vertex 0.20997542 0.026380721 0.47081447
  endloop
 endfacet
 facet normal 0.0038775788 0.89088154 -0.45421916
  outer loop
   vertex 0.005645618 0.027402326 0.47107387
   vertex 0.005655157 0.07743291 0.5692013
   vertex 0.20997542 0.026380721 0.47081447
  endloop
 endfacet
 facet normal -0.7229881 -0.48915616 0.48786724
  outer loop
   vertex 0.24519451 0.17591625 0.49709636
   vertex 0.24519466 0.22671863 0.5480332
   vertex 0.028100997 0.3621644 0.36211786
  endloop
 endfacet
 facet normal 0.0044595217 0.45517665 -0.8903899
  outer loop
   vertex 0.005684765 0.25348112 0.69706285
   vertex 0.21001682 0.25264096 0.69765675
   vertex 0.20999993 0.15434456 0.6474065
  endloop
 endfacet
 facet normal 0.0036646419 0.45387337 -0.8910587
  outer loop
   vertex 0.0056684846 0.15533508 0.6470707
   vertex 0.005684765 0.25348112 0.69706285
   vertex 0.20999993 0.15434456 0.6474065
  endloop
 endfacet
 facet normal -0.7229612 -0.10866361 0.6822898
  outer loop
   vertex 0.24519481 0.29077378 0.5807828
   vertex 0.24519499 0.36208493 0.5921402
   vertex 0.028100997 0.3621644 0.36211786
  endloop
 endfacet
endsolid