solid shape
 facet normal 1.0 0.0 0.0
  outer loop
   vertex 0.220821 0.574553 0.579201
   vertex 0.220821 0.14637598 0.579201
   vertex 0.220821 0.14637598 0.148262
  endloop
 endfacet
 facet normal 1.0 0.0 0.0
  outer loop
   vertex 0.220821 0.574553 0.579201
   vertex 0.220821 0.14637598 0.148262
   vertex 0.220821 0.574553 0.148262
  endloop
 endfacet
 facet normal 0.70783186 -0.111007765 0.697604
  outer loop
   vertex 0.23386198 0.256145 0.687159
   vertex 0.233879 0.36214998 0.70401
   vertex 0.21386899 0.36216 0.724315
  endloop
 endfacet
 facet normal 0.70782965 -0.11100889 0.697606
  outer loop
   vertex 0.23386198 0.256145 0.687159
   vertex 0.21386899 0.36216 0.724315
   vertex 0.21384999 0.24985899 0.706464
  endloop
 endfacet
 facet normal -1.0 1.5789586E-4 2.2464543E-5
  outer loop
   vertex 2.9996037E-5 0.15012899 0.65348196
   vertex 4.6998262E-5 0.250512 0.70476997
   vertex 5.699694E-5 0.362483 0.36284998
  endloop
 endfacet
 facet normal 0.9827073 -0.084243976 0.16489168
  outer loop
   vertex 0.255024 0.22785299 0.54658496
   vertex 0.255024 0.291405 0.579054
   vertex 0.23386198 0.256145 0.687159
  endloop
 endfacet
 facet normal 0.9826848 -0.0844375 0.16492721
  outer loop
   vertex 0.255024 0.22785299 0.54658496
   vertex 0.23386198 0.256145 0.687159
   vertex 0.233845 0.16091798 0.638507
  endloop
 endfacet
 facet normal 0.70773107 -0.50014675 0.49896896
  outer loop
   vertex 0.23382999 0.085381985 0.562814
   vertex 0.233845 0.16091798 0.638507
   vertex 0.21383199 0.14897498 0.654922
  endloop
 endfacet
 facet normal 0.7077508 -0.5001277 0.49896005
  outer loop
   vertex 0.23382999 0.085381985 0.562814
   vertex 0.21383199 0.14897498 0.654922
   vertex 0.213817 0.068951994 0.574733
  endloop
 endfacet
 facet normal -1.0 1.5529623E-4 2.0563979E-5
  outer loop
   vertex 5.990267E-6 0.019422978 0.47320098
   vertex 1.5988946E-5 0.070501 0.57369
   vertex 5.699694E-5 0.362483 0.36284998
  endloop
 endfacet
 facet normal 0.98265606 -0.16530882 0.08402374
  outer loop
   vertex 0.255024 0.14510499 0.43245
   vertex 0.255024 0.17744198 0.49607
   vertex 0.23382999 0.085381985 0.562814
  endloop
 endfacet
 facet normal 0.982642 -0.1654195 0.08397073
  outer loop
   vertex 0.255024 0.14510499 0.43245
   vertex 0.23382999 0.085381985 0.562814
   vertex 0.233819 0.036927998 0.46749
  endloop
 endfacet
 facet normal 0.7076888 -0.69793147 0.10985588
  outer loop
   vertex 0.23381498 0.020295978 0.36185
   vertex 0.233819 0.036927998 0.46749
   vertex 0.213806 0.017618984 0.47373998
  endloop
 endfacet
 facet normal 0.70765513 -0.69796664 0.10984902
  outer loop
   vertex 0.23381498 0.020295978 0.36185
   vertex 0.213806 0.017618984 0.47373998
   vertex 0.21379998 0.0 0.36183
  endloop
 endfacet
 facet normal -1.0 1.5799499E-4 2.5160063E-5
  outer loop
   vertex 0.0 0.019620001 0.25051698
   vertex 0.0 0.0018909872 0.361848
   vertex 5.699694E-5 0.362483 0.36284998
  endloop
 endfacet
 facet normal 0.98263246 -0.18325329 -0.02918325
  outer loop
   vertex 0.255024 0.14523 0.29147
   vertex 0.255024 0.134006 0.36194998
   vertex 0.23381498 0.020295978 0.36185
  endloop
 endfacet
 facet normal 0.98263043 -0.18326193 -0.029199194
  outer loop
   vertex 0.255024 0.14523 0.29147
   vertex 0.23381498 0.020295978 0.36185
   vertex 0.233814 0.03711599 0.25625
  endloop
 endfacet
 facet normal 0.7076884 -0.6292769 -0.3212284
  outer loop
   vertex 0.233819 0.08573899 0.16101
   vertex 0.233814 0.03711599 0.25625
   vertex 0.21379998 0.017818987 0.24995999
  endloop
 endfacet
 facet normal 0.7076927 -0.6292738 -0.32122514
  outer loop
   vertex 0.233819 0.08573899 0.16101
   vertex 0.21379998 0.017818987 0.24995999
   vertex 0.21380499 0.06933099 0.14906
  endloop
 endfacet
 facet normal -1.0 1.539892E-4 2.8687411E-5
  outer loop
   vertex 1.5988946E-5 0.15064698 0.070472986
   vertex 5.990267E-6 0.070876986 0.150126
   vertex 5.699694E-5 0.362483 0.36284998
  endloop
 endfacet
 facet normal 0.9826368 -0.13109185 -0.13129985
  outer loop
   vertex 0.255024 0.22818099 0.17749
   vertex 0.255024 0.17768098 0.22791
   vertex 0.233819 0.08573899 0.16101
  endloop
 endfacet
 facet normal 0.9826531 -0.13111044 -0.13116002
  outer loop
   vertex 0.255024 0.22818099 0.17749
   vertex 0.233819 0.08573899 0.16101
   vertex 0.23382999 0.16140999 0.08544999
  endloop
 endfacet
 facet normal 0.70785624 -0.3203774 -0.62952197
  outer loop
   vertex 0.233845 0.256723 0.036960006
   vertex 0.23382999 0.16140999 0.08544999
   vertex 0.213817 0.14949599 0.06900999
  endloop
 endfacet
 facet normal 0.7076634 -0.32040244 -0.629726
  outer loop
   vertex 0.233845 0.256723 0.036960006
   vertex 0.213817 0.14949599 0.06900999
   vertex 0.213831 0.250471 0.017649978
  endloop
 endfacet
 facet normal -1.0 1.5705833E-4 2.7688442E-5
  outer loop
   vertex 4.6998262E-5 0.36247298 0.0017929971
   vertex 2.9996037E-5 0.251122 0.019358993
   vertex 5.699694E-5 0.362483 0.36284998
  endloop
 endfacet
 facet normal 0.98268104 -0.028873773 -0.18304195
  outer loop
   vertex 0.255024 0.362285 0.13400999
   vertex 0.255024 0.291791 0.14513
   vertex 0.233845 0.256723 0.036960006
  endloop
 endfacet
 facet normal 0.9827029 -0.02900562 -0.18290332
  outer loop
   vertex 0.255024 0.362285 0.13400999
   vertex 0.233845 0.256723 0.036960006
   vertex 0.23386198 0.362353 0.0203
  endloop
 endfacet
 facet normal 0.70781577 0.11079973 -0.6976534
  outer loop
   vertex 0.233879 0.46796298 0.037090003
   vertex 0.23386198 0.362353 0.0203
   vertex 0.21384999 0.362375 0.0
  endloop
 endfacet
 facet normal 0.7079529 0.11072878 -0.69752556
  outer loop
   vertex 0.233879 0.46796298 0.037090003
   vertex 0.21384999 0.362375 0.0
   vertex 0.21386899 0.474257 0.017780006
  endloop
 endfacet
 facet normal -1.0 1.4810369E-4 2.1803462E-5
  outer loop
   vertex 8.198619E-5 0.57421696 0.070724994
   vertex 6.599724E-5 0.473801 0.019495994
   vertex 5.699694E-5 0.362483 0.36284998
  endloop
 endfacet
 facet normal 0.9827323 0.08410516 -0.16481407
  outer loop
   vertex 0.255024 0.496337 0.17764999
   vertex 0.255024 0.43276697 0.14521
   vertex 0.233879 0.46796298 0.037090003
  endloop
 endfacet
 facet normal 0.982759 0.083875455 -0.1647717
  outer loop
   vertex 0.255024 0.496337 0.17764999
   vertex 0.233879 0.46796298 0.037090003
   vertex 0.23389599 0.563218 0.08567998
  endloop
 endfacet
 facet normal 0.70801944 0.49950802 -0.49919957
  outer loop
   vertex 0.233911 0.6388 0.16132998
   vertex 0.23389599 0.563218 0.08567998
   vertex 0.213886 0.575171 0.06926
  endloop
 endfacet
 facet normal 0.7079365 0.49958822 -0.499237
  outer loop
   vertex 0.233911 0.6388 0.16132998
   vertex 0.213886 0.575171 0.06926
   vertex 0.213902 0.65524197 0.14941
  endloop
 endfacet
 facet normal -1.0 1.5829917E-4 2.8885448E-5
  outer loop
   vertex 1.07988715E-4 0.705029 0.250926
   vertex 9.699166E-5 0.65389097 0.15046199
   vertex 5.699694E-5 0.362483 0.36284998
  endloop
 endfacet
 facet normal 0.9827854 0.16464758 -0.08380983
  outer loop
   vertex 0.255024 0.579153 0.29173
   vertex 0.255024 0.546779 0.22813
   vertex 0.233911 0.6388 0.16132998
  endloop
 endfacet
 facet normal 0.9827988 0.16454168 -0.08386045
  outer loop
   vertex 0.255024 0.579153 0.29173
   vertex 0.233911 0.6388 0.16132998
   vertex 0.23392099 0.687311 0.25663
  endloop
 endfacet
 facet normal 0.7080855 0.69746387 -0.11026898
  outer loop
   vertex 0.23392698 0.704005 0.36225998
   vertex 0.23392099 0.687311 0.25663
   vertex 0.213913 0.706634 0.25037
  endloop
 endfacet
 facet normal 0.7081242 0.6974233 -0.11027686
  outer loop
   vertex 0.23392698 0.704005 0.36225998
   vertex 0.213913 0.706634 0.25037
   vertex 0.21391898 0.72432 0.36225998
  endloop
 endfacet
 facet normal -1.0 1.5552925E-4 2.4674171E-5
  outer loop
   vertex 1.12995505E-4 0.70496297 0.47360998
   vertex 1.12995505E-4 0.722627 0.362268
   vertex 5.699694E-5 0.362483 0.36284998
  endloop
 endfacet
 facet normal 0.9828111 0.18233405 0.028926587
  outer loop
   vertex 0.255024 0.579112 0.43271
   vertex 0.255024 0.59029496 0.36222
   vertex 0.23392698 0.704005 0.36225998
  endloop
 endfacet
 facet normal 0.9828105 0.1823365 0.028931115
  outer loop
   vertex 0.255024 0.579112 0.43271
   vertex 0.23392698 0.704005 0.36225998
   vertex 0.23392698 0.687248 0.46787
  endloop
 endfacet
 facet normal 0.7081032 0.6290656 0.32072788
  outer loop
   vertex 0.23392099 0.638681 0.563141
   vertex 0.23392698 0.687248 0.46787
   vertex 0.21391898 0.706568 0.47415
  endloop
 endfacet
 facet normal 0.70810586 0.6290636 0.3207258
  outer loop
   vertex 0.23392099 0.638681 0.563141
   vertex 0.21391898 0.706568 0.47415
   vertex 0.213913 0.65511596 0.57508
  endloop
 endfacet
 facet normal -1.0 1.5220465E-4 2.679531E-5
  outer loop
   vertex 9.699166E-5 0.574043 0.653733
   vertex 1.0699034E-4 0.653766 0.574035
   vertex 5.699694E-5 0.362483 0.36284998
  endloop
 endfacet
 facet normal 0.9828006 0.1305591 0.13060313
  outer loop
   vertex 0.255024 0.49622798 0.546744
   vertex 0.255024 0.546699 0.49629
   vertex 0.23392099 0.638681 0.563141
  endloop
 endfacet
 facet normal 0.982788 0.13054462 0.13071267
  outer loop
   vertex 0.255024 0.49622798 0.546744
   vertex 0.23392099 0.638681 0.563141
   vertex 0.233911 0.563055 0.63874495
  endloop
 endfacet
 facet normal 0.7079927 0.3204704 0.62932104
  outer loop
   vertex 0.23389599 0.46776998 0.687284
   vertex 0.233911 0.563055 0.63874495
   vertex 0.213902 0.574997 0.655174
  endloop
 endfacet
 facet normal 0.70800865 0.3204683 0.6293043
  outer loop
   vertex 0.23389599 0.46776998 0.687284
   vertex 0.213902 0.574997 0.655174
   vertex 0.213886 0.474053 0.706597
  endloop
 endfacet
 facet normal -1.0 1.6521443E-4 2.234959E-5
  outer loop
   vertex 6.4998865E-5 0.36225998 0.722533
   vertex 8.299947E-5 0.473598 0.704902
   vertex 5.699694E-5 0.362483 0.36284998
  endloop
 endfacet
 facet normal 0.9827616 0.028918147 0.18260173
  outer loop
   vertex 0.255024 0.36214998 0.59029996
   vertex 0.255024 0.432638 0.57913697
   vertex 0.23389599 0.46776998 0.687284
  endloop
 endfacet
 facet normal 0.98273885 0.028781584 0.18274552
  outer loop
   vertex 0.255024 0.36214998 0.59029996
   vertex 0.23389599 0.46776998 0.687284
   vertex 0.233879 0.36214998 0.70401
  endloop
 endfacet
 facet normal 0.7079447 0.110357165 0.69759274
  outer loop
   vertex 0.233879 0.36214998 0.70401
   vertex 0.23389599 0.46776998 0.687284
   vertex 0.213886 0.474053 0.706597
  endloop
 endfacet
 facet normal 0.70793813 0.110355824 0.69759953
  outer loop
   vertex 0.233879 0.36214998 0.70401
   vertex 0.213886 0.474053 0.706597
   vertex 0.21386899 0.36216 0.724315
  endloop
 endfacet
 facet normal 0.9827853 0.083859496 0.16462286
  outer loop
   vertex 0.255024 0.432638 0.57913697
   vertex 0.255024 0.49622798 0.546744
   vertex 0.233911 0.563055 0.63874495
  endloop
 endfacet
 facet normal 0.98276556 0.083785035 0.16477875
  outer loop
   vertex 0.255024 0.432638 0.57913697
   vertex 0.233911 0.563055 0.63874495
   vertex 0.23389599 0.46776998 0.687284
  endloop
 endfacet
 facet normal -1.0 1.5275009E-4 2.6398606E-5
  outer loop
   vertex 8.299947E-5 0.473598 0.704902
   vertex 9.699166E-5 0.574043 0.653733
   vertex 5.699694E-5 0.362483 0.36284998
  endloop
 endfacet
 facet normal 0.7080706 0.49919784 0.49943712
  outer loop
   vertex 0.233911 0.563055 0.63874495
   vertex 0.23392099 0.638681 0.563141
   vertex 0.213913 0.65511596 0.57508
  endloop
 endfacet
 facet normal 0.7080449 0.4992095 0.49946198
  outer loop
   vertex 0.233911 0.563055 0.63874495
   vertex 0.213913 0.65511596 0.57508
   vertex 0.213902 0.574997 0.655174
  endloop
 endfacet
 facet normal 0.98281 0.16447932 0.08385134
  outer loop
   vertex 0.255024 0.546699 0.49629
   vertex 0.255024 0.579112 0.43271
   vertex 0.23392698 0.687248 0.46787
  endloop
 endfacet
 facet normal 0.98280257 0.1644912 0.08391569
  outer loop
   vertex 0.255024 0.546699 0.49629
   vertex 0.23392698 0.687248 0.46787
   vertex 0.23392099 0.638681 0.563141
  endloop
 endfacet
 facet normal -1.0 1.5696803E-4 2.0225281E-5
  outer loop
   vertex 1.0699034E-4 0.653766 0.574035
   vertex 1.12995505E-4 0.70496297 0.47360998
   vertex 5.699694E-5 0.362483 0.36284998
  endloop
 endfacet
 facet normal 0.70809424 0.6973938 0.11065461
  outer loop
   vertex 0.23392698 0.687248 0.46787
   vertex 0.23392698 0.704005 0.36225998
   vertex 0.21391898 0.72432 0.36225998
  endloop
 endfacet
 facet normal 0.708119 0.69737077 0.11064186
  outer loop
   vertex 0.23392698 0.687248 0.46787
   vertex 0.21391898 0.72432 0.36225998
   vertex 0.21391898 0.706568 0.47415
  endloop
 endfacet
 facet normal 0.9828015 0.18240061 -0.028831033
  outer loop
   vertex 0.255024 0.59029496 0.36222
   vertex 0.255024 0.579153 0.29173
   vertex 0.23392099 0.687311 0.25663
  endloop
 endfacet
 facet normal 0.9828089 0.18235396 -0.028875373
  outer loop
   vertex 0.255024 0.59029496 0.36222
   vertex 0.23392099 0.687311 0.25663
   vertex 0.23392698 0.704005 0.36225998
  endloop
 endfacet
 facet normal -1.0 1.5552233E-4 2.0386846E-5
  outer loop
   vertex 1.12995505E-4 0.722627 0.362268
   vertex 1.07988715E-4 0.705029 0.250926
   vertex 5.699694E-5 0.362483 0.36284998
  endloop
 endfacet
 facet normal 0.70801514 0.6293213 -0.32042032
  outer loop
   vertex 0.23392099 0.687311 0.25663
   vertex 0.233911 0.6388 0.16132998
   vertex 0.213902 0.65524197 0.14941
  endloop
 endfacet
 facet normal 0.7080209 0.6293152 -0.3204196
  outer loop
   vertex 0.23392099 0.687311 0.25663
   vertex 0.213902 0.65524197 0.14941
   vertex 0.213913 0.706634 0.25037
  endloop
 endfacet
 facet normal 0.98276365 0.13076964 -0.13067113
  outer loop
   vertex 0.255024 0.546779 0.22813
   vertex 0.255024 0.496337 0.17764999
   vertex 0.23389599 0.563218 0.08567998
  endloop
 endfacet
 facet normal 0.9827816 0.13061416 -0.13069174
  outer loop
   vertex 0.255024 0.546779 0.22813
   vertex 0.23389599 0.563218 0.08567998
   vertex 0.233911 0.6388 0.16132998
  endloop
 endfacet
 facet normal -1.0 1.5877465E-4 2.9537825E-5
  outer loop
   vertex 9.699166E-5 0.65389097 0.15046199
   vertex 8.198619E-5 0.57421696 0.070724994
   vertex 5.699694E-5 0.362483 0.36284998
  endloop
 endfacet
 facet normal 0.7080202 0.3207933 -0.62912565
  outer loop
   vertex 0.23389599 0.563218 0.08567998
   vertex 0.233879 0.46796298 0.037090003
   vertex 0.21386899 0.474257 0.017780006
  endloop
 endfacet
 facet normal 0.7079521 0.32084644 -0.6291751
  outer loop
   vertex 0.23389599 0.563218 0.08567998
   vertex 0.21386899 0.474257 0.017780006
   vertex 0.213886 0.575171 0.06926
  endloop
 endfacet
 facet normal 0.98270756 0.029059056 -0.18286946
  outer loop
   vertex 0.255024 0.43276697 0.14521
   vertex 0.255024 0.362285 0.13400999
   vertex 0.23386198 0.362353 0.0203
  endloop
 endfacet
 facet normal 0.98272824 0.028900841 -0.18278378
  outer loop
   vertex 0.255024 0.43276697 0.14521
   vertex 0.23386198 0.362353 0.0203
   vertex 0.233879 0.46796298 0.037090003
  endloop
 endfacet
 facet normal -1.0 1.662548E-4 2.7688187E-5
  outer loop
   vertex 6.599724E-5 0.473801 0.019495994
   vertex 4.6998262E-5 0.36247298 0.0017929971
   vertex 5.699694E-5 0.362483 0.36284998
  endloop
 endfacet
 facet normal 0.7077203 -0.11017878 -0.6978487
  outer loop
   vertex 0.23386198 0.362353 0.0203
   vertex 0.233845 0.256723 0.036960006
   vertex 0.213831 0.250471 0.017649978
  endloop
 endfacet
 facet normal 0.7077448 -0.11018378 -0.6978229
  outer loop
   vertex 0.23386198 0.362353 0.0203
   vertex 0.213831 0.250471 0.017649978
   vertex 0.21384999 0.362375 0.0
  endloop
 endfacet
 facet normal 0.9826562 -0.08408125 -0.16527838
  outer loop
   vertex 0.255024 0.291791 0.14513
   vertex 0.255024 0.22818099 0.17749
   vertex 0.23382999 0.16140999 0.08544999
  endloop
 endfacet
 facet normal 0.9826766 -0.084157825 -0.1651184
  outer loop
   vertex 0.255024 0.291791 0.14513
   vertex 0.23382999 0.16140999 0.08544999
   vertex 0.233845 0.256723 0.036960006
  endloop
 endfacet
 facet normal -1.0 1.5399903E-4 2.8680282E-5
  outer loop
   vertex 2.9996037E-5 0.251122 0.019358993
   vertex 1.5988946E-5 0.15064698 0.070472986
   vertex 5.699694E-5 0.362483 0.36284998
  endloop
 endfacet
 facet normal 0.7077443 -0.4992335 -0.4998639
  outer loop
   vertex 0.23382999 0.16140999 0.08544999
   vertex 0.233819 0.08573899 0.16101
   vertex 0.21380499 0.06933099 0.14906
  endloop
 endfacet
 facet normal 0.707782 -0.4992166 -0.49982753
  outer loop
   vertex 0.23382999 0.16140999 0.08544999
   vertex 0.21380499 0.06933099 0.14906
   vertex 0.213817 0.14949599 0.06900999
  endloop
 endfacet
 facet normal 0.9826293 -0.16528347 -0.0843866
  outer loop
   vertex 0.255024 0.17768098 0.22791
   vertex 0.255024 0.14523 0.29147
   vertex 0.233814 0.03711599 0.25625
  endloop
 endfacet
 facet normal 0.9826365 -0.16527215 -0.0843251
  outer loop
   vertex 0.255024 0.17768098 0.22791
   vertex 0.233814 0.03711599 0.25625
   vertex 0.233819 0.08573899 0.16101
  endloop
 endfacet
 facet normal -1.0 1.59163E-4 2.1595051E-5
  outer loop
   vertex 5.990267E-6 0.070876986 0.150126
   vertex 0.0 0.019620001 0.25051698
   vertex 5.699694E-5 0.362483 0.36284998
  endloop
 endfacet
 facet normal 0.7076614 -0.69775504 -0.11114531
  outer loop
   vertex 0.233814 0.03711599 0.25625
   vertex 0.23381498 0.020295978 0.36185
   vertex 0.21379998 0.0 0.36183
  endloop
 endfacet
 facet normal 0.70767444 -0.6977429 -0.11113857
  outer loop
   vertex 0.233814 0.03711599 0.25625
   vertex 0.21379998 0.0 0.36183
   vertex 0.21379998 0.017818987 0.24995999
  endloop
 endfacet
 facet normal 0.9826386 -0.1832722 0.028853007
  outer loop
   vertex 0.255024 0.134006 0.36194998
   vertex 0.255024 0.14510499 0.43245
   vertex 0.233819 0.036927998 0.46749
  endloop
 endfacet
 facet normal 0.98263353 -0.1833045 0.028822284
  outer loop
   vertex 0.255024 0.134006 0.36194998
   vertex 0.233819 0.036927998 0.46749
   vertex 0.23381498 0.020295978 0.36185
  endloop
 endfacet
 facet normal -1.0 1.5798456E-4 2.8921397E-5
  outer loop
   vertex 0.0 0.0018909872 0.361848
   vertex 5.990267E-6 0.019422978 0.47320098
   vertex 5.699694E-5 0.362483 0.36284998
  endloop
 endfacet
 facet normal 0.7077061 -0.629845 0.3200738
  outer loop
   vertex 0.233819 0.036927998 0.46749
   vertex 0.23382999 0.085381985 0.562814
   vertex 0.213817 0.068951994 0.574733
  endloop
 endfacet
 facet normal 0.7076778 -0.629875 0.32007754
  outer loop
   vertex 0.233819 0.036927998 0.46749
   vertex 0.213817 0.068951994 0.574733
   vertex 0.213806 0.017618984 0.47373998
  endloop
 endfacet
 facet normal 0.9826802 -0.13116817 0.13089822
  outer loop
   vertex 0.255024 0.17744198 0.49607
   vertex 0.255024 0.22785299 0.54658496
   vertex 0.233845 0.16091798 0.638507
  endloop
 endfacet
 facet normal 0.9826601 -0.13134229 0.13087504
  outer loop
   vertex 0.255024 0.17744198 0.49607
   vertex 0.233845 0.16091798 0.638507
   vertex 0.23382999 0.085381985 0.562814
  endloop
 endfacet
 facet normal -1.0 1.5529795E-4 2.0566338E-5
  outer loop
   vertex 1.5988946E-5 0.070501 0.57369
   vertex 2.9996037E-5 0.15012899 0.65348196
   vertex 5.699694E-5 0.362483 0.36284998
  endloop
 endfacet
 facet normal 0.70778924 -0.3214987 0.62902534
  outer loop
   vertex 0.233845 0.16091798 0.638507
   vertex 0.23386198 0.256145 0.687159
   vertex 0.21384999 0.24985899 0.706464
  endloop
 endfacet
 facet normal 0.7077922 -0.32149643 0.62902325
  outer loop
   vertex 0.233845 0.16091798 0.638507
   vertex 0.21384999 0.24985899 0.706464
   vertex 0.21383199 0.14897498 0.654922
  endloop
 endfacet
 facet normal 0.9827313 -0.029049883 0.18274407
  outer loop
   vertex 0.255024 0.291405 0.579054
   vertex 0.255024 0.36214998 0.59029996
   vertex 0.233879 0.36214998 0.70401
  endloop
 endfacet
 facet normal 0.9827087 -0.029222464 0.182838
  outer loop
   vertex 0.255024 0.291405 0.579054
   vertex 0.233879 0.36214998 0.70401
   vertex 0.23386198 0.256145 0.687159
  endloop
 endfacet
 facet normal -1.0 1.5753027E-4 2.2344826E-5
  outer loop
   vertex 4.6998262E-5 0.250512 0.70476997
   vertex 6.4998865E-5 0.36225998 0.722533
   vertex 5.699694E-5 0.362483 0.36284998
  endloop
 endfacet
 facet normal -0.008304523 -0.15697896 0.987567
  outer loop
   vertex 0.21384999 0.24985899 0.706464
   vertex 0.21386899 0.36216 0.724315
   vertex 6.4998865E-5 0.36225998 0.722533
  endloop
 endfacet
 facet normal -0.008304238 -0.15697844 0.98756707
  outer loop
   vertex 0.21384999 0.24985899 0.706464
   vertex 6.4998865E-5 0.36225998 0.722533
   vertex 4.6998262E-5 0.250512 0.70476997
  endloop
 endfacet
 facet normal 0.72048694 0.31550422 -0.61754
  outer loop
   vertex 0.038100995 0.362164 0.36212
   vertex 0.255024 0.291405 0.579054
   vertex 0.255024 0.22785299 0.54658496
  endloop
 endfacet
 facet normal -0.008578018 -0.7078122 0.7063486
  outer loop
   vertex 0.213817 0.068951994 0.574733
   vertex 0.21383199 0.14897498 0.654922
   vertex 2.9996037E-5 0.15012899 0.65348196
  endloop
 endfacet
 facet normal -0.008574043 -0.70780694 0.70635384
  outer loop
   vertex 0.213817 0.068951994 0.574733
   vertex 2.9996037E-5 0.15012899 0.65348196
   vertex 1.5988946E-5 0.070501 0.57369
  endloop
 endfacet
 facet normal 0.7204729 0.6182083 -0.314225
  outer loop
   vertex 0.038100995 0.362164 0.36212
   vertex 0.255024 0.17744198 0.49607
   vertex 0.255024 0.14510499 0.43245
  endloop
 endfacet
 facet normal -0.008726845 -0.9877945 0.15551774
  outer loop
   vertex 0.21379998 0.0 0.36183
   vertex 0.213806 0.017618984 0.47373998
   vertex 5.990267E-6 0.019422978 0.47320098
  endloop
 endfacet
 facet normal -0.008723601 -0.9877937 0.15552384
  outer loop
   vertex 0.21379998 0.0 0.36183
   vertex 5.990267E-6 0.019422978 0.47320098
   vertex 0.0 0.0018909872 0.361848
  endloop
 endfacet
 facet normal 0.7204422 0.6848848 0.10906857
  outer loop
   vertex 0.038100995 0.362164 0.36212
   vertex 0.255024 0.134006 0.36194998
   vertex 0.255024 0.14523 0.29147
  endloop
 endfacet
 facet normal -0.008686902 -0.8906122 -0.45468056
  outer loop
   vertex 0.21380499 0.06933099 0.14906
   vertex 0.21379998 0.017818987 0.24995999
   vertex 0.0 0.019620001 0.25051698
  endloop
 endfacet
 facet normal -0.008707153 -0.89059466 -0.4547146
  outer loop
   vertex 0.21380499 0.06933099 0.14906
   vertex 0.0 0.019620001 0.25051698
   vertex 5.990267E-6 0.070876986 0.150126
  endloop
 endfacet
 facet normal 0.72040564 0.49002704 0.49080458
  outer loop
   vertex 0.038100995 0.362164 0.36212
   vertex 0.255024 0.17768098 0.22791
   vertex 0.255024 0.22818099 0.17749
  endloop
 endfacet
 facet normal -0.008539522 -0.4533469 -0.8912932
  outer loop
   vertex 0.213831 0.250471 0.017649978
   vertex 0.213817 0.14949599 0.06900999
   vertex 1.5988946E-5 0.15064698 0.070472986
  endloop
 endfacet
 facet normal -0.008504872 -0.45340556 -0.8912637
  outer loop
   vertex 0.213831 0.250471 0.017649978
   vertex 1.5988946E-5 0.15064698 0.070472986
   vertex 2.9996037E-5 0.251122 0.019358993
  endloop
 endfacet
 facet normal 0.7203799 0.108071715 0.6851082
  outer loop
   vertex 0.038100995 0.362164 0.36212
   vertex 0.255024 0.291791 0.14513
   vertex 0.255024 0.362285 0.13400999
  endloop
 endfacet
 facet normal -0.008210068 0.15694407 -0.9875734
  outer loop
   vertex 0.21386899 0.474257 0.017780006
   vertex 0.21384999 0.362375 0.0
   vertex 4.6998262E-5 0.36247298 0.0017929971
  endloop
 endfacet
 facet normal -0.0082611 0.15703945 -0.98755777
  outer loop
   vertex 0.21386899 0.474257 0.017780006
   vertex 4.6998262E-5 0.36247298 0.0017929971
   vertex 6.599724E-5 0.473801 0.019495994
  endloop
 endfacet
 facet normal 0.7203712 -0.31526417 0.6177977
  outer loop
   vertex 0.038100995 0.362164 0.36212
   vertex 0.255024 0.43276697 0.14521
   vertex 0.255024 0.496337 0.17764999
  endloop
 endfacet
 facet normal -0.007999268 0.7074336 -0.70673454
  outer loop
   vertex 0.213902 0.65524197 0.14941
   vertex 0.213886 0.575171 0.06926
   vertex 8.198619E-5 0.57421696 0.070724994
  endloop
 endfacet
 facet normal -0.007947434 0.70736456 -0.7068043
  outer loop
   vertex 0.213902 0.65524197 0.14941
   vertex 8.198619E-5 0.57421696 0.070724994
   vertex 9.699166E-5 0.65389097 0.15046199
  endloop
 endfacet
 facet normal 0.7203863 -0.6181029 0.31463027
  outer loop
   vertex 0.038100995 0.362164 0.36212
   vertex 0.255024 0.546779 0.22813
   vertex 0.255024 0.579153 0.29173
  endloop
 endfacet
 facet normal -0.0078204265 0.9877067 -0.15612249
  outer loop
   vertex 0.21391898 0.72432 0.36225998
   vertex 0.213913 0.706634 0.25037
   vertex 1.07988715E-4 0.705029 0.250926
  endloop
 endfacet
 facet normal -0.007826967 0.9877086 -0.15611027
  outer loop
   vertex 0.21391898 0.72432 0.36225998
   vertex 1.07988715E-4 0.705029 0.250926
   vertex 1.12995505E-4 0.722627 0.362268
  endloop
 endfacet
 facet normal 0.7204166 -0.6849752 -0.10866864
  outer loop
   vertex 0.038100995 0.362164 0.36212
   vertex 0.255024 0.59029496 0.36222
   vertex 0.255024 0.579112 0.43271
  endloop
 endfacet
 facet normal -0.007834948 0.8908878 0.45415598
  outer loop
   vertex 0.213913 0.65511596 0.57508
   vertex 0.21391898 0.706568 0.47415
   vertex 1.12995505E-4 0.70496297 0.47360998
  endloop
 endfacet
 facet normal -0.007844865 0.89087915 0.45417264
  outer loop
   vertex 0.213913 0.65511596 0.57508
   vertex 1.12995505E-4 0.70496297 0.47360998
   vertex 1.0699034E-4 0.653766 0.574035
  endloop
 endfacet
 facet normal 0.7204529 -0.49029863 -0.49046394
  outer loop
   vertex 0.038100995 0.362164 0.36212
   vertex 0.255024 0.546699 0.49629
   vertex 0.255024 0.49622798 0.546744
  endloop
 endfacet
 facet normal -0.008030649 0.45390266 0.8910151
  outer loop
   vertex 0.213886 0.474053 0.706597
   vertex 0.213902 0.574997 0.655174
   vertex 9.699166E-5 0.574043 0.653733
  endloop
 endfacet
 facet normal -0.00802969 0.45390427 0.8910143
  outer loop
   vertex 0.213886 0.474053 0.706597
   vertex 9.699166E-5 0.574043 0.653733
   vertex 8.299947E-5 0.473598 0.704902
  endloop
 endfacet
 facet normal 0.7204785 -0.108472265 -0.6849413
  outer loop
   vertex 0.038100995 0.362164 0.36212
   vertex 0.255024 0.432638 0.57913697
   vertex 0.255024 0.36214998 0.59029996
  endloop
 endfacet
 facet normal -0.0081627555 0.15639523 0.9876608
  outer loop
   vertex 0.21386899 0.36216 0.724315
   vertex 0.213886 0.474053 0.706597
   vertex 8.299947E-5 0.473598 0.704902
  endloop
 endfacet
 facet normal -0.0081587415 0.1564027 0.9876597
  outer loop
   vertex 0.21386899 0.36216 0.724315
   vertex 8.299947E-5 0.473598 0.704902
   vertex 6.4998865E-5 0.36225998 0.722533
  endloop
 endfacet
 facet normal 0.7204668 -0.314778 -0.61793405
  outer loop
   vertex 0.038100995 0.362164 0.36212
   vertex 0.255024 0.49622798 0.546744
   vertex 0.255024 0.432638 0.57913697
  endloop
 endfacet
 facet normal -0.007920339 0.70697516 0.70719403
  outer loop
   vertex 0.213902 0.574997 0.655174
   vertex 0.213913 0.65511596 0.57508
   vertex 1.0699034E-4 0.653766 0.574035
  endloop
 endfacet
 facet normal -0.00792098 0.7069743 0.7071949
  outer loop
   vertex 0.213902 0.574997 0.655174
   vertex 1.0699034E-4 0.653766 0.574035
   vertex 9.699166E-5 0.574043 0.653733
  endloop
 endfacet
 facet normal 0.72043616 -0.61786366 -0.3149862
  outer loop
   vertex 0.038100995 0.362164 0.36212
   vertex 0.255024 0.579112 0.43271
   vertex 0.255024 0.546699 0.49629
  endloop
 endfacet
 facet normal -0.007814505 0.9876167 0.15669104
  outer loop
   vertex 0.21391898 0.706568 0.47415
   vertex 0.21391898 0.72432 0.36225998
   vertex 1.12995505E-4 0.722627 0.362268
  endloop
 endfacet
 facet normal -0.0078097526 0.9876182 0.15668216
  outer loop
   vertex 0.21391898 0.706568 0.47415
   vertex 1.12995505E-4 0.722627 0.362268
   vertex 1.12995505E-4 0.70496297 0.47360998
  endloop
 endfacet
 facet normal 0.7203996 -0.6850542 0.10828261
  outer loop
   vertex 0.038100995 0.362164 0.36212
   vertex 0.255024 0.579153 0.29173
   vertex 0.255024 0.59029496 0.36222
  endloop
 endfacet
 facet normal -0.007863062 0.8911566 -0.45362768
  outer loop
   vertex 0.213913 0.706634 0.25037
   vertex 0.213902 0.65524197 0.14941
   vertex 9.699166E-5 0.65389097 0.15046199
  endloop
 endfacet
 facet normal -0.007869317 0.8911619 -0.4536171
  outer loop
   vertex 0.213913 0.706634 0.25037
   vertex 9.699166E-5 0.65389097 0.15046199
   vertex 1.07988715E-4 0.705029 0.250926
  endloop
 endfacet
 facet normal 0.72037417 -0.49062383 0.4902543
  outer loop
   vertex 0.038100995 0.362164 0.36212
   vertex 0.255024 0.496337 0.17764999
   vertex 0.255024 0.546779 0.22813
  endloop
 endfacet
 facet normal -0.008118401 0.45440924 -0.890756
  outer loop
   vertex 0.213886 0.575171 0.06926
   vertex 0.21386899 0.474257 0.017780006
   vertex 6.599724E-5 0.473801 0.019495994
  endloop
 endfacet
 facet normal -0.008131168 0.4544307 -0.890745
  outer loop
   vertex 0.213886 0.575171 0.06926
   vertex 6.599724E-5 0.473801 0.019495994
   vertex 8.198619E-5 0.57421696 0.070724994
  endloop
 endfacet
 facet normal 0.72037596 -0.108848974 0.68498933
  outer loop
   vertex 0.038100995 0.362164 0.36212
   vertex 0.255024 0.362285 0.13400999
   vertex 0.255024 0.43276697 0.14521
  endloop
 endfacet
 facet normal -0.008369965 -0.15579146 -0.9877545
  outer loop
   vertex 0.21384999 0.362375 0.0
   vertex 0.213831 0.250471 0.017649978
   vertex 2.9996037E-5 0.251122 0.019358993
  endloop
 endfacet
 facet normal -0.008354897 -0.15581964 -0.9877501
  outer loop
   vertex 0.21384999 0.362375 0.0
   vertex 2.9996037E-5 0.251122 0.019358993
   vertex 4.6998262E-5 0.36247298 0.0017929971
  endloop
 endfacet
 facet normal 0.720389 0.3144814 0.6181757
  outer loop
   vertex 0.038100995 0.362164 0.36212
   vertex 0.255024 0.22818099 0.17749
   vertex 0.255024 0.291791 0.14513
  endloop
 endfacet
 facet normal -0.008637299 -0.70657206 -0.7075883
  outer loop
   vertex 0.213817 0.14949599 0.06900999
   vertex 0.21380499 0.06933099 0.14906
   vertex 5.990267E-6 0.070876986 0.150126
  endloop
 endfacet
 facet normal -0.00864572 -0.70656073 -0.7075996
  outer loop
   vertex 0.213817 0.14949599 0.06900999
   vertex 5.990267E-6 0.070876986 0.150126
   vertex 1.5988946E-5 0.15064698 0.070472986
  endloop
 endfacet
 facet normal 0.7204259 0.6176836 0.3153625
  outer loop
   vertex 0.038100995 0.362164 0.36212
   vertex 0.255024 0.14523 0.29147
   vertex 0.255024 0.17768098 0.22791
  endloop
 endfacet
 facet normal -0.008747453 -0.9875131 -0.15729402
  outer loop
   vertex 0.21379998 0.017818987 0.24995999
   vertex 0.21379998 0.0 0.36183
   vertex 0.0 0.0018909872 0.361848
  endloop
 endfacet
 facet normal -0.0087283775 -0.98751897 -0.15725839
  outer loop
   vertex 0.21379998 0.017818987 0.24995999
   vertex 0.0 0.0018909872 0.361848
   vertex 0.0 0.019620001 0.25051698
  endloop
 endfacet
 facet normal 0.72045773 0.6850612 -0.10785099
  outer loop
   vertex 0.038100995 0.362164 0.36212
   vertex 0.255024 0.14510499 0.43245
   vertex 0.255024 0.134006 0.36194998
  endloop
 endfacet
 facet normal -0.0086688185 -0.8914203 0.45309445
  outer loop
   vertex 0.213806 0.017618984 0.47373998
   vertex 0.213817 0.068951994 0.574733
   vertex 1.5988946E-5 0.070501 0.57369
  endloop
 endfacet
 facet normal -0.008663864 -0.89141613 0.45310286
  outer loop
   vertex 0.213806 0.017618984 0.47373998
   vertex 1.5988946E-5 0.070501 0.57369
   vertex 5.990267E-6 0.019422978 0.47320098
  endloop
 endfacet
 facet normal 0.72048295 0.49086404 -0.48985386
  outer loop
   vertex 0.038100995 0.362164 0.36212
   vertex 0.255024 0.22785299 0.54658496
   vertex 0.255024 0.17744198 0.49607
  endloop
 endfacet
 facet normal -0.008445058 -0.454947 0.8904785
  outer loop
   vertex 0.21383199 0.14897498 0.654922
   vertex 0.21384999 0.24985899 0.706464
   vertex 4.6998262E-5 0.250512 0.70476997
  endloop
 endfacet
 facet normal -0.0084533775 -0.45496097 0.8904713
  outer loop
   vertex 0.21383199 0.14897498 0.654922
   vertex 4.6998262E-5 0.250512 0.70476997
   vertex 2.9996037E-5 0.15012899 0.65348196
  endloop
 endfacet
 facet normal 0.72045326 0.1088757 -0.68490386
  outer loop
   vertex 0.038100995 0.362164 0.36212
   vertex 0.255024 0.36214998 0.59029996
   vertex 0.255024 0.291405 0.579054
  endloop
 endfacet
endsolid