solid shape
 facet normal 1.0 0.0 0.0
  outer loop
   vertex 0.220821 0.574553 0.579201
   vertex 0.220821 0.14637598 0.579201
   vertex 0.220821 0.14637598 0.148262
  endloop
 endfacet
 facet normal 1.0 0.0 0.0
  outer loop
   vertex 0.220821 0.574553 0.579201
   vertex 0.220821 0.14637598 0.148262
   vertex 0.220821 0.574553 0.148262
  endloop
 endfacet
 facet normal 0.70783186 -0.111007765 0.697604
  outer loop
   vertex 0.23386198 0.256145 0.687159
   vertex 0.233879 0.36214998 0.70401
   vertex 0.21386899 0.36216 0.724315
  endloop
 endfacet
 facet normal 0.70782965 -0.11100889 0.697606
  outer loop
   vertex 0.23386198 0.256145 0.687159
   vertex 0.21386899 0.36216 0.724315
   vertex 0.21384999 0.24985899 0.706464
  endloop
 endfacet
 facet normal -1.0 1.5789586E-4 2.2464543E-5
  outer loop
   vertex 2.9996037E-5 0.15012899 0.65348196
   vertex 4.6998262E-5 0.250512 0.70476997
   vertex 5.699694E-5 0.362483 0.36284998
  endloop
 endfacet
 facet normal 0.9827073 -0.084243976 0.16489168
  outer loop
   vertex 0.255024 0.22785299 0.54658496
   vertex 0.255024 0.291405 0.579054
   vertex 0.23386198 0.256145 0.687159
  endloop
 endfacet
 facet normal 0.9826848 -0.0844375 0.16492721
  outer loop
   vertex 0.255024 0.22785299 0.54658496
   vertex 0.23386198 0.256145 0.687159
   vertex 0.233845 0.16091798 0.638507
  endloop
 endfacet
 facet normal 0.70773107 -0.50014675 0.49896896
  outer loop
   vertex 0.23382999 0.085381985 0.562814
   vertex 0.233845 0.16091798 0.638507
   vertex 0.21383199 0.14897498 0.654922
  endloop
 endfacet
 facet normal 0.7077508 -0.5001277 0.49896005
  outer loop
   vertex 0.23382999 0.085381985 0.562814
   vertex 0.21383199 0.14897498 0.654922
   vertex 0.213817 0.068951994 0.574733
  endloop
 endfacet
 facet normal -1.0 1.5529623E-4 2.0563979E-5
  outer loop
   vertex 5.990267E-6 0.019422978 0.47320098
   vertex 1.5988946E-5 0.070501 0.57369
   vertex 5.699694E-5 0.362483 0.36284998
  endloop
 endfacet
 facet normal 0.98265606 -0.16530882 0.08402374
  outer loop
   vertex 0.255024 0.14510499 0.43245
   vertex 0.255024 0.17744198 0.49607
   vertex 0.23382999 0.085381985 0.562814
  endloop
 endfacet
 facet normal 0.982642 -0.1654195 0.08397073
  outer loop
   vertex 0.255024 0.14510499 0.43245
   vertex 0.23382999 0.085381985 0.562814
   vertex 0.233819 0.036927998 0.46749
  endloop
 endfacet
 facet normal 0.7076888 -0.69793147 0.10985588
  outer loop
   vertex 0.23381498 0.020295978 0.36185
   vertex 0.233819 0.036927998 0.46749
   vertex 0.213806 0.017618984 0.47373998
  endloop
 endfacet
 facet normal 0.70765513 -0.69796664 0.10984902
  outer loop
   vertex 0.23381498 0.020295978 0.36185
   vertex 0.213806 0.017618984 0.47373998
   vertex 0.21379998 0.0 0.36183
  endloop
 endfacet
 facet normal -1.0 1.5799499E-4 2.5160063E-5
  outer loop
   vertex 0.0 0.019620001 0.25051698
   vertex 0.0 0.0018909872 0.361848
   vertex 5.699694E-5 0.362483 0.36284998
  endloop
 endfacet
 facet normal 0.98263246 -0.18325329 -0.02918325
  outer loop
   vertex 0.255024 0.14523 0.29147
   vertex 0.255024 0.134006 0.36194998
   vertex 0.23381498 0.020295978 0.36185
  endloop
 endfacet
 facet normal 0.98263043 -0.18326193 -0.029199194
  outer loop
   vertex 0.255024 0.14523 0.29147
   vertex 0.23381498 0.020295978 0.36185
   vertex 0.233814 0.03711599 0.25625
  endloop
 endfacet
 facet normal 0.7076884 -0.6292769 -0.3212284
  outer loop
   vertex 0.233819 0.08573899 0.16101
   vertex 0.233814 0.03711599 0.25625
   vertex 0.21379998 0.017818987 0.24995999
  endloop
 endfacet
 facet normal 0.7076927 -0.6292738 -0.32122514
  outer loop
   vertex 0.233819 0.08573899 0.16101
   vertex 0.21379998 0.017818987 0.24995999
   vertex 0.21380499 0.06933099 0.14906
  endloop
 endfacet
 facet normal -1.0 1.539892E-4 2.8687411E-5
  outer loop
   vertex 1.5988946E-5 0.15064698 0.070472986
   vertex 5.990267E-6 0.070876986 0.150126
   vertex 5.699694E-5 0.362483 0.36284998
  endloop
 endfacet
 facet normal 0.9826368 -0.13109185 -0.13129985
  outer loop
   vertex 0.255024 0.22818099 0.17749
   vertex 0.255024 0.17768098 0.22791
   vertex 0.233819 0.08573899 0.16101
  endloop
 endfacet
 facet normal 0.9826531 -0.13111044 -0.13116002
  outer loop
   vertex 0.255024 0.22818099 0.17749
   vertex 0.233819 0.08573899 0.16101
   vertex 0.23382999 0.16140999 0.08544999
  endloop
 endfacet
 facet normal 0.70785624 -0.3203774 -0.62952197
  outer loop
   vertex 0.233845 0.256723 0.036960006
   vertex 0.23382999 0.16140999 0.08544999
   vertex 0.213817 0.14949599 0.06900999
  endloop
 endfacet
 facet normal 0.7076634 -0.32040244 -0.629726
  outer loop
   vertex 0.233845 0.256723 0.036960006
   vertex 0.213817 0.14949599 0.06900999
   vertex 0.213831 0.250471 0.017649978
  endloop
 endfacet
 facet normal -1.0 1.5705833E-4 2.7688442E-5
  outer loop
   vertex 4.6998262E-5 0.36247298 0.0017929971
   vertex 2.9996037E-5 0.251122 0.019358993
   vertex 5.699694E-5 0.362483 0.36284998
  endloop
 endfacet
 facet normal 0.98268104 -0.028873773 -0.18304195
  outer loop
   vertex 0.255024 0.362285 0.13400999
   vertex 0.255024 0.291791 0.14513
   vertex 0.233845 0.256723 0.036960006
  endloop
 endfacet
 facet normal 0.9827029 -0.02900562 -0.18290332
  outer loop
   vertex 0.255024 0.362285 0.13400999
   vertex 0.233845 0.256723 0.036960006
   vertex 0.23386198 0.362353 0.0203
  endloop
 endfacet
 facet normal 0.70781577 0.11079973 -0.6976534
  outer loop
   vertex 0.233879 0.46796298 0.037090003
   vertex 0.23386198 0.362353 0.0203
   vertex 0.21384999 0.362375 0.0
  endloop
 endfacet
 facet normal 0.7079529 0.11072878 -0.69752556
  outer loop
   vertex 0.233879 0.46796298 0.037090003
   vertex 0.21384999 0.362375 0.0
   vertex 0.21386899 0.474257 0.017780006
  endloop
 endfacet
 facet normal -1.0 1.4810369E-4 2.1803462E-5
  outer loop
   vertex 8.198619E-5 0.57421696 0.070724994
   vertex 6.599724E-5 0.473801 0.019495994
   vertex 5.699694E-5 0.362483 0.36284998
  endloop
 endfacet
 facet normal 0.9827323 0.08410516 -0.16481407
  outer loop
   vertex 0.255024 0.496337 0.17764999
   vertex 0.255024 0.43276697 0.14521
   vertex 0.233879 0.46796298 0.037090003
  endloop
 endfacet
 facet normal 0.982759 0.083875455 -0.1647717
  outer loop
   vertex 0.255024 0.496337 0.17764999
   vertex 0.233879 0.46796298 0.037090003
   vertex 0.23389599 0.563218 0.08567998
  endloop
 endfacet
 facet normal 0.70801944 0.49950802 -0.49919957
  outer loop
   vertex 0.233911 0.6388 0.16132998
   vertex 0.23389599 0.563218 0.08567998
   vertex 0.213886 0.575171 0.06926
  endloop
 endfacet
 facet normal 0.7079365 0.49958822 -0.499237
  outer loop
   vertex 0.233911 0.6388 0.16132998
   vertex 0.213886 0.575171 0.06926
   vertex 0.213902 0.65524197 0.14941
  endloop
 endfacet
 facet normal -1.0 1.5829917E-4 2.8885448E-5
  outer loop
   vertex 1.07988715E-4 0.705029 0.250926
   vertex 9.699166E-5 0.65389097 0.15046199
   vertex 5.699694E-5 0.362483 0.36284998
  endloop
 endfacet
 facet normal 0.9827854 0.16464758 -0.08380983
  outer loop
   vertex 0.255024 0.579153 0.29173
   vertex 0.255024 0.546779 0.22813
   vertex 0.233911 0.6388 0.16132998
  endloop
 endfacet
 facet normal 0.9827988 0.16454168 -0.08386045
  outer loop
   vertex 0.255024 0.579153 0.29173
   vertex 0.233911 0.6388 0.16132998
   vertex 0.23392099 0.687311 0.25663
  endloop
 endfacet
 facet normal 0.7080855 0.69746387 -0.11026898
  outer loop
   vertex 0.23392698 0.704005 0.36225998
   vertex 0.23392099 0.687311 0.25663
   vertex 0.213913 0.706634 0.25037
  endloop
 endfacet
 facet normal 0.7081242 0.6974233 -0.11027686
  outer loop
   vertex 0.23392698 0.704005 0.36225998
   vertex 0.213913 0.706634 0.25037
   vertex 0.21391898 0.72432 0.36225998
  endloop
 endfacet
 facet normal -1.0 1.5552925E-4 2.4674171E-5
  outer loop
   vertex 1.12995505E-4 0.70496297 0.47360998
   vertex 1.12995505E-4 0.722627 0.362268
   vertex 5.699694E-5 0.362483 0.36284998
  endloop
 endfacet
 facet normal 0.9828111 0.18233405 0.028926587
  outer loop
   vertex 0.255024 0.579112 0.43271
   vertex 0.255024 0.59029496 0.36222
   vertex 0.23392698 0.704005 0.36225998
  endloop
 endfacet
 facet normal 0.9828105 0.1823365 0.028931115
  outer loop
   vertex 0.255024 0.579112 0.43271
   vertex 0.23392698 0.704005 0.36225998
   vertex 0.23392698 0.687248 0.46787
  endloop
 endfacet
 facet normal 0.7081032 0.6290656 0.32072788
  outer loop
   vertex 0.23392099 0.638681 0.563141
   vertex 0.23392698 0.687248 0.46787
   vertex 0.21391898 0.706568 0.47415
  endloop
 endfacet
 facet normal 0.70810586 0.6290636 0.3207258
  outer loop
   vertex 0.23392099 0.638681 0.563141
   vertex 0.21391898 0.706568 0.47415
   vertex 0.213913 0.65511596 0.57508
  endloop
 endfacet
 facet normal -1.0 1.5220465E-4 2.679531E-5
  outer loop
   vertex 9.699166E-5 0.574043 0.653733
   vertex 1.0699034E-4 0.653766 0.574035
   vertex 5.699694E-5 0.362483 0.36284998
  endloop
 endfacet
 facet normal 0.9828006 0.1305591 0.13060313
  outer loop
   vertex 0.255024 0.49622798 0.546744
   vertex 0.255024 0.546699 0.49629
   vertex 0.23392099 0.638681 0.563141
  endloop
 endfacet
 facet normal 0.982788 0.13054462 0.13071267
  outer loop
   vertex 0.255024 0.49622798 0.546744
   vertex 0.23392099 0.638681 0.563141
   vertex 0.233911 0.563055 0.63874495
  endloop
 endfacet
 facet normal 0.7079927 0.3204704 0.62932104
  outer loop
   vertex 0.23389599 0.46776998 0.687284
   vertex 0.233911 0.563055 0.63874495
   vertex 0.213902 0.574997 0.655174
  endloop
 endfacet
 facet normal 0.70800865 0.3204683 0.6293043
  outer loop
   vertex 0.23389599 0.46776998 0.687284
   vertex 0.213902 0.574997 0.655174
   vertex 0.213886 0.474053 0.706597
  endloop
 endfacet
 facet normal -1.0 1.6521443E-4 2.234959E-5
  outer loop
   vertex 6.4998865E-5 0.36225998 0.722533
   vertex 8.299947E-5 0.473598 0.704902
   vertex 5.699694E-5 0.362483 0.36284998
  endloop
 endfacet
 facet normal 0.9827616 0.028918147 0.18260173
  outer loop
   vertex 0.255024 0.36214998 0.59029996
   vertex 0.255024 0.432638 0.57913697
   vertex 0.23389599 0.46776998 0.687284
  endloop
 endfacet
 facet normal 0.98273885 0.028781584 0.18274552
  outer loop
   vertex 0.255024 0.36214998 0.59029996
   vertex 0.23389599 0.46776998 0.687284
   vertex 0.233879 0.36214998 0.70401
  endloop
 endfacet
 facet normal 0.7079447 0.110357165 0.69759274
  outer loop
   vertex 0.233879 0.36214998 0.70401
   vertex 0.23389599 0.46776998 0.687284
   vertex 0.213886 0.474053 0.706597
  endloop
 endfacet
 facet normal 0.70793813 0.110355824 0.69759953
  outer loop
   vertex 0.233879 0.36214998 0.70401
   vertex 0.213886 0.474053 0.706597
   vertex 0.21386899 0.36216 0.724315
  endloop
 endfacet
 facet normal 0.9827853 0.083859496 0.16462286
  outer loop
   vertex 0.255024 0.432638 0.57913697
   vertex 0.255024 0.49622798 0.546744
   vertex 0.233911 0.563055 0.63874495
  endloop
 endfacet
 facet normal 0.98276556 0.083785035 0.16477875
  outer loop
   vertex 0.255024 0.432638 0.57913697
   vertex 0.233911 0.563055 0.63874495
   vertex 0.23389599 0.46776998 0.687284
  endloop
 endfacet
 facet normal -1.0 1.5275009E-4 2.6398606E-5
  outer loop
   vertex 8.299947E-5 0.473598 0.704902
   vertex 9.699166E-5 0.574043 0.653733
   vertex 5.699694E-5 0.362483 0.36284998
  endloop
 endfacet
 facet normal 0.7080706 0.49919784 0.49943712
  outer loop
   vertex 0.233911 0.563055 0.63874495
   vertex 0.23392099 0.638681 0.563141
   vertex 0.213913 0.65511596 0.57508
  endloop
 endfacet
 facet normal 0.7080449 0.4992095 0.49946198
  outer loop
   vertex 0.233911 0.563055 0.63874495
   vertex 0.213913 0.65511596 0.57508
   vertex 0.213902 0.574997 0.655174
  endloop
 endfacet
 facet normal 0.98281 0.16447932 0.08385134
  outer loop
   vertex 0.255024 0.546699 0.49629
   vertex 0.255024 0.579112 0.43271
   vertex 0.23392698 0.687248 0.46787
  endloop
 endfacet
 facet normal 0.98280257 0.1644912 0.08391569
  outer loop
   vertex 0.255024 0.546699 0.49629
   vertex 0.23392698 0.687248 0.46787
   vertex 0.23392099 0.638681 0.563141
  endloop
 endfacet
 facet normal -1.0 1.5696803E-4 2.0225281E-5
  outer loop
   vertex 1.0699034E-4 0.653766 0.574035
   vertex 1.12995505E-4 0.70496297 0.47360998
   vertex 5.699694E-5 0.362483 0.36284998
  endloop
 endfacet
 facet normal 0.70809424 0.6973938 0.11065461
  outer loop
   vertex 0.23392698 0.687248 0.46787
   vertex 0.23392698 0.704005 0.36225998
   vertex 0.21391898 0.72432 0.36225998
  endloop
 endfacet
 facet normal 0.708119 0.69737077 0.11064186
  outer loop
   vertex 0.23392698 0.687248 0.46787
   vertex 0.21391898 0.72432 0.36225998
   vertex 0.21391898 0.706568 0.47415
  endloop
 endfacet
 facet normal 0.9828015 0.18240061 -0.028831033
  outer loop
   vertex 0.255024 0.59029496 0.36222
   vertex 0.255024 0.579153 0.29173
   vertex 0.23392099 0.687311 0.25663
  endloop
 endfacet
 facet normal 0.9828089 0.18235396 -0.028875373
  outer loop
   vertex 0.255024 0.59029496 0.36222
   vertex 0.23392099 0.687311 0.25663
   vertex 0.23392698 0.704005 0.36225998
  endloop
 endfacet
 facet normal -1.0 1.5552233E-4 2.0386846E-5
  outer loop
   vertex 1.12995505E-4 0.722627 0.362268
   vertex 1.07988715E-4 0.705029 0.250926
   vertex 5.699694E-5 0.362483 0.36284998
  endloop
 endfacet
 facet normal 0.70801514 0.6293213 -0.32042032
  outer loop
   vertex 0.23392099 0.687311 0.25663
   vertex 0.233911 0.6388 0.16132998
   vertex 0.213902 0.65524197 0.14941
  endloop
 endfacet
 facet normal 0.7080209 0.6293152 -0.3204196
  outer loop
   vertex 0.23392099 0.687311 0.25663
   vertex 0.213902 0.65524197 0.14941
   vertex 0.213913 0.706634 0.25037
  endloop
 endfacet
 facet normal 0.98276365 0.13076964 -0.13067113
  outer loop
   vertex 0.255024 0.546779 0.22813
   vertex 0.255024 0.496337 0.17764999
   vertex 0.23389599 0.563218 0.08567998
  endloop
 endfacet
 facet normal 0.9827816 0.13061416 -0.13069174
  outer loop
   vertex 0.255024 0.546779 0.22813
   vertex 0.23389599 0.563218 0.08567998
   vertex 0.233911 0.6388 0.16132998
  endloop
 endfacet
 facet normal -1.0 1.5877465E-4 2.9537825E-5
  outer loop
   vertex 9.699166E-5 0.65389097 0.15046199
   vertex 8.198619E-5 0.57421696 0.070724994
   vertex 5.699694E-5 0.362483 0.36284998
  endloop
 endfacet
 facet normal 0.7080202 0.3207933 -0.62912565
  outer loop
   vertex 0.23389599 0.563218 0.08567998
   vertex 0.233879 0.46796298 0.037090003
   vertex 0.21386899 0.474257 0.017780006
  endloop
 endfacet
 facet normal 0.7079521 0.32084644 -0.6291751
  outer loop
   vertex 0.23389599 0.563218 0.08567998
   vertex 0.21386899 0.474257 0.017780006
   vertex 0.213886 0.575171 0.06926
  endloop
 endfacet
 facet normal 0.98270756 0.029059056 -0.18286946
  outer loop
   vertex 0.255024 0.43276697 0.14521
   vertex 0.255024 0.362285 0.13400999
   vertex 0.23386198 0.362353 0.0203
  endloop
 endfacet
 facet normal 0.98272824 0.028900841 -0.18278378
  outer loop
   vertex 0.255024 0.43276697 0.14521
   vertex 0.23386198 0.362353 0.0203
   vertex 0.233879 0.46796298 0.037090003
  endloop
 endfacet
 facet normal -1.0 1.662548E-4 2.7688187E-5
  outer loop
   vertex 6.599724E-5 0.473801 0.019495994
   vertex 4.6998262E-5 0.36247298 0.0017929971
   vertex 5.699694E-5 0.362483 0.36284998
  endloop
 endfacet
 facet normal 0.7077203 -0.11017878 -0.6978487
  outer loop
   vertex 0.23386198 0.362353 0.0203
   vertex 0.233845 0.256723 0.036960006
   vertex 0.213831 0.250471 0.017649978
  endloop
 endfacet
 facet normal 0.7077448 -0.11018378 -0.6978229
  outer loop
   vertex 0.23386198 0.362353 0.0203
   vertex 0.213831 0.250471 0.017649978
   vertex 0.21384999 0.362375 0.0
  endloop
 endfacet
 facet normal 0.9826562 -0.08408125 -0.16527838
  outer loop
   vertex 0.255024 0.291791 0.14513
   vertex 0.255024 0.22818099 0.17749
   vertex 0.23382999 0.16140999 0.08544999
  endloop
 endfacet
 facet normal 0.9826766 -0.084157825 -0.1651184
  outer loop
   vertex 0.255024 0.291791 0.14513
   vertex 0.23382999 0.16140999 0.08544999
   vertex 0.233845 0.256723 0.036960006
  endloop
 endfacet
 facet normal -1.0 1.5399903E-4 2.8680282E-5
  outer loop
   vertex 2.9996037E-5 0.251122 0.019358993
   vertex 1.5988946E-5 0.15064698 0.070472986
   vertex 5.699694E-5 0.362483 0.36284998
  endloop
 endfacet
 facet normal 0.7077443 -0.4992335 -0.4998639
  outer loop
   vertex 0.23382999 0.16140999 0.08544999
   vertex 0.233819 0.08573899 0.16101
   vertex 0.21380499 0.06933099 0.14906
  endloop
 endfacet
 facet normal 0.707782 -0.4992166 -0.49982753
  outer loop
   vertex 0.23382999 0.16140999 0.08544999
   vertex 0.21380499 0.06933099 0.14906
   vertex 0.213817 0.14949599 0.06900999
  endloop
 endfacet
 facet normal 0.9826293 -0.16528347 -0.0843866
  outer loop
   vertex 0.255024 0.17768098 0.22791
   vertex 0.255024 0.14523 0.29147
   vertex 0.233814 0.03711599 0.25625
  endloop
 endfacet
 facet normal 0.9826365 -0.16527215 -0.0843251
  outer loop
   vertex 0.255024 0.17768098 0.22791
   vertex 0.233814 0.03711599 0.25625
   vertex 0.233819 0.08573899 0.16101
  endloop
 endfacet
 facet normal -1.0 1.59163E-4 2.1595051E-5
  outer loop
   vertex 5.990267E-6 0.070876986 0.150126
   vertex 0.0 0.019620001 0.25051698
   vertex 5.699694E-5 0.362483 0.36284998
  endloop
 endfacet
 facet normal 0.7076614 -0.69775504 -0.11114531
  outer loop
   vertex 0.233814 0.03711599 0.25625
   vertex 0.23381498 0.020295978 0.36185
   vertex 0.21379998 0.0 0.36183
  endloop
 endfacet
 facet normal 0.70767444 -0.6977429 -0.11113857
  outer loop
   vertex 0.233814 0.03711599 0.25625
   vertex 0.21379998 0.0 0.36183
   vertex 0.21379998 0.017818987 0.24995999
  endloop
 endfacet
 facet normal 0.9826386 -0.1832722 0.028853007
  outer loop
   vertex 0.255024 0.134006 0.36194998
   vertex 0.255024 0.14510499 0.43245
   vertex 0.233819 0.036927998 0.46749
  endloop
 endfacet
 facet normal 0.98263353 -0.1833045 0.028822284
  outer loop
   vertex 0.255024 0.134006 0.36194998
   vertex 0.233819 0.036927998 0.46749
   vertex 0.23381498 0.020295978 0.36185
  endloop
 endfacet
 facet normal -1.0 1.5798456E-4 2.8921397E-5
  outer loop
   vertex 0.0 0.0018909872 0.361848
   vertex 5.990267E-6 0.019422978 0.47320098
   vertex 5.699694E-5 0.362483 0.36284998
  endloop
 endfacet
 facet normal 0.7077061 -0.629845 0.3200738
  outer loop
   vertex 0.233819 0.036927998 0.46749
   vertex 0.23382999 0.085381985 0.562814
   vertex 0.213817 0.068951994 0.574733
  endloop
 endfacet
 facet normal 0.7076778 -0.629875 0.32007754
  outer loop
   vertex 0.233819 0.036927998 0.46749
   vertex 0.213817 0.068951994 0.574733
   vertex 0.213806 0.017618984 0.47373998
  endloop
 endfacet
 facet normal 0.9826802 -0.13116817 0.13089822
  outer loop
   vertex 0.255024 0.17744198 0.49607
   vertex 0.255024 0.22785299 0.54658496
   vertex 0.233845 0.16091798 0.638507
  endloop
 endfacet
 facet normal 0.9826601 -0.13134229 0.13087504
  outer loop
   vertex 0.255024 0.17744198 0.49607
   vertex 0.233845 0.16091798 0.638507
   vertex 0.23382999 0.085381985 0.562814
  endloop
 endfacet
 facet normal -1.0 1.5529795E-4 2.0566338E-5
  outer loop
   vertex 1.5988946E-5 0.070501 0.57369
   vertex 2.9996037E-5 0.15012899 0.65348196
   vertex 5.699694E-5 0.362483 0.36284998
  endloop
 endfacet
 facet normal 0.70778924 -0.3214987 0.62902534
  outer loop
   vertex 0.233845 0.16091798 0.638507
   vertex 0.23386198 0.256145 0.687159
   vertex 0.21384999 0.24985899 0.706464
  endloop
 endfacet
 facet normal 0.7077922 -0.32149643 0.62902325
  outer loop
   vertex 0.233845 0.16091798 0.638507
   vertex 0.21384999 0.24985899 0.706464
   vertex 0.21383199 0.14897498 0.654922
  endloop
 endfacet
 facet normal 0.9827313 -0.029049883 0.18274407
  outer loop
   vertex 0.255024 0.291405 0.579054
   vertex 0.255024 0.36214998 0.59029996
   vertex 0.233879 0.36214998 0.70401
  endloop
 endfacet
 facet normal 0.9827087 -0.029222464 0.182838
  outer loop
   vertex 0.255024 0.291405 0.579054
   vertex 0.233879 0.36214998 0.70401
   vertex 0.23386198 0.256145 0.687159
  endloop
 endfacet
 facet normal -1.0 1.5753027E-4 2.2344826E-5
  outer loop
   vertex 4.6998262E-5 0.250512 0.70476997
   vertex 6.4998865E-5 0.36225998 0.722533
   vertex 5.699694E-5 0.362483 0.36284998
  endloop
 endfacet
 facet normal -0.008304523 -0.15697896 0.987567
  outer loop
   vertex 0.21384999 0.24985899 0.706464
   vertex 0.21386899 0.36216 0.724315
   vertex 6.4998865E-5 0.36225998 0.722533
  endloop
 endfacet
 facet normal -0.008304238 -0.15697844 0.98756707
  outer loop
   vertex 0.21384999 0.24985899 0.706464
   vertex 6.4998865E-5 0.36225998 0.722533
   vertex 4.6998262E-5 0.250512 0.70476997
  endloop
 endfacet
 facet normal 0.72048694 0.31550422 -0.61754
  outer loop
   vertex 0.038100995 0.362164 0.36212
   vertex 0.255024 0.291405 0.579054
   vertex 0.255024 0.22785299 0.54658496
  endloop
 endfacet
 facet normal -0.008578018 -0.7078122 0.7063486
  outer loop
   vertex 0.213817 0.068951994 0.574733
   vertex 0.21383199 0.14897498 0.654922
   vertex 2.9996037E-5 0.15012899 0.65348196
  endloop
 endfacet
 facet normal -0.008574043 -0.70780694 0.70635384
  outer loop
   vertex 0.213817 0.068951994 0.574733
   vertex 2.9996037E-5 0.15012899 0.65348196
   vertex 1.5988946E-5 0.070501 0.57369
  endloop
 endfacet
 facet normal 0.7204729 0.6182083 -0.314225
  outer loop
   vertex 0.038100995 0.362164 0.36212
   vertex 0.255024 0.17744198 0.49607
   vertex 0.255024 0.14510499 0.43245
  endloop
 endfacet
 facet normal -0.008726845 -0.9877945 0.15551774
  outer loop
   vertex 0.21379998 0.0 0.36183
   vertex 0.213806 0.017618984 0.47373998
   vertex 5.990267E-6 0.019422978 0.47320098
  endloop
 endfacet
 facet normal -0.008723601 -0.9877937 0.15552384
  outer loop
   vertex 0.21379998 0.0 0.36183
   vertex 5.990267E-6 0.019422978 0.47320098
   vertex 0.0 0.0018909872 0.361848
  endloop
 endfacet
 facet normal 0.7204422 0.6848848 0.10906857
  outer loop
   vertex 0.038100995 0.362164 0.36212
   vertex 0.255024 0.134006 0.36194998
   vertex 0.255024 0.14523 0.29147
  endloop
 endfacet
 facet normal -0.008686902 -0.8906122 -0.45468056
  outer loop
   vertex 0.21380499 0.06933099 0.14906
   vertex 0.21379998 0.017818987 0.24995999
   vertex 0.0 0.019620001 0.25051698
  endloop
 endfacet
 facet normal -0.008707153 -0.89059466 -0.4547146
  outer loop
   vertex 0.21380499 0.06933099 0.14906
   vertex 0.0 0.019620001 0.25051698
   vertex 5.990267E-6 0.070876986 0.150126
  endloop
 endfacet
 facet normal 0.72040564 0.49002704 0.49080458
  outer loop
   vertex 0.038100995 0.362164 0.36212
   vertex 0.255024 0.17768098 0.22791
   vertex 0.255024 0.22818099 0.17749
  endloop
 endfacet
 facet normal -0.008539522 -0.4533469 -0.8912932
  outer loop
   vertex 0.213831 0.250471 0.017649978
   vertex 0.213817 0.14949599 0.06900999
   vertex 1.5988946E-5 0.15064698 0.070472986
  endloop
 endfacet
 facet normal -0.008504872 -0.45340556 -0.8912637
  outer loop
   vertex 0.213831 0.250471 0.017649978
   vertex 1.5988946E-5 0.15064698 0.070472986
   vertex 2.9996037E-5 0.251122 0.019358993
  endloop
 endfacet
 facet normal 0.7203799 0.108071715 0.6851082
  outer loop
   vertex 0.038100995 0.362164 0.36212
   vertex 0.255024 0.291791 0.14513
   vertex 0.255024 0.362285 0.13400999
  endloop
 endfacet
 facet normal -0.008210068 0.15694407 -0.9875734
  outer loop
   vertex 0.21386899 0.474257 0.017780006
   vertex 0.21384999 0.362375 0.0
   vertex 4.6998262E-5 0.36247298 0.0017929971
  endloop
 endfacet
 facet normal -0.0082611 0.15703945 -0.98755777
  outer loop
   vertex 0.21386899 0.474257 0.017780006
   vertex 4.6998262E-5 0.36247298 0.0017929971
   vertex 6.599724E-5 0.473801 0.019495994
  endloop
 endfacet
 facet normal 0.7203712 -0.31526417 0.6177977
  outer loop
   vertex 0.038100995 0.362164 0.36212
   vertex 0.255024 0.43276697 0.14521
   vertex 0.255024 0.496337 0.17764999
  endloop
 endfacet
 facet normal -0.007999268 0.7074336 -0.70673454
  outer loop
   vertex 0.213902 0.65524197 0.14941
   vertex 0.213886 0.575171 0.06926
   vertex 8.198619E-5 0.57421696 0.070724994
  endloop
 endfacet
 facet normal -0.007947434 0.70736456 -0.7068043
  outer loop
   vertex 0.213902 0.65524197 0.14941
   vertex 8.198619E-5 0.57421696 0.070724994
   vertex 9.699166E-5 0.65389097 0.15046199
  endloop
 endfacet
 facet normal 0.7203863 -0.6181029 0.31463027
  outer loop
   vertex 0.038100995 0.362164 0.36212
   vertex 0.255024 0.546779 0.22813
   vertex 0.255024 0.579153 0.29173
  endloop
 endfacet
 facet normal -0.0078204265 0.9877067 -0.15612249
  outer loop
   vertex 0.21391898 0.72432 0.36225998
   vertex 0.213913 0.706634 0.25037
   vertex 1.07988715E-4 0.705029 0.250926
  endloop
 endfacet
 facet normal -0.007826967 0.9877086 -0.15611027
  outer loop
   vertex 0.21391898 0.72432 0.36225998
   vertex 1.07988715E-4 0.705029 0.250926
   vertex 1.12995505E-4 0.722627 0.362268
  endloop
 endfacet
 facet normal 0.7204166 -0.6849752 -0.10866864
  outer loop
   vertex 0.038100995 0.362164 0.36212
   vertex 0.255024 0.59029496 0.36222
   vertex 0.255024 0.579112 0.43271
  endloop
 endfacet
 facet normal -0.007834948 0.8908878 0.45415598
  outer loop
   vertex 0.213913 0.65511596 0.57508
   vertex 0.21391898 0.706568 0.47415
   vertex 1.12995505E-4 0.70496297 0.47360998
  endloop
 endfacet
 facet normal -0.007844865 0.89087915 0.45417264
  outer loop
   vertex 0.213913 0.65511596 0.57508
   vertex 1.12995505E-4 0.70496297 0.47360998
   vertex 1.0699034E-4 0.653766 0.574035
  endloop
 endfacet
 facet normal 0.7204529 -0.49029863 -0.49046394
  outer loop
   vertex 0.038100995 0.362164 0.36212
   vertex 0.255024 0.546699 0.49629
   vertex 0.255024 0.49622798 0.546744
  endloop
 endfacet
 facet normal -0.008030649 0.45390266 0.8910151
  outer loop
   vertex 0.213886 0.474053 0.706597
   vertex 0.213902 0.574997 0.655174
   vertex 9.699166E-5 0.574043 0.653733
  endloop
 endfacet
 facet normal -0.00802969 0.45390427 0.8910143
  outer loop
   vertex 0.213886 0.474053 0.706597
   vertex 9.699166E-5 0.574043 0.653733
   vertex 8.299947E-5 0.473598 0.704902
  endloop
 endfacet
 facet normal 0.7204785 -0.108472265 -0.6849413
  outer loop
   vertex 0.038100995 0.362164 0.36212
   vertex 0.255024 0.432638 0.57913697
   vertex 0.255024 0.36214998 0.59029996
  endloop
 endfacet
 facet normal -0.0081627555 0.15639523 0.9876608
  outer loop
   vertex 0.21386899 0.36216 0.724315
   vertex 0.213886 0.474053 0.706597
   vertex 8.299947E-5 0.473598 0.704902
  endloop
 endfacet
 facet normal -0.0081587415 0.1564027 0.9876597
  outer loop
   vertex 0.21386899 0.36216 0.724315
   vertex 8.299947E-5 0.473598 0.704902
   vertex 6.4998865E-5 0.36225998 0.722533
  endloop
 endfacet
 facet normal 0.7204668 -0.314778 -0.61793405
  outer loop
   vertex 0.038100995 0.362164 0.36212
   vertex 0.255024 0.49622798 0.546744
   vertex 0.255024 0.432638 0.57913697
  endloop
 endfacet
 facet normal -0.007920339 0.70697516 0.70719403
  outer loop
   vertex 0.213902 0.574997 0.655174
   vertex 0.213913 0.65511596 0.57508
   vertex 1.0699034E-4 0.653766 0.574035
  endloop
 endfacet
 facet normal -0.00792098 0.7069743 0.7071949
  outer loop
   vertex 0.213902 0.574997 0.655174
   vertex 1.0699034E-4 0.653766 0.574035
   vertex 9.699166E-5 0.574043 0.653733
  endloop
 endfacet
 facet normal 0.72043616 -0.61786366 -0.3149862
  outer loop
   vertex 0.038100995 0.362164 0.36212
   vertex 0.255024 0.579112 0.43271
   vertex 0.255024 0.546699 0.49629
  endloop
 endfacet
 facet normal -0.007814505 0.9876167 0.15669104
  outer loop
   vertex 0.21391898 0.706568 0.47415
   vertex 0.21391898 0.72432 0.36225998
   vertex 1.12995505E-4 0.722627 0.362268
  endloop
 endfacet
 facet normal -0.0078097526 0.9876182 0.15668216
  outer loop
   vertex 0.21391898 0.706568 0.47415
   vertex 1.12995505E-4 0.722627 0.362268
   vertex 1.12995505E-4 0.70496297 0.47360998
  endloop
 endfacet
 facet normal 0.7203996 -0.6850542 0.10828261
  outer loop
   vertex 0.038100995 0.362164 0.36212
   vertex 0.255024 0.579153 0.29173
   vertex 0.255024 0.59029496 0.36222
  endloop
 endfacet
 facet normal -0.007863062 0.8911566 -0.45362768
  outer loop
   vertex 0.213913 0.706634 0.25037
   vertex 0.213902 0.65524197 0.14941
   vertex 9.699166E-5 0.65389097 0.15046199
  endloop
 endfacet
 facet normal -0.007869317 0.8911619 -0.4536171
  outer loop
   vertex 0.213913 0.706634 0.25037
   vertex 9.699166E-5 0.65389097 0.15046199
   vertex 1.07988715E-4 0.705029 0.250926
  endloop
 endfacet
 facet normal 0.72037417 -0.49062383 0.4902543
  outer loop
   vertex 0.038100995 0.362164 0.36212
   vertex 0.255024 0.496337 0.17764999
   vertex 0.255024 0.546779 0.22813
  endloop
 endfacet
 facet normal -0.008118401 0.45440924 -0.890756
  outer loop
   vertex 0.213886 0.575171 0.06926
   vertex 0.21386899 0.474257 0.017780006
   vertex 6.599724E-5 0.473801 0.019495994
  endloop
 endfacet
 facet normal -0.008131168 0.4544307 -0.890745
  outer loop
   vertex 0.213886 0.575171 0.06926
   vertex 6.599724E-5 0.473801 0.019495994
   vertex 8.198619E-5 0.57421696 0.070724994
  endloop
 endfacet
 facet normal 0.72037596 -0.108848974 0.68498933
  outer loop
   vertex 0.038100995 0.362164 0.36212
   vertex 0.255024 0.362285 0.13400999
   vertex 0.255024 0.43276697 0.14521
  endloop
 endfacet
 facet normal -0.008369965 -0.15579146 -0.9877545
  outer loop
   vertex 0.21384999 0.362375 0.0
   vertex 0.213831 0.250471 0.017649978
   vertex 2.9996037E-5 0.251122 0.019358993
  endloop
 endfacet
 facet normal -0.008354897 -0.15581964 -0.9877501
  outer loop
   vertex 0.21384999 0.362375 0.0
   vertex 2.9996037E-5 0.251122 0.019358993
   vertex 4.6998262E-5 0.36247298 0.0017929971
  endloop
 endfacet
 facet normal 0.720389 0.3144814 0.6181757
  outer loop
   vertex 0.038100995 0.362164 0.36212
   vertex 0.255024 0.22818099 0.17749
   vertex 0.255024 0.291791 0.14513
  endloop
 endfacet
 facet normal -0.008637299 -0.70657206 -0.7075883
  outer loop
   vertex 0.213817 0.14949599 0.06900999
   vertex 0.21380499 0.06933099 0.14906
   vertex 5.990267E-6 0.070876986 0.150126
  endloop
 endfacet
 facet normal -0.00864572 -0.70656073 -0.7075996
  outer loop
   vertex 0.213817 0.14949599 0.06900999
   vertex 5.990267E-6 0.070876986 0.150126
   vertex 1.5988946E-5 0.15064698 0.070472986
  endloop
 endfacet
 facet normal 0.7204259 0.6176836 0.3153625
  outer loop
   vertex 0.038100995 0.362164 0.36212
   vertex 0.255024 0.14523 0.29147
   vertex 0.255024 0.17768098 0.22791
  endloop
 endfacet
 facet normal -0.008747453 -0.9875131 -0.15729402
  outer loop
   vertex 0.21379998 0.017818987 0.24995999
   vertex 0.21379998 0.0 0.36183
   vertex 0.0 0.0018909872 0.361848
  endloop
 endfacet
 facet normal -0.0087283775 -0.98751897 -0.15725839
  outer loop
   vertex 0.21379998 0.017818987 0.24995999
   vertex 0.0 0.0018909872 0.361848
   vertex 0.0 0.019620001 0.25051698
  endloop
 endfacet
 facet normal 0.72045773 0.6850612 -0.10785099
  outer loop
   vertex 0.038100995 0.362164 0.36212
   vertex 0.255024 0.14510499 0.43245
   vertex 0.255024 0.134006 0.36194998
  endloop
 endfacet
 facet normal -0.0086688185 -0.8914203 0.45309445
  outer loop
   vertex 0.213806 0.017618984 0.47373998
   vertex 0.213817 0.068951994 0.574733
   vertex 1.5988946E-5 0.070501 0.57369
  endloop
 endfacet
 facet normal -0.008663864 -0.89141613 0.45310286
  outer loop
   vertex 0.213806 0.017618984 0.47373998
   vertex 1.5988946E-5 0.070501 0.57369
   vertex 5.990267E-6 0.019422978 0.47320098
  endloop
 endfacet
 facet normal 0.72048295 0.49086404 -0.48985386
  outer loop
   vertex 0.038100995 0.362164 0.36212
   vertex 0.255024 0.22785299 0.54658496
   vertex 0.255024 0.17744198 0.49607
  endloop
 endfacet
 facet normal -0.008445058 -0.454947 0.8904785
  outer loop
   vertex 0.21383199 0.14897498 0.654922
   vertex 0.21384999 0.24985899 0.706464
   vertex 4.6998262E-5 0.250512 0.70476997
  endloop
 endfacet
 facet normal -0.0084533775 -0.45496097 0.8904713
  outer loop
   vertex 0.21383199 0.14897498 0.654922
   vertex 4.6998262E-5 0.250512 0.70476997
   vertex 2.9996037E-5 0.15012899 0.65348196
  endloop
 endfacet
 facet normal 0.72045326 0.1088757 -0.68490386
  outer loop
   vertex 0.038100995 0.362164 0.36212
   vertex 0.255024 0.36214998 0.59029996
   vertex 0.255024 0.291405 0.579054
  endloop
 endfacet
 facet normal -1.0 0.0 0.0
  outer loop
   vertex 0.200821 0.14637598 0.148262
   vertex 0.200821 0.14637598 0.579201
   vertex 0.200821 0.574553 0.579201
  endloop
 endfacet
 facet normal -1.0 0.0 0.0
  outer loop
   vertex 0.200821 0.574553 0.148262
   vertex 0.200821 0.14637598 0.148262
   vertex 0.200821 0.574553 0.579201
  endloop
 endfacet
 facet normal -0.7391968 0.1064236 -0.66502786
  outer loop
   vertex 0.2062005 0.36199868 0.7058442
   vertex 0.21614176 0.36186945 0.69477355
   vertex 0.21612597 0.25873786 0.6782871
  endloop
 endfacet
 facet normal -0.7404411 0.105954245 -0.6637173
  outer loop
   vertex 0.20618366 0.25542292 0.6888495
   vertex 0.2062005 0.36199868 0.7058442
   vertex 0.21612597 0.25873786 0.6782871
  endloop
 endfacet
 facet normal 0.9996679 -0.01179536 0.022911986
  outer loop
   vertex 0.020056996 0.36247987 0.36284947
   vertex 0.011322532 0.25645027 0.68935573
   vertex 0.011306973 0.16054116 0.64065945
  endloop
 endfacet
 facet normal -0.98183775 0.086418554 -0.16889793
  outer loop
   vertex 0.21612597 0.25873786 0.6782871
   vertex 0.23536563 0.29014254 0.5825116
   vertex 0.23536532 0.22558427 0.54948145
  endloop
 endfacet
 facet normal -0.9818043 0.08667753 -0.16895959
  outer loop
   vertex 0.21611008 0.16612896 0.63087034
   vertex 0.21612597 0.25873786 0.6782871
   vertex 0.23536532 0.22558427 0.54948145
  endloop
 endfacet
 facet normal -0.739151 0.47724152 -0.47528556
  outer loop
   vertex 0.20616788 0.15971415 0.63989097
   vertex 0.21611008 0.16612896 0.63087034
   vertex 0.21609591 0.09269849 0.5571597
  endloop
 endfacet
 facet normal -0.74041754 0.47606993 -0.4744885
  outer loop
   vertex 0.20615458 0.08381015 0.56375474
   vertex 0.20616788 0.15971415 0.63989097
   vertex 0.21609591 0.09269849 0.5571597
  endloop
 endfacet
 facet normal 0.99966675 -0.023019593 0.011679483
  outer loop
   vertex 0.020056996 0.36247987 0.36284947
   vertex 0.011294325 0.084364824 0.5647126
   vertex 0.011285245 0.035381675 0.46894675
  endloop
 endfacet
 facet normal -0.981783 0.16943206 -0.08599412
  outer loop
   vertex 0.21609591 0.09269849 0.5571597
   vertex 0.23536502 0.17439052 0.49812272
   vertex 0.23536481 0.1415696 0.43345886
  endloop
 endfacet
 facet normal -0.9817587 0.16960993 -0.08592005
  outer loop
   vertex 0.21608552 0.045634404 0.46437183
   vertex 0.21609591 0.09269849 0.5571597
   vertex 0.23536481 0.1415696 0.43345886
  endloop
 endfacet
 facet normal -0.7391691 0.66541827 -0.10415114
  outer loop
   vertex 0.20614484 0.03514246 0.46788898
   vertex 0.21608552 0.045634404 0.46437183
   vertex 0.2160818 0.029540326 0.36157373
  endloop
 endfacet
 facet normal -0.7403123 0.6641401 -0.104190625
  outer loop
   vertex 0.20613937 0.018474096 0.36167905
   vertex 0.20614484 0.03514246 0.46788898
   vertex 0.2160818 0.029540326 0.36157373
  endloop
 endfacet
 facet normal 0.9996668 -0.025498498 -0.003997111
  outer loop
   vertex 0.020056996 0.36247987 0.36284947
   vertex 0.011279653 0.018382993 0.362733
   vertex 0.011279362 0.03503165 0.25645474
  endloop
 endfacet
 facet normal -0.98175806 0.18775164 0.030008037
  outer loop
   vertex 0.2160818 0.029540326 0.36157373
   vertex 0.23536472 0.13033235 0.3618169
   vertex 0.2353647 0.14177737 0.2902083
  endloop
 endfacet
 facet normal -0.9817464 0.18779999 0.030087272
  outer loop
   vertex 0.2160808 0.045993544 0.25884277
   vertex 0.2160818 0.029540326 0.36157373
   vertex 0.2353647 0.14177737 0.2902083
  endloop
 endfacet
 facet normal -0.73916894 0.5996207 0.30673167
  outer loop
   vertex 0.206139 0.035435896 0.25552362
   vertex 0.2160808 0.045993544 0.25884277
   vertex 0.21608531 0.09338093 0.16621745
  endloop
 endfacet
 facet normal -0.74034315 0.5985822 0.3059271
  outer loop
   vertex 0.2061429 0.084367 0.15979363
   vertex 0.206139 0.035435896 0.25552362
   vertex 0.21608531 0.09338093 0.16621745
  endloop
 endfacet
 facet normal 0.99966824 -0.018303694 -0.01812372
  outer loop
   vertex 0.020056996 0.36247987 0.36284947
   vertex 0.011284706 0.08370013 0.16053548
   vertex 0.01129343 0.15962692 0.084335886
  endloop
 endfacet
 facet normal -0.9817625 0.13425107 0.13460647
  outer loop
   vertex 0.21608531 0.09338093 0.16621745
   vertex 0.2353648 0.17478697 0.2256427
   vertex 0.23536502 0.22612841 0.17443843
  endloop
 endfacet
 facet normal -0.9817701 0.13425589 0.13454668
  outer loop
   vertex 0.21609527 0.1670688 0.09276147
   vertex 0.21608531 0.09338093 0.16621745
   vertex 0.23536502 0.22612841 0.17443843
  endloop
 endfacet
 facet normal -0.73937094 0.30487862 0.6003163
  outer loop
   vertex 0.20615388 0.16048011 0.08386346
   vertex 0.21609527 0.1670688 0.09276147
   vertex 0.21610995 0.2598459 0.045661453
  endloop
 endfacet
 facet normal -0.74023163 0.30460933 0.5993916
  outer loop
   vertex 0.20616737 0.2563284 0.035170242
   vertex 0.20615388 0.16048011 0.08386346
   vertex 0.21610995 0.2598459 0.045661453
  endloop
 endfacet
 facet normal 0.99967015 -0.0042053633 -0.025335735
  outer loop
   vertex 0.020056996 0.36247987 0.36284947
   vertex 0.0113055 0.2553795 0.035319462
   vertex 0.011320687 0.36159056 0.018289216
  endloop
 endfacet
 facet normal -0.9818101 0.02948798 0.18756166
  outer loop
   vertex 0.21610995 0.2598459 0.045661453
   vertex 0.23536532 0.29078117 0.14159204
   vertex 0.23536566 0.36241755 0.13033134
  endloop
 endfacet
 facet normal -0.98182416 0.029560668 0.1874768
  outer loop
   vertex 0.2161262 0.3626349 0.029539194
   vertex 0.21610995 0.2598459 0.045661453
   vertex 0.23536566 0.36241755 0.13033134
  endloop
 endfacet
 facet normal -0.7392029 -0.10618988 0.66505855
  outer loop
   vertex 0.20618321 0.36253327 0.018471476
   vertex 0.2161262 0.3626349 0.029539194
   vertex 0.21614146 0.46537787 0.04596112
  endloop
 endfacet
 facet normal -0.7405617 -0.10567569 0.66362715
  outer loop
   vertex 0.20619932 0.46870106 0.035395563
   vertex 0.20618321 0.36253327 0.018471476
   vertex 0.21614146 0.46537787 0.04596112
  endloop
 endfacet
 facet normal 0.9996723 0.011460386 -0.022895372
  outer loop
   vertex 0.020056996 0.36247987 0.36284947
   vertex 0.011338172 0.46786457 0.034913424
   vertex 0.01135231 0.56380713 0.08355525
  endloop
 endfacet
 facet normal -0.98186404 -0.08626009 0.16882607
  outer loop
   vertex 0.21614146 0.46537787 0.04596112
   vertex 0.23536596 0.43403026 0.14175077
   vertex 0.23536634 0.49860838 0.17474861
  endloop
 endfacet
 facet normal -0.98188305 -0.086112455 0.16879082
  outer loop
   vertex 0.21615729 0.55801976 0.09331653
   vertex 0.21614146 0.46537787 0.04596112
   vertex 0.23536634 0.49860838 0.17474861
  endloop
 endfacet
 facet normal -0.7394063 -0.47661406 0.47551802
  outer loop
   vertex 0.2062153 0.5644441 0.084296435
   vertex 0.21615729 0.55801976 0.09331653
   vertex 0.21617183 0.631497 0.16698578
  endloop
 endfacet
 facet normal -0.7404356 -0.47566155 0.47486955
  outer loop
   vertex 0.20622967 0.6403947 0.16039607
   vertex 0.2062153 0.5644441 0.084296435
   vertex 0.21617183 0.631497 0.16698578
  endloop
 endfacet
 facet normal 0.9996733 0.022704372 -0.011735654
  outer loop
   vertex 0.020056996 0.36247987 0.36284947
   vertex 0.01136562 0.6400257 0.15944931
   vertex 0.011375802 0.6890649 0.25519028
  endloop
 endfacet
 facet normal -0.9819208 -0.16874012 0.085780375
  outer loop
   vertex 0.21617183 0.631497 0.16698578
   vertex 0.23536661 0.5498366 0.22607109
   vertex 0.23536682 0.5826981 0.290716
  endloop
 endfacet
 facet normal -0.98192555 -0.1687052 0.085794896
  outer loop
   vertex 0.21618114 0.67861897 0.25975192
   vertex 0.21617183 0.631497 0.16698578
   vertex 0.23536682 0.5826981 0.290716
  endloop
 endfacet
 facet normal -0.7394312 -0.6650617 0.104567796
  outer loop
   vertex 0.20623873 0.6891196 0.25623098
   vertex 0.21618114 0.67861897 0.25975192
   vertex 0.21618655 0.6947748 0.36254293
  endloop
 endfacet
 facet normal -0.7406714 -0.6636735 0.104609996
  outer loop
   vertex 0.20624395 0.705852 0.36242265
   vertex 0.20623873 0.6891196 0.25623098
   vertex 0.21618655 0.6947748 0.36254293
  endloop
 endfacet
 facet normal 0.9996732 0.025256751 0.0039397134
  outer loop
   vertex 0.020056996 0.36247987 0.36284947
   vertex 0.011380512 0.7061262 0.36139205
   vertex 0.011380683 0.6895401 0.4676793
  endloop
 endfacet
 facet normal -0.9819476 -0.18680023 -0.029742233
  outer loop
   vertex 0.21618655 0.6947748 0.36254293
   vertex 0.23536693 0.5939805 0.3623506
   vertex 0.23536693 0.5825769 0.43397266
  endloop
 endfacet
 facet normal -0.9819376 -0.18684185 -0.029810272
  outer loop
   vertex 0.21618658 0.6783821 0.46528652
   vertex 0.21618655 0.6947748 0.36254293
   vertex 0.23536693 0.5825769 0.43397266
  endloop
 endfacet
 facet normal -0.73944116 -0.5995014 -0.30630845
  outer loop
   vertex 0.20624398 0.6889534 0.46859843
   vertex 0.21618658 0.6783821 0.46528652
   vertex 0.21618094 0.6310469 0.55794376
  endloop
 endfacet
 facet normal -0.74066377 -0.5984186 -0.30547073
  outer loop
   vertex 0.2062389 0.64007837 0.56435716
   vertex 0.20624398 0.6889534 0.46859843
   vertex 0.21618094 0.6310469 0.55794376
  endloop
 endfacet
 facet normal 0.999672 0.018097589 0.018126024
  outer loop
   vertex 0.020056996 0.36247987 0.36284947
   vertex 0.011375517 0.64093024 0.56363
   vertex 0.011366793 0.56504995 0.6398724
  endloop
 endfacet
 facet normal -0.9819363 -0.13369235 -0.13389365
  outer loop
   vertex 0.21618094 0.6310469 0.55794376
   vertex 0.2353668 0.5496038 0.4985609
   vertex 0.23536661 0.4982886 0.5498004
  endloop
 endfacet
 facet normal -0.98191386 -0.13367814 -0.13407232
  outer loop
   vertex 0.21617174 0.5573998 0.63144165
   vertex 0.21618094 0.6310469 0.55794376
   vertex 0.23536661 0.4982886 0.5498004
  endloop
 endfacet
 facet normal -0.7393337 -0.3050236 -0.60028845
  outer loop
   vertex 0.20622951 0.564008 0.640329
   vertex 0.21617174 0.5573998 0.63144165
   vertex 0.2161577 0.4646478 0.67858887
  endloop
 endfacet
 facet normal -0.74059564 -0.30462757 -0.5989325
  outer loop
   vertex 0.20621526 0.46818805 0.6890823
   vertex 0.20622951 0.564008 0.640329
   vertex 0.2161577 0.4646478 0.67858887
  endloop
 endfacet
 facet normal 0.9996699 0.0039378027 0.025388304
  outer loop
   vertex 0.020056996 0.36247987 0.36284947
   vertex 0.011354438 0.4693273 0.6889422
   vertex 0.011338605 0.36313543 0.7060363
  endloop
 endfacet
 facet normal -0.9818948 -0.029515628 -0.18711339
  outer loop
   vertex 0.2161577 0.4646478 0.67858887
   vertex 0.23536633 0.43365324 0.582679
   vertex 0.23536597 0.36201987 0.59398043
  endloop
 endfacet
 facet normal -0.9818617 -0.029344294 -0.18731369
  outer loop
   vertex 0.21614176 0.36186945 0.69477355
   vertex 0.2161577 0.4646478 0.67858887
   vertex 0.23536597 0.36201987 0.59398043
  endloop
 endfacet
 facet normal -0.7393092 -0.10463348 -0.66518694
  outer loop
   vertex 0.20621526 0.46818805 0.6890823
   vertex 0.2161577 0.4646478 0.67858887
   vertex 0.21614176 0.36186945 0.69477355
  endloop
 endfacet
 facet normal -0.74055976 -0.10467534 -0.6637878
  outer loop
   vertex 0.2062005 0.36199868 0.7058442
   vertex 0.20621526 0.46818805 0.6890823
   vertex 0.21614176 0.36186945 0.69477355
  endloop
 endfacet
 facet normal -0.98192006 -0.08582165 -0.16872361
  outer loop
   vertex 0.21617174 0.5573998 0.63144165
   vertex 0.23536661 0.4982886 0.5498004
   vertex 0.23536633 0.43365324 0.582679
  endloop
 endfacet
 facet normal -0.98188984 -0.08572925 -0.1689462
  outer loop
   vertex 0.2161577 0.4646478 0.67858887
   vertex 0.21617174 0.5573998 0.63144165
   vertex 0.23536633 0.43365324 0.582679
  endloop
 endfacet
 facet normal 0.999671 0.011598865 0.022878109
  outer loop
   vertex 0.020056996 0.36247987 0.36284947
   vertex 0.011366793 0.56504995 0.6398724
   vertex 0.011354438 0.4693273 0.6889422
  endloop
 endfacet
 facet normal -0.7394149 -0.4755305 -0.47658822
  outer loop
   vertex 0.2062389 0.64007837 0.56435716
   vertex 0.21618094 0.6310469 0.55794376
   vertex 0.21617174 0.5573998 0.63144165
  endloop
 endfacet
 facet normal -0.7406046 -0.4747804 -0.47548768
  outer loop
   vertex 0.20622951 0.564008 0.640329
   vertex 0.2062389 0.64007837 0.56435716
   vertex 0.21617174 0.5573998 0.63144165
  endloop
 endfacet
 facet normal -0.9819463 -0.16847472 -0.08601012
  outer loop
   vertex 0.21618658 0.6783821 0.46528652
   vertex 0.23536693 0.5825769 0.43397266
   vertex 0.2353668 0.5496038 0.4985609
  endloop
 endfacet
 facet normal -0.9819291 -0.16850668 -0.08614377
  outer loop
   vertex 0.21618094 0.6310469 0.55794376
   vertex 0.21618658 0.6783821 0.46528652
   vertex 0.2353668 0.5496038 0.4985609
  endloop
 endfacet
 facet normal 0.9996727 0.022799982 0.011604588
  outer loop
   vertex 0.020056996 0.36247987 0.36284947
   vertex 0.011380683 0.6895401 0.4676793
   vertex 0.011375517 0.64093024 0.56363
  endloop
 endfacet
 facet normal -0.73941886 -0.66483694 -0.1060743
  outer loop
   vertex 0.20624395 0.705852 0.36242265
   vertex 0.21618655 0.6947748 0.36254293
   vertex 0.21618658 0.6783821 0.46528652
  endloop
 endfacet
 facet normal -0.7406611 -0.66352755 -0.10560455
  outer loop
   vertex 0.20624398 0.6889534 0.46859843
   vertex 0.20624395 0.705852 0.36242265
   vertex 0.21618658 0.6783821 0.46528652
  endloop
 endfacet
 facet normal -0.98193777 -0.18690011 0.029438023
  outer loop
   vertex 0.21618114 0.67861897 0.25975192
   vertex 0.23536682 0.5826981 0.290716
   vertex 0.23536693 0.5939805 0.3623506
  endloop
 endfacet
 facet normal -0.9819359 -0.1869109 0.029428778
  outer loop
   vertex 0.21618655 0.6947748 0.36254293
   vertex 0.21618114 0.67861897 0.25975192
   vertex 0.23536693 0.5939805 0.3623506
  endloop
 endfacet
 facet normal 0.9996735 0.025222678 -0.004096356
  outer loop
   vertex 0.020056996 0.36247987 0.36284947
   vertex 0.011375802 0.6890649 0.25519028
   vertex 0.011380512 0.7061262 0.36139205
  endloop
 endfacet
 facet normal -0.7393597 -0.6002727 0.30499175
  outer loop
   vertex 0.20622967 0.6403947 0.16039607
   vertex 0.21617183 0.631497 0.16698578
   vertex 0.21618114 0.67861897 0.25975192
  endloop
 endfacet
 facet normal -0.740527 -0.59901816 0.304626
  outer loop
   vertex 0.20623873 0.6891196 0.25623098
   vertex 0.20622967 0.6403947 0.16039607
   vertex 0.21618114 0.67861897 0.25975192
  endloop
 endfacet
 facet normal -0.9818973 -0.13405633 0.13381518
  outer loop
   vertex 0.21615729 0.55801976 0.09331653
   vertex 0.23536634 0.49860838 0.17474861
   vertex 0.23536661 0.5498366 0.22607109
  endloop
 endfacet
 facet normal -0.98190737 -0.13397686 0.13382156
  outer loop
   vertex 0.21617183 0.631497 0.16698578
   vertex 0.21615729 0.55801976 0.09331653
   vertex 0.23536661 0.5498366 0.22607109
  endloop
 endfacet
 facet normal 0.9996729 0.017958885 -0.018210992
  outer loop
   vertex 0.020056996 0.36247987 0.36284947
   vertex 0.01135231 0.56380713 0.08355525
   vertex 0.01136562 0.6400257 0.15944931
  endloop
 endfacet
 facet normal -0.73945683 -0.30630872 0.59948206
  outer loop
   vertex 0.20619932 0.46870106 0.035395563
   vertex 0.21614146 0.46537787 0.04596112
   vertex 0.21615729 0.55801976 0.09331653
  endloop
 endfacet
 facet normal -0.74051183 -0.30558538 0.598548
  outer loop
   vertex 0.2062153 0.5644441 0.084296435
   vertex 0.20619932 0.46870106 0.035395563
   vertex 0.21615729 0.55801976 0.09331653
  endloop
 endfacet
 facet normal -0.9818387 -0.029871147 0.1873514
  outer loop
   vertex 0.2161262 0.3626349 0.029539194
   vertex 0.23536566 0.36241755 0.13033134
   vertex 0.23536596 0.43403026 0.14175077
  endloop
 endfacet
 facet normal -0.9818503 -0.029791743 0.18730287
  outer loop
   vertex 0.21614146 0.46537787 0.04596112
   vertex 0.2161262 0.3626349 0.029539194
   vertex 0.23536596 0.43403026 0.14175077
  endloop
 endfacet
 facet normal 0.9996713 0.0038019854 -0.02535643
  outer loop
   vertex 0.020056996 0.36247987 0.36284947
   vertex 0.011320687 0.36159056 0.018289216
   vertex 0.011338172 0.46786457 0.034913424
  endloop
 endfacet
 facet normal -0.73911273 0.10448805 0.66542816
  outer loop
   vertex 0.20616737 0.2563284 0.035170242
   vertex 0.21610995 0.2598459 0.045661453
   vertex 0.2161262 0.3626349 0.029539194
  endloop
 endfacet
 facet normal -0.7402956 0.1045288 0.6641054
  outer loop
   vertex 0.20618321 0.36253327 0.018471476
   vertex 0.20616737 0.2563284 0.035170242
   vertex 0.2161262 0.3626349 0.029539194
  endloop
 endfacet
 facet normal -0.981783 0.08606498 0.16939595
  outer loop
   vertex 0.21609527 0.1670688 0.09276147
   vertex 0.23536502 0.22612841 0.17443843
   vertex 0.23536532 0.29078117 0.14159204
  endloop
 endfacet
 facet normal -0.9817959 0.08610431 0.1693014
  outer loop
   vertex 0.21610995 0.2598459 0.045661453
   vertex 0.21609527 0.1670688 0.09276147
   vertex 0.23536532 0.29078117 0.14159204
  endloop
 endfacet
 facet normal 0.99966913 -0.011820796 -0.022845507
  outer loop
   vertex 0.020056996 0.36247987 0.36284947
   vertex 0.01129343 0.15962692 0.084335886
   vertex 0.0113055 0.2553795 0.035319462
  endloop
 endfacet
 facet normal -0.73922783 0.47550395 0.47690487
  outer loop
   vertex 0.2061429 0.084367 0.15979363
   vertex 0.21608531 0.09338093 0.16621745
   vertex 0.21609527 0.1670688 0.09276147
  endloop
 endfacet
 facet normal -0.74045986 0.47472826 0.47576496
  outer loop
   vertex 0.20615388 0.16048011 0.08386346
   vertex 0.2061429 0.084367 0.15979363
   vertex 0.21609527 0.1670688 0.09276147
  endloop
 endfacet
 facet normal -0.9817545 0.16930927 0.08655912
  outer loop
   vertex 0.2160808 0.045993544 0.25884277
   vertex 0.2353647 0.14177737 0.2902083
   vertex 0.2353648 0.17478697 0.2256427
  endloop
 endfacet
 facet normal -0.98175275 0.16931254 0.08657293
  outer loop
   vertex 0.21608531 0.09338093 0.16621745
   vertex 0.2160808 0.045993544 0.25884277
   vertex 0.2353648 0.17478697 0.2256427
  endloop
 endfacet
 facet normal 0.99966747 -0.023020208 -0.01162453
  outer loop
   vertex 0.020056996 0.36247987 0.36284947
   vertex 0.011279362 0.03503165 0.25645474
   vertex 0.011284706 0.08370013 0.16053548
  endloop
 endfacet
 facet normal -0.73913115 0.6650844 0.106525995
  outer loop
   vertex 0.20613937 0.018474096 0.36167905
   vertex 0.2160818 0.029540326 0.36157373
   vertex 0.2160808 0.045993544 0.25884277
  endloop
 endfacet
 facet normal -0.74034166 0.6638102 0.106067985
  outer loop
   vertex 0.206139 0.035435896 0.25552362
   vertex 0.20613937 0.018474096 0.36167905
   vertex 0.2160808 0.045993544 0.25884277
  endloop
 endfacet
 facet normal -0.98176444 0.18780522 -0.029456574
  outer loop
   vertex 0.21608552 0.045634404 0.46437183
   vertex 0.23536481 0.1415696 0.43345886
   vertex 0.23536472 0.13033235 0.3618169
  endloop
 endfacet
 facet normal -0.9817499 0.18789335 -0.029381016
  outer loop
   vertex 0.2160818 0.029540326 0.36157373
   vertex 0.21608552 0.045634404 0.46437183
   vertex 0.23536472 0.13033235 0.3618169
  endloop
 endfacet
 facet normal 0.9996667 -0.025501214 0.004028634
  outer loop
   vertex 0.020056996 0.36247987 0.36284947
   vertex 0.011285245 0.035381675 0.46894675
   vertex 0.011279653 0.018382993 0.362733
  endloop
 endfacet
 facet normal -0.7391608 0.6007107 -0.30461115
  outer loop
   vertex 0.20615458 0.08381015 0.56375474
   vertex 0.21609591 0.09269849 0.5571597
   vertex 0.21608552 0.045634404 0.46437183
  endloop
 endfacet
 facet normal -0.74033624 0.5994482 -0.30424362
  outer loop
   vertex 0.20614484 0.03514246 0.46788898
   vertex 0.20615458 0.08381015 0.56375474
   vertex 0.21608552 0.045634404 0.46437183
  endloop
 endfacet
 facet normal -0.9818087 0.13447897 -0.13404128
  outer loop
   vertex 0.21611008 0.16612896 0.63087034
   vertex 0.23536532 0.22558427 0.54948145
   vertex 0.23536502 0.17439052 0.49812272
  endloop
 endfacet
 facet normal -0.981778 0.13472244 -0.13402167
  outer loop
   vertex 0.21609591 0.09269849 0.5571597
   vertex 0.21611008 0.16612896 0.63087034
   vertex 0.23536502 0.17439052 0.49812272
  endloop
 endfacet
 facet normal 0.99966717 -0.018297087 0.018185886
  outer loop
   vertex 0.020056996 0.36247987 0.36284947
   vertex 0.011306973 0.16054116 0.64065945
   vertex 0.011294325 0.084364824 0.5647126
  endloop
 endfacet
 facet normal -0.73919284 0.30704248 -0.5994322
  outer loop
   vertex 0.20618366 0.25542292 0.6888495
   vertex 0.21612597 0.25873786 0.6782871
   vertex 0.21611008 0.16612896 0.63087034
  endloop
 endfacet
 facet normal -0.7404326 0.30619267 -0.5983357
  outer loop
   vertex 0.20616788 0.15971415 0.63989097
   vertex 0.20618366 0.25542292 0.6888495
   vertex 0.21611008 0.16612896 0.63087034
  endloop
 endfacet
 facet normal -0.9818625 0.029878594 -0.18722546
  outer loop
   vertex 0.21614176 0.36186945 0.69477355
   vertex 0.23536597 0.36201987 0.59398043
   vertex 0.23536563 0.29014254 0.5825116
  endloop
 endfacet
 facet normal -0.98182946 0.03010186 -0.18736246
  outer loop
   vertex 0.21612597 0.25873786 0.6782871
   vertex 0.21614176 0.36186945 0.69477355
   vertex 0.23536563 0.29014254 0.5825116
  endloop
 endfacet
 facet normal 0.9996687 -0.004122557 0.025403673
  outer loop
   vertex 0.020056996 0.36247987 0.36284947
   vertex 0.011338605 0.36313543 0.7060363
   vertex 0.011322532 0.25645027 0.68935573
  endloop
 endfacet
 facet normal -5.4925298E-5 0.15747185 -0.98752344
  outer loop
   vertex 0.011338605 0.36313543 0.7060363
   vertex 0.2062005 0.36199868 0.7058442
   vertex 0.20618366 0.25542292 0.6888495
  endloop
 endfacet
 facet normal -0.0017522429 0.15447673 -0.9879949
  outer loop
   vertex 0.011322532 0.25645027 0.68935573
   vertex 0.011338605 0.36313543 0.7060363
   vertex 0.20618366 0.25542292 0.6888495
  endloop
 endfacet
 facet normal -0.7254679 -0.31348372 0.61271876
  outer loop
   vertex 0.23536532 0.22558427 0.54948145
   vertex 0.23536563 0.29014254 0.5825116
   vertex 0.018100997 0.36216486 0.36211568
  endloop
 endfacet
 facet normal 2.2124172E-4 0.708186 -0.7060259
  outer loop
   vertex 0.011306973 0.16054116 0.64065945
   vertex 0.20616788 0.15971415 0.63989097
   vertex 0.20615458 0.08381015 0.56375474
  endloop
 endfacet
 facet normal -0.0014713058 0.7060387 -0.7081717
  outer loop
   vertex 0.011294325 0.084364824 0.5647126
   vertex 0.011306973 0.16054116 0.64065945
   vertex 0.20615458 0.08381015 0.56375474
  endloop
 endfacet
 facet normal -0.72544837 -0.6137446 0.31151587
  outer loop
   vertex 0.23536481 0.1415696 0.43345886
   vertex 0.23536502 0.17439052 0.49812272
   vertex 0.018100997 0.36216486 0.36211568
  endloop
 endfacet
 facet normal 3.7116828E-4 0.98790807 -0.15504022
  outer loop
   vertex 0.011285245 0.035381675 0.46894675
   vertex 0.20614484 0.03514246 0.46788898
   vertex 0.20613937 0.018474096 0.36167905
  endloop
 endfacet
 facet normal -0.0013164195 0.9874333 -0.15803094
  outer loop
   vertex 0.011279653 0.018382993 0.362733
   vertex 0.011285245 0.035381675 0.46894675
   vertex 0.20613937 0.018474096 0.36167905
  endloop
 endfacet
 facet normal -0.7254134 -0.679687 -0.108632445
  outer loop
   vertex 0.2353647 0.14177737 0.2902083
   vertex 0.23536472 0.13033235 0.3618169
   vertex 0.018100997 0.36216486 0.36211568
  endloop
 endfacet
 facet normal 3.275483E-4 0.8904254 0.455129
  outer loop
   vertex 0.011279362 0.03503165 0.25645474
   vertex 0.206139 0.035435896 0.25552362
   vertex 0.2061429 0.084367 0.15979363
  endloop
 endfacet
 facet normal -0.0013293095 0.8917747 0.4524776
  outer loop
   vertex 0.011284706 0.08370013 0.16053548
   vertex 0.011279362 0.03503165 0.25645474
   vertex 0.2061429 0.084367 0.15979363
  endloop
 endfacet
 facet normal -0.72537494 -0.4860866 -0.48739204
  outer loop
   vertex 0.23536502 0.22612841 0.17443843
   vertex 0.2353648 0.17478697 0.2256427
   vertex 0.018100997 0.36216486 0.36211568
  endloop
 endfacet
 facet normal 1.7835783E-4 0.4529273 0.89154744
  outer loop
   vertex 0.01129343 0.15962692 0.084335886
   vertex 0.20615388 0.16048011 0.08386346
   vertex 0.20616737 0.2563284 0.035170242
  endloop
 endfacet
 facet normal -0.0015373062 0.45567235 0.8901463
  outer loop
   vertex 0.0113055 0.2553795 0.035319462
   vertex 0.01129343 0.15962692 0.084335886
   vertex 0.20616737 0.2563284 0.035170242
  endloop
 endfacet
 facet normal -0.72535104 -0.10689207 -0.6800294
  outer loop
   vertex 0.23536566 0.36241755 0.13033134
   vertex 0.23536532 0.29078117 0.14159204
   vertex 0.018100997 0.36216486 0.36211568
  endloop
 endfacet
 facet normal -1.6208965E-4 -0.15742125 0.98753154
  outer loop
   vertex 0.011320687 0.36159056 0.018289216
   vertex 0.20618321 0.36253327 0.018471476
   vertex 0.20619932 0.46870106 0.035395563
  endloop
 endfacet
 facet normal -0.0017810978 -0.15454783 0.98798364
  outer loop
   vertex 0.011338172 0.46786457 0.034913424
   vertex 0.011320687 0.36159056 0.018289216
   vertex 0.20619932 0.46870106 0.035395563
  endloop
 endfacet
 facet normal -0.72534657 0.31322873 -0.6129927
  outer loop
   vertex 0.23536634 0.49860838 0.17474861
   vertex 0.23536596 0.43403026 0.14175077
   vertex 0.018100997 0.36216486 0.36211568
  endloop
 endfacet
 facet normal -3.731713E-4 -0.7077996 0.7064132
  outer loop
   vertex 0.01135231 0.56380713 0.08355525
   vertex 0.2062153 0.5644441 0.084296435
   vertex 0.20622967 0.6403947 0.16039607
  endloop
 endfacet
 facet normal -0.0021066612 -0.705595 0.7086122
  outer loop
   vertex 0.01136562 0.6400257 0.15944931
   vertex 0.01135231 0.56380713 0.08355525
   vertex 0.20622967 0.6403947 0.16039607
  endloop
 endfacet
 facet normal -0.72536737 0.6136302 -0.31192985
  outer loop
   vertex 0.23536682 0.5826981 0.290716
   vertex 0.23536661 0.5498366 0.22607109
   vertex 0.018100997 0.36216486 0.36211568
  endloop
 endfacet
 facet normal -5.541876E-4 -0.9878125 0.15564753
  outer loop
   vertex 0.011375802 0.6890649 0.25519028
   vertex 0.20623873 0.6891196 0.25623098
   vertex 0.20624395 0.705852 0.36242265
  endloop
 endfacet
 facet normal -0.0022284167 -0.9873379 0.15861574
  outer loop
   vertex 0.011380512 0.7061262 0.36139205
   vertex 0.011375802 0.6890649 0.25519028
   vertex 0.20624395 0.705852 0.36242265
  endloop
 endfacet
 facet normal -0.725402 0.6797631 0.108231485
  outer loop
   vertex 0.23536693 0.5825769 0.43397266
   vertex 0.23536693 0.5939805 0.3623506
   vertex 0.018100997 0.36216486 0.36211568
  endloop
 endfacet
 facet normal -5.373724E-4 -0.89069194 -0.4546071
  outer loop
   vertex 0.011380683 0.6895401 0.4676793
   vertex 0.20624398 0.6889534 0.46859843
   vertex 0.2062389 0.64007837 0.56435716
  endloop
 endfacet
 facet normal -0.002213258 -0.8920529 -0.45192555
  outer loop
   vertex 0.011375517 0.64093024 0.56363
   vertex 0.011380683 0.6895401 0.4676793
   vertex 0.2062389 0.64007837 0.56435716
  endloop
 endfacet
 facet normal -0.72544 0.48633313 0.4870492
  outer loop
   vertex 0.23536661 0.4982886 0.5498004
   vertex 0.2353668 0.5496038 0.4985609
   vertex 0.018100997 0.36216486 0.36211568
  endloop
 endfacet
 facet normal -3.3623874E-4 -0.45347807 -0.8912674
  outer loop
   vertex 0.011366793 0.56504995 0.6398724
   vertex 0.20622951 0.564008 0.640329
   vertex 0.20621526 0.46818805 0.6890823
  endloop
 endfacet
 facet normal -0.002027097 -0.45617774 -0.8898863
  outer loop
   vertex 0.011354438 0.4693273 0.6889422
   vertex 0.011366793 0.56504995 0.6398724
   vertex 0.20621526 0.46818805 0.6890823
  endloop
 endfacet
 facet normal -0.7254638 0.10726236 0.67985076
  outer loop
   vertex 0.23536597 0.36201987 0.59398043
   vertex 0.23536633 0.43365324 0.582679
   vertex 0.018100997 0.36216486 0.36211568
  endloop
 endfacet
 facet normal -2.012414E-4 -0.15591858 -0.98776984
  outer loop
   vertex 0.011354438 0.4693273 0.6889422
   vertex 0.20621526 0.46818805 0.6890823
   vertex 0.2062005 0.36199868 0.7058442
  endloop
 endfacet
 facet normal -0.001900447 -0.15892753 -0.9872885
  outer loop
   vertex 0.011338605 0.36313543 0.7060363
   vertex 0.011354438 0.4693273 0.6889422
   vertex 0.2062005 0.36199868 0.7058442
  endloop
 endfacet
 facet normal -0.7254536 0.31205815 0.6134629
  outer loop
   vertex 0.23536633 0.43365324 0.582679
   vertex 0.23536661 0.4982886 0.5498004
   vertex 0.018100997 0.36216486 0.36211568
  endloop
 endfacet
 facet normal -4.487636E-4 -0.70664835 -0.70756483
  outer loop
   vertex 0.011375517 0.64093024 0.56363
   vertex 0.2062389 0.64007837 0.56435716
   vertex 0.20622951 0.564008 0.640329
  endloop
 endfacet
 facet normal -0.0021368996 -0.70878613 -0.7054202
  outer loop
   vertex 0.011366793 0.56504995 0.6398724
   vertex 0.011375517 0.64093024 0.56363
   vertex 0.20622951 0.564008 0.640329
  endloop
 endfacet
 facet normal -0.7254227 0.61303884 0.3129621
  outer loop
   vertex 0.2353668 0.5496038 0.4985609
   vertex 0.23536693 0.5825769 0.43397266
   vertex 0.018100997 0.36216486 0.36211568
  endloop
 endfacet
 facet normal -5.585716E-4 -0.9875701 -0.15717827
  outer loop
   vertex 0.011380512 0.7061262 0.36139205
   vertex 0.20624395 0.705852 0.36242265
   vertex 0.20624398 0.6889534 0.46859843
  endloop
 endfacet
 facet normal -0.0022475051 -0.98803973 -0.15418361
  outer loop
   vertex 0.011380683 0.6895401 0.4676793
   vertex 0.011380512 0.7061262 0.36139205
   vertex 0.20624398 0.6889534 0.46859843
  endloop
 endfacet
 facet normal -0.7253831 0.6799636 -0.10709257
  outer loop
   vertex 0.23536693 0.5939805 0.3623506
   vertex 0.23536682 0.5826981 0.290716
   vertex 0.018100997 0.36216486 0.36211568
  endloop
 endfacet
 facet normal -5.139182E-4 -0.8914027 0.45321175
  outer loop
   vertex 0.01136562 0.6400257 0.15944931
   vertex 0.20622967 0.6403947 0.16039607
   vertex 0.20623873 0.6891196 0.25623098
  endloop
 endfacet
 facet normal -0.0021850727 -0.89003664 0.45588368
  outer loop
   vertex 0.011375802 0.6890649 0.25519028
   vertex 0.01136562 0.6400257 0.15944931
   vertex 0.20623873 0.6891196 0.25623098
  endloop
 endfacet
 facet normal -0.72535247 0.48720568 -0.48630688
  outer loop
   vertex 0.23536661 0.5498366 0.22607109
   vertex 0.23536634 0.49860838 0.17474861
   vertex 0.018100997 0.36216486 0.36211568
  endloop
 endfacet
 facet normal -2.5090354E-4 -0.4548568 0.8905646
  outer loop
   vertex 0.011338172 0.46786457 0.034913424
   vertex 0.20619932 0.46870106 0.035395563
   vertex 0.2062153 0.5644441 0.084296435
  endloop
 endfacet
 facet normal -0.0019143246 -0.45219252 0.8919183
  outer loop
   vertex 0.01135231 0.56380713 0.08355525
   vertex 0.011338172 0.46786457 0.034913424
   vertex 0.2062153 0.5644441 0.084296435
  endloop
 endfacet
 facet normal -0.72534883 0.10840337 -0.6797925
  outer loop
   vertex 0.23536596 0.43403026 0.14175077
   vertex 0.23536566 0.36241755 0.13033134
   vertex 0.018100997 0.36216486 0.36211568
  endloop
 endfacet
 facet normal 1.1244132E-7 0.15532343 0.98786366
  outer loop
   vertex 0.0113055 0.2553795 0.035319462
   vertex 0.20616737 0.2563284 0.035170242
   vertex 0.20618321 0.36253327 0.018471476
  endloop
 endfacet
 facet normal -0.0016894542 0.15832114 0.9873862
  outer loop
   vertex 0.011320687 0.36159056 0.018289216
   vertex 0.0113055 0.2553795 0.035319462
   vertex 0.20618321 0.36253327 0.018471476
  endloop
 endfacet
 facet normal -0.72535884 -0.31178877 -0.61371183
  outer loop
   vertex 0.23536532 0.29078117 0.14159204
   vertex 0.23536502 0.22612841 0.17443843
   vertex 0.018100997 0.36216486 0.36211568
  endloop
 endfacet
 facet normal 2.782498E-4 0.7062554 0.707957
  outer loop
   vertex 0.011284706 0.08370013 0.16053548
   vertex 0.2061429 0.084367 0.15979363
   vertex 0.20615388 0.16048011 0.08386346
  endloop
 endfacet
 facet normal -0.0013903539 0.7083731 0.70583683
  outer loop
   vertex 0.01129343 0.15962692 0.084335886
   vertex 0.011284706 0.08370013 0.16053548
   vertex 0.20615388 0.16048011 0.08386346
  endloop
 endfacet
 facet normal -0.72539556 -0.61287844 -0.3133392
  outer loop
   vertex 0.2353648 0.17478697 0.2256427
   vertex 0.2353647 0.14177737 0.2902083
   vertex 0.018100997 0.36216486 0.36211568
  endloop
 endfacet
 facet normal 3.917296E-4 0.98747396 0.15778126
  outer loop
   vertex 0.011279653 0.018382993 0.362733
   vertex 0.20613937 0.018474096 0.36167905
   vertex 0.206139 0.035435896 0.25552362
  endloop
 endfacet
 facet normal -0.0013100317 0.9879506 0.15476403
  outer loop
   vertex 0.011279362 0.03503165 0.25645474
   vertex 0.011279653 0.018382993 0.362733
   vertex 0.206139 0.035435896 0.25552362
  endloop
 endfacet
 facet normal -0.7254309 -0.67998093 0.10665789
  outer loop
   vertex 0.23536472 0.13033235 0.3618169
   vertex 0.23536481 0.1415696 0.43345886
   vertex 0.018100997 0.36216486 0.36211568
  endloop
 endfacet
 facet normal 3.1303393E-4 0.89167655 -0.45267305
  outer loop
   vertex 0.011294325 0.084364824 0.5647126
   vertex 0.20615458 0.08381015 0.56375474
   vertex 0.20614484 0.03514246 0.46788898
  endloop
 endfacet
 facet normal -0.0013790071 0.89029753 -0.45537707
  outer loop
   vertex 0.011285245 0.035381675 0.46894675
   vertex 0.011294325 0.084364824 0.5647126
   vertex 0.20614484 0.03514246 0.46788898
  endloop
 endfacet
 facet normal -0.72546136 -0.48745564 0.48589396
  outer loop
   vertex 0.23536502 0.17439052 0.49812272
   vertex 0.23536532 0.22558427 0.54948145
   vertex 0.018100997 0.36216486 0.36211568
  endloop
 endfacet
 facet normal 8.818992E-5 0.45541134 -0.89028114
  outer loop
   vertex 0.011322532 0.25645027 0.68935573
   vertex 0.20618366 0.25542292 0.6888495
   vertex 0.20616788 0.15971415 0.63989097
  endloop
 endfacet
 facet normal -0.0015950403 0.4527213 -0.8916506
  outer loop
   vertex 0.011306973 0.16054116 0.64065945
   vertex 0.011322532 0.25645027 0.68935573
   vertex 0.20616788 0.15971415 0.63989097
  endloop
 endfacet
 facet normal -0.7254372 -0.108448796 0.67969096
  outer loop
   vertex 0.23536563 0.29014254 0.5825116
   vertex 0.23536597 0.36201987 0.59398043
   vertex 0.018100997 0.36216486 0.36211568
  endloop
 endfacet
endsolid